<svg width="770" height="400" viewBox="0 0 770 400" fill="none" xmlns="http://www.w3.org/2000/svg">
<path d="M185.304 392.549L166.336 362.448L185.313 395.828L185.323 399.258C186.676 399.242 188.016 399.19 189.342 399.102L187.794 355.042L187.815 354.702L187.78 354.637L187.633 350.473L207.465 317.483L187.612 347.356L187.553 348.237L186.384 314.948L203.434 280.815L186.251 309.099L185.452 240.1L185.448 239.87L185.445 240.096L185.056 294.497L168.764 272.73L185.07 299.183L185.146 328.979L170.03 300.202L185.154 333.359L185.196 349.927L163.238 309.859L185.214 355.707L185.304 392.549Z" fill="#F6F6F6"/>
<path d="M348.073 392.549L329.105 362.448L348.081 395.828L348.092 399.258C349.445 399.242 350.784 399.19 352.11 399.102L350.563 355.042L350.583 354.702L350.549 354.637L350.401 350.473L370.234 317.483L350.381 347.356L350.321 348.237L349.153 314.948L366.202 280.815L349.019 309.099L348.22 240.1L348.216 239.87L348.214 240.096L347.825 294.497L331.533 272.73L347.839 299.183L347.915 328.979L332.798 300.202L347.923 333.359L347.965 349.927L326.007 309.859L347.982 355.707L348.073 392.549Z" fill="#F6F6F6"/>
<path d="M22.3808 394.485L8.68434 372.749L22.3872 396.853L22.3945 399.33C23.3716 399.318 24.3389 399.281 25.2963 399.217L24.1792 367.402L24.1938 367.156L24.1687 367.109L24.0623 364.102L38.3832 340.28L24.0475 361.851L24.0047 362.488L23.1608 338.45L35.4721 313.803L23.0646 334.226L22.4874 284.402L22.4848 284.236L22.4828 284.399L22.2017 323.682L10.4376 307.965L22.2122 327.066L22.2668 348.581L11.3513 327.801L22.2728 351.744L22.303 363.708L6.44727 334.775L22.3155 367.882L22.3808 394.485Z" fill="#F6F6F6"/>
<path d="M743.939 392.549L724.971 362.448L743.948 395.828L743.958 399.258C745.311 399.242 746.65 399.19 747.976 399.102L746.429 355.042L746.45 354.702L746.415 354.637L746.267 350.473L766.1 317.483L746.247 347.356L746.188 348.237L745.019 314.948L762.068 280.815L744.886 309.099L744.086 240.1L744.083 239.87L744.08 240.096L743.691 294.497L727.399 272.73L743.705 299.183L743.781 328.979L728.664 300.202L743.789 333.359L743.831 349.927L721.873 309.859L743.848 355.707L743.939 392.549Z" fill="#F6F6F6"/>
<path d="M229.538 347.103H331.857V342.767H229.538V347.103Z" fill="#3DAF5B"/>
<path d="M224.335 342.768H326.655V338.432H224.335V342.768Z" fill="#3DAF5B"/>
<path d="M230.405 338.432H332.725V334.096H230.405V338.432Z" fill="#3DAF5B"/>
<path d="M240.81 334.096H343.13V329.761H240.81V334.096Z" fill="#3DAF5B"/>
<path d="M153.751 335.825H157.304V310.602H153.751V335.825Z" fill="#242424"/>
<path d="M153.744 310.281L155.08 313.573L286.543 260.214L285.207 256.923L153.744 310.281Z" fill="#242424"/>
<path d="M88.0293 373.481H118.937V361.403H88.0293V373.481Z" fill="#242424"/>
<path d="M90.8708 385.56H243.275V372.06H90.8708V385.56Z" fill="#242424"/>
<path d="M115.916 378.81H152.507V332.805H125.153L115.916 356.008V378.81Z" fill="#F6F6F6"/>
<path d="M131.193 351.278H146.824V335.647H131.193V351.278Z" fill="white"/>
<path d="M119.469 351.456H129.416V335.825H125.153L119.469 351.456Z" fill="white"/>
<path d="M142.561 366.91H146.113V360.16H142.561V366.91Z" fill="#242424"/>
<path d="M126.396 352.521H126.219C125.324 352.521 124.465 352.166 123.832 351.533C123.199 350.9 122.844 350.042 122.844 349.147C122.844 348.251 123.199 347.393 123.832 346.76C124.465 346.127 125.324 345.772 126.219 345.772H126.396V352.521Z" fill="#242424"/>
<path d="M258.552 378.81H258.374C257.479 378.81 256.621 378.455 255.988 377.822C255.355 377.189 254.999 376.331 254.999 375.436C254.999 374.541 255.355 373.682 255.988 373.049C256.621 372.416 257.479 372.061 258.374 372.061H258.552V378.81Z" fill="#242424"/>
<path d="M101.706 372.01C99.0644 372.044 96.4641 372.673 94.0988 373.85C91.7335 375.028 89.6641 376.723 88.0444 378.811H81.1016L87.8514 360.008L119.292 353.808L118.403 378.811H115.368C113.749 376.723 111.679 375.028 109.314 373.85C106.949 372.673 104.348 372.044 101.706 372.01Z" fill="#F6F6F6"/>
<path d="M101.351 398.705C109.886 398.705 116.805 391.786 116.805 383.251C116.805 374.716 109.886 367.797 101.351 367.797C92.8163 367.797 85.8975 374.716 85.8975 383.251C85.8975 391.786 92.8163 398.705 101.351 398.705Z" fill="#242424"/>
<path d="M101.351 391.385C105.843 391.385 109.485 387.744 109.485 383.252C109.485 378.76 105.843 375.118 101.351 375.118C96.8593 375.118 93.2178 378.76 93.2178 383.252C93.2178 387.744 96.8593 391.385 101.351 391.385Z" fill="#F6F6F6"/>
<path d="M240.966 398.527C248.422 398.527 254.466 392.483 254.466 385.028C254.466 377.572 248.422 371.528 240.966 371.528C233.511 371.528 227.467 377.572 227.467 385.028C227.467 392.483 233.511 398.527 240.966 398.527Z" fill="#242424"/>
<path d="M240.965 392.133C244.889 392.133 248.071 388.952 248.071 385.027C248.071 381.103 244.889 377.922 240.965 377.922C237.041 377.922 233.86 381.103 233.86 385.027C233.86 388.952 237.041 392.133 240.965 392.133Z" fill="#F6F6F6"/>
<path d="M151.442 380.231H158.902V326.41H151.442V380.231Z" fill="#242424"/>
<path d="M151.442 373.659H258.729V370.462H151.442V373.659Z" fill="#242424"/>
<path d="M124.265 353.587H127.817V352.166H124.265V353.587Z" fill="#242424"/>
<path d="M281.288 347.076C281.254 347.039 281.229 346.996 281.213 346.948C281.197 346.9 281.192 346.85 281.197 346.8L286.097 300.468C286.106 300.381 286.147 300.301 286.212 300.242C286.277 300.183 286.361 300.151 286.449 300.15H286.45C286.537 300.15 286.621 300.183 286.687 300.241C286.752 300.299 286.793 300.379 286.803 300.465L292.102 346.701C292.108 346.75 292.103 346.801 292.088 346.848C292.073 346.896 292.048 346.939 292.015 346.977C291.982 347.014 291.942 347.044 291.897 347.065C291.851 347.085 291.802 347.096 291.752 347.097L281.554 347.193H281.551C281.501 347.193 281.452 347.182 281.407 347.162C281.362 347.142 281.321 347.113 281.288 347.076ZM286.464 303.75L281.946 346.478L291.351 346.39L286.464 303.75Z" fill="#242424"/>
<path d="M87.917 360.283L88.0831 360.346C88.9203 360.662 89.5975 361.298 89.9655 362.114C90.3336 362.93 90.3626 363.859 90.0459 364.696C89.7293 365.533 89.093 366.211 88.2771 366.579C87.4612 366.947 86.5325 366.976 85.6953 366.659L85.5292 366.596L87.917 360.283Z" fill="#242424"/>
<path d="M284.84 308.825H288.393V256.958H284.84V308.825Z" fill="#242424"/>
<path d="M155.527 316.286C158.274 316.286 160.501 314.059 160.501 311.312C160.501 308.565 158.274 306.338 155.527 306.338C152.78 306.338 150.554 308.565 150.554 311.312C150.554 314.059 152.78 316.286 155.527 316.286Z" fill="#242424"/>
<path d="M162.77 370.515H265.09V366.18H162.77V370.515Z" fill="#3DAF5B"/>
<path d="M168.839 366.18H271.159V361.844H168.839V366.18Z" fill="#3DAF5B"/>
<path d="M164.504 362.711H266.824V358.375H164.504V362.711Z" fill="#3DAF5B"/>
<path d="M170.574 358.375H272.894V354.04H170.574V358.375Z" fill="#3DAF5B"/>
<path d="M331.531 105.998C334.792 105.994 337.944 107.169 340.407 109.305C342.353 108.774 344.394 108.684 346.379 109.043C348.023 106.658 350.386 104.861 353.124 103.914C355.861 102.968 358.83 102.922 361.596 103.782C364.362 104.643 366.78 106.366 368.497 108.699C370.214 111.032 371.14 113.852 371.14 116.749H318.248C318.897 113.707 320.569 110.98 322.987 109.023C325.405 107.066 328.421 105.999 331.531 105.998Z" fill="#F6F6F6"/>
<path d="M251.96 148.789C255.043 148.785 258.023 149.896 260.352 151.916C262.192 151.413 264.121 151.328 265.998 151.668C267.551 149.413 269.786 147.714 272.374 146.819C274.962 145.924 277.769 145.88 280.383 146.694C282.998 147.508 285.284 149.137 286.908 151.342C288.531 153.548 289.406 156.214 289.406 158.953H239.402C240.015 156.077 241.597 153.499 243.883 151.649C246.168 149.799 249.019 148.789 251.96 148.789Z" fill="#F6F6F6"/>
<path d="M172.404 78.2126C175.611 78.2089 178.712 79.3643 181.135 81.4659C183.049 80.943 185.056 80.8548 187.009 81.2078C188.626 78.8615 190.951 77.0938 193.644 76.1628C196.336 75.2318 199.256 75.1864 201.977 76.0331C204.698 76.8798 207.076 78.5743 208.765 80.8691C210.454 83.1638 211.365 85.9385 211.365 88.7878H159.338C159.976 85.7956 161.621 83.113 163.999 81.1882C166.378 79.2634 169.344 78.213 172.404 78.2126Z" fill="#F6F6F6"/>
<path d="M515.934 212.604V320.912H558.053V211.1L548.276 211.449V189.288H541.184L540.015 140.206C542.877 138.341 544.891 133.912 544.891 128.741C544.894 127.256 544.721 125.777 544.376 124.333C545.73 122.867 546.56 120.994 546.736 119.006C546.912 117.018 546.424 115.029 545.347 113.348C546.247 114.135 547.295 114.734 548.428 115.113C549.562 115.491 550.759 115.641 551.951 115.553C553.143 115.464 554.305 115.141 555.371 114.599C556.437 114.058 557.384 113.311 558.159 112.401C558.933 111.491 559.519 110.436 559.883 109.297C560.246 108.159 560.38 106.959 560.276 105.769C560.172 104.578 559.833 103.42 559.278 102.361C558.723 101.303 557.963 100.365 557.042 99.6031C558.59 99.032 559.951 98.0477 560.979 96.7573C562.006 95.4668 562.661 93.9195 562.871 92.2833C563.08 90.6472 562.838 88.9848 562.169 87.4768C561.501 85.9688 560.432 84.6728 559.079 83.7296C557.725 82.7864 556.139 82.232 554.493 82.1268C552.847 82.0216 551.204 82.3694 549.741 83.1326C548.279 83.8958 547.054 85.0452 546.198 86.4558C545.343 87.8664 544.891 89.4844 544.891 91.134C544.891 91.2662 544.895 91.3973 544.901 91.5279C543.661 91.1494 542.355 91.0419 541.071 91.2129C539.786 91.3838 538.554 91.8292 537.457 92.5187C536.359 93.2082 535.424 94.1258 534.712 95.209C534.001 96.2922 533.532 97.5158 533.335 98.7966C532.21 98.1269 530.952 97.7102 529.649 97.5754C528.346 97.4407 527.03 97.591 525.791 98.0161C524.552 98.4412 523.421 99.1307 522.475 100.037C521.529 100.943 520.792 102.044 520.315 103.264C519.838 104.484 519.632 105.793 519.711 107.1C519.79 108.407 520.153 109.682 520.774 110.835C521.396 111.988 522.26 112.992 523.309 113.777C524.357 114.562 525.563 115.11 526.845 115.382C526.843 115.448 526.839 115.513 526.839 115.579C527.678 118.108 528.745 120.556 530.027 122.892C529.4 124.778 529.086 126.754 529.096 128.741C529.096 133.912 531.11 138.341 533.972 140.206L532.803 189.288H525.712V212.255L515.934 212.604ZM542.235 109.185L542.258 109.185C542.389 109.185 542.518 109.181 542.647 109.176C542.728 109.442 542.821 109.703 542.926 109.959C542.71 109.688 542.48 109.429 542.235 109.185Z" fill="#F6F6F6"/>
<path d="M492.743 398.007H620.606V250.086L492.743 250.086V398.007Z" fill="#242424"/>
<path d="M539.438 398.007H573.911V367.921H539.438V398.007Z" fill="#F6F6F6"/>
<path d="M450.13 55.4563C450.128 55.5655 450.122 55.6739 450.122 55.7836C450.12 57.7953 450.522 59.7868 451.306 61.6396C452.09 63.4924 453.238 65.1686 454.683 66.5684C454.908 67.0497 455.159 67.5187 455.435 67.9734C454.389 71.1162 453.865 74.4089 453.882 77.721C453.882 89.1443 459.775 98.4048 467.045 98.4048C474.314 98.4048 480.207 89.1443 480.207 77.721C480.213 75.2465 479.925 72.7802 479.349 70.3735C481.607 67.931 482.99 64.8089 483.283 61.4962C483.576 58.1834 482.762 54.867 480.968 52.0664C482.468 53.377 484.213 54.3766 486.103 55.0072C487.992 55.6378 489.988 55.8868 491.974 55.7399C493.961 55.5929 495.898 55.0529 497.674 54.1512C499.45 53.2494 501.029 52.0039 502.32 50.487C503.611 48.97 504.587 47.2117 505.193 45.3143C505.799 43.4168 506.021 41.4179 505.848 39.4337C505.675 37.4494 505.11 35.5193 504.185 33.7553C503.26 31.9913 501.994 30.4286 500.46 29.1579C503.039 28.2061 505.308 26.5657 507.021 24.4149C508.733 22.2641 509.824 19.6851 510.173 16.9582C510.523 14.2313 510.119 11.4606 509.005 8.94725C507.891 6.43387 506.109 4.27386 503.853 2.70187C501.598 1.12988 498.955 0.20602 496.211 0.0306445C493.467 -0.144731 490.728 0.435085 488.291 1.70711C485.854 2.97914 483.811 4.89473 482.386 7.24579C480.961 9.59686 480.208 12.2935 480.207 15.0428C480.207 15.263 480.215 15.4815 480.224 15.6994C478.158 15.0685 475.981 14.8894 473.841 15.1743C471.7 15.4593 469.645 16.2015 467.817 17.3507C465.988 18.4999 464.428 20.029 463.243 21.8344C462.058 23.6398 461.275 25.6791 460.948 27.8138C459.072 26.6976 456.975 26.0031 454.804 25.7784C452.633 25.5538 450.439 25.8044 448.374 26.5128C446.309 27.2212 444.423 28.3705 442.847 29.8809C441.271 31.3913 440.043 33.2266 439.247 35.2594C438.452 37.2922 438.108 39.4738 438.241 41.6527C438.373 43.8316 438.978 45.9556 440.013 47.8773C441.048 49.799 442.49 51.4723 444.237 52.7811C445.984 54.0898 447.995 55.0027 450.13 55.4563ZM475.82 45.1283C476.037 45.1283 476.252 45.1211 476.467 45.112C476.602 45.5566 476.757 45.9918 476.932 46.4178C476.573 45.966 476.189 45.5351 475.781 45.1273L475.82 45.1283Z" fill="#F6F6F6"/>
<path d="M459.521 201.197H474.566L474.029 178.635V178.626L472.06 95.8945C470.55 96.8175 468.814 97.3058 467.044 97.3058C465.274 97.3058 463.538 96.8175 462.028 95.8945L460.059 178.626V178.635L459.521 201.197Z" fill="#3DAF5B"/>
<path d="M431.946 217.49V398.007H502.14V214.984L485.846 215.565V178.635H448.239V216.909L431.946 217.49Z" fill="#3DAF5B"/>
<path d="M629.389 55.4563C629.386 55.5655 629.381 55.6739 629.381 55.7836C629.378 57.7953 629.781 59.7868 630.565 61.6396C631.348 63.4924 632.497 65.1686 633.942 66.5684C634.167 67.0497 634.418 67.5187 634.694 67.9734C633.648 71.1162 633.124 74.4089 633.141 77.721C633.141 89.1443 639.034 98.4048 646.304 98.4048C653.573 98.4048 659.466 89.1443 659.466 77.721C659.472 75.2465 659.184 72.7802 658.608 70.3735C660.865 67.931 662.249 64.8089 662.542 61.4962C662.835 58.1834 662.02 54.867 660.227 52.0664C661.727 53.377 663.472 54.3766 665.361 55.0072C667.251 55.6379 669.247 55.887 671.233 55.74C673.219 55.5931 675.157 55.0531 676.933 54.1514C678.709 53.2496 680.288 52.0041 681.579 50.4871C682.869 48.9701 683.846 47.2118 684.452 45.3143C685.058 43.4169 685.28 41.418 685.107 39.4337C684.934 37.4494 684.369 35.5193 683.444 33.7553C682.519 31.9913 681.253 30.4286 679.719 29.1579C682.298 28.2061 684.567 26.5657 686.28 24.4149C687.992 22.2641 689.082 19.6851 689.432 16.9582C689.782 14.2313 689.378 11.4606 688.264 8.94725C687.149 6.43387 685.368 4.27386 683.112 2.70187C680.857 1.12988 678.214 0.206021 675.47 0.0306446C672.726 -0.144732 669.987 0.435085 667.55 1.70711C665.112 2.97914 663.07 4.89473 661.645 7.24579C660.22 9.59686 659.466 12.2935 659.466 15.0428C659.466 15.263 659.473 15.4815 659.483 15.6994C657.417 15.0685 655.24 14.8894 653.099 15.1743C650.959 15.4593 648.904 16.2015 647.076 17.3507C645.247 18.4999 643.687 20.029 642.502 21.8344C641.317 23.6398 640.534 25.6791 640.207 27.8138C638.331 26.6976 636.234 26.0031 634.063 25.7784C631.892 25.5538 629.697 25.8044 627.633 26.5128C625.568 27.2212 623.682 28.3705 622.106 29.8809C620.53 31.3913 619.302 33.2266 618.506 35.2594C617.711 37.2922 617.367 39.4738 617.499 41.6527C617.631 43.8316 618.236 45.9556 619.272 47.8773C620.307 49.799 621.749 51.4723 623.496 52.7811C625.243 54.0898 627.254 55.0027 629.389 55.4563ZM655.079 45.1283C655.296 45.1283 655.511 45.121 655.726 45.1119C655.861 45.5565 656.016 45.9918 656.19 46.4178C655.832 45.966 655.448 45.5351 655.04 45.1273L655.079 45.1283Z" fill="#F6F6F6"/>
<path d="M638.782 201.197H653.825L651.318 95.8979C648.077 97.0626 644.531 97.0626 641.289 95.8979L638.782 201.197Z" fill="#3DAF5B"/>
<path d="M611.206 217.49V398.007H681.408V214.984L675.642 215.192L665.106 215.565V178.635H627.499V216.909L611.206 217.49Z" fill="#3DAF5B"/>
<path d="M575.751 285.282H593.094V267.939H575.751V285.282Z" fill="white"/>
<path d="M548.003 285.282H565.346V267.939H548.003V285.282Z" fill="white"/>
<path d="M520.256 285.282H537.599V267.939H520.256V285.282Z" fill="white"/>
<path d="M575.751 313.029H593.094V295.687H575.751V313.029Z" fill="white"/>
<path d="M548.003 313.029H565.346V295.687H548.003V313.029Z" fill="white"/>
<path d="M520.256 313.029H537.599V295.687H520.256V313.029Z" fill="white"/>
<path d="M575.751 340.777H593.094V323.435H575.751V340.777Z" fill="white"/>
<path d="M548.003 340.777H565.346V323.435H548.003V340.777Z" fill="white"/>
<path d="M520.256 340.777H537.599V323.435H520.256V340.777Z" fill="white"/>
<path d="M458.373 278.345H475.716V261.002H458.373V278.345Z" fill="white"/>
<path d="M458.373 306.092H475.716V288.75H458.373V306.092Z" fill="white"/>
<path d="M458.373 333.84H475.716V316.498H458.373V333.84Z" fill="white"/>
<path d="M458.373 361.588H475.716V344.246H458.373V361.588Z" fill="white"/>
<path d="M637.489 278.345H654.831V261.002H637.489V278.345Z" fill="white"/>
<path d="M637.489 306.092H654.831V288.75H637.489V306.092Z" fill="white"/>
<path d="M637.489 333.84H654.831V316.498H637.489V333.84Z" fill="white"/>
<path d="M637.489 361.588H654.831V344.246H637.489V361.588Z" fill="white"/>
<path d="M770 397.396H0V399.13H770V397.396Z" fill="#242424"/>
</svg>
