<svg width="75" height="75" viewBox="0 0 75 75" fill="none" xmlns="http://www.w3.org/2000/svg">
<path d="M62.2007 56.1796C55.6423 59.2709 49.7323 54.0186 41.1914 57.3353C40.6182 57.5608 40.1202 57.7863 39.641 58.0025C34.4451 60.3796 33.186 62.287 29.3055 64.3165C27.2102 65.4159 25.2464 66.44 22.4276 66.6937C21.178 66.8065 17.4948 67.0602 13.8398 64.7018C13.0317 64.185 9.46124 61.742 8.32433 57.0723C7.44111 53.4172 8.57803 50.3166 9.16998 48.6911C9.64917 47.3662 10.025 46.8495 10.6733 45.5622C11.3874 44.1528 13.68 39.5864 13.7928 35.6495C13.9713 29.5703 8.88809 28.1609 9.47064 21.9784C9.69614 19.5824 10.6639 17.8442 11.1525 16.9703C13.6894 12.5073 18.0303 10.8442 19.6277 10.2334C26.9283 7.43345 33.8249 10.2053 35.0276 10.7126C43.1081 14.1234 47.8625 22.279 49.986 25.9153C50.4088 26.6388 51.0759 27.8508 52.2316 29.4669C53.284 30.9515 55.6611 34.0522 59.4289 37.1528C62.6047 39.3421 66.2598 40.7515 67.5564 44.7072C67.7255 45.2146 68.4584 47.6293 67.5658 50.3447C66.3349 54.0749 62.8584 55.8602 62.1819 56.1796H62.2007Z" fill="#3DAF5B"/>
<path d="M61.1953 19.1221H13.6799V58.0589H61.1953V19.1221Z" fill="white"/>
<path d="M58.9966 60.1823H15.8879C13.5108 60.1823 11.5658 58.2467 11.5658 55.8601V21.8092C11.5658 19.432 13.5014 17.4871 15.8879 17.4871H58.9966C61.3737 17.4871 63.3187 19.4226 63.3187 21.8092V55.8601C63.3187 58.2373 61.3831 60.1823 58.9966 60.1823ZM15.8785 19.6012C14.6665 19.6012 13.6799 20.5877 13.6799 21.7998V55.8601C13.6799 57.0722 14.6665 58.0588 15.8785 58.0588H58.9872C60.1993 58.0588 61.1858 57.0722 61.1858 55.8601V21.8092C61.1858 20.5971 60.1993 19.6106 58.9872 19.6106H15.8785V19.6012Z" fill="#192232"/>
<path d="M63.3094 26.8926H11.5565V21.6403C11.5565 19.2631 13.4921 17.3181 15.8787 17.3181H58.9872C61.3644 17.3181 63.3094 19.2537 63.3094 21.6403V26.8926ZM13.68 24.7785H61.1953V21.6403C61.1953 20.4282 60.2087 19.4416 58.9966 19.4416H15.8881C14.676 19.4416 13.6894 20.4282 13.6894 21.6403V24.7785H13.68Z" fill="#192232"/>
<path d="M58.1415 37.5287H16.8745C16.2919 37.5287 15.8127 37.059 15.8127 36.467C15.8127 35.8751 16.2826 35.4053 16.8745 35.4053H58.1415C58.724 35.4053 59.2032 35.8751 59.2032 36.467C59.2032 37.059 58.7334 37.5287 58.1415 37.5287Z" fill="#192232"/>
<path d="M58.1417 48.926H16.7337C16.1512 48.926 15.672 48.4562 15.672 47.8642C15.672 47.2723 16.1418 46.8025 16.7337 46.8025H58.1417C58.7242 46.8025 59.2035 47.2723 59.2035 47.8642C59.2035 48.4562 58.7336 48.926 58.1417 48.926Z" fill="#192232"/>
<path d="M38.1001 55.4185C37.5175 55.4185 37.0383 54.9487 37.0383 54.3568V30.8481C37.0383 30.2656 37.5081 29.7864 38.1001 29.7864C38.692 29.7864 39.1618 30.2562 39.1618 30.8481V54.3662C39.1618 54.9487 38.692 55.4279 38.1001 55.4279V55.4185Z" fill="#192232"/>
<path d="M24.786 55.4185C24.2034 55.4185 23.7242 54.9487 23.7242 54.3568V30.8481C23.7242 30.2656 24.194 29.7864 24.786 29.7864C25.3779 29.7864 25.8477 30.2562 25.8477 30.8481V54.3662C25.8477 54.9487 25.3779 55.4279 24.786 55.4279V55.4185Z" fill="#192232"/>
<path d="M24.786 22.6456C24.2034 22.6456 23.7242 22.1758 23.7242 21.5839V16.0779C23.7242 15.4953 24.194 15.0161 24.786 15.0161C25.3779 15.0161 25.8477 15.4859 25.8477 16.0779V21.5839C25.8477 22.1664 25.3779 22.6456 24.786 22.6456Z" fill="#192232"/>
<path d="M51.0758 22.6456C50.4932 22.6456 50.014 22.1758 50.014 21.5839V16.0779C50.014 15.4953 50.4838 15.0161 51.0758 15.0161C51.6677 15.0161 52.1375 15.4859 52.1375 16.0779V21.5839C52.1375 22.1664 51.6677 22.6456 51.0758 22.6456Z" fill="#192232"/>
<path d="M51.0758 55.4185C50.4932 55.4185 50.014 54.9487 50.014 54.3568V30.8481C50.014 30.2656 50.4838 29.7864 51.0758 29.7864C51.6677 29.7864 52.1375 30.2562 52.1375 30.8481V54.3662C52.1375 54.9487 51.6677 55.4279 51.0758 55.4279V55.4185Z" fill="#192232"/>
</svg>
