<svg width="1187" height="1117" viewBox="0 0 1187 1117" fill="none" xmlns="http://www.w3.org/2000/svg">
<circle cx="630" cy="508" r="22" fill="#3DAF5B"/>
<circle cx="681" cy="508" r="21" fill="#3DAF5B"/>
<circle cx="731" cy="508" r="20" fill="#3DAF5B"/>
<circle cx="781" cy="508" r="18" fill="#3DAF5B"/>
<circle cx="832" cy="508" r="17" fill="#3DAF5B"/>
<circle cx="882" cy="508" r="15" fill="#3DAF5B"/>
<circle cx="932" cy="508" r="13" fill="#3DAF5B"/>
<circle cx="983" cy="508" r="11" fill="#3DAF5B"/>
<circle cx="1033" cy="508" r="9" fill="#3DAF5B"/>
<circle cx="1083" cy="508" r="7" fill="#3DAF5B"/>
<circle cx="1133" cy="508" r="5" fill="#3DAF5B"/>
<circle cx="1184" cy="508" r="3" fill="#3DAF5B"/>
<circle cx="22" cy="22" r="22" transform="matrix(-1 0 0 1 602 487)" fill="#3DAF5B"/>
<circle cx="21" cy="21" r="21" transform="matrix(-1 0 0 1 550 488)" fill="#3DAF5B"/>
<circle cx="20" cy="20" r="20" transform="matrix(-1 0 0 1 499 489)" fill="#3DAF5B"/>
<circle cx="18" cy="18" r="18" transform="matrix(-1 0 0 1 447 491)" fill="#3DAF5B"/>
<circle cx="17" cy="17" r="17" transform="matrix(-1 0 0 1 395 492)" fill="#3DAF5B"/>
<circle cx="15" cy="15" r="15" transform="matrix(-1 0 0 1 343 494)" fill="#3DAF5B"/>
<circle cx="13" cy="13" r="13" transform="matrix(-1 0 0 1 291 496)" fill="#3DAF5B"/>
<circle cx="11" cy="11" r="11" transform="matrix(-1 0 0 1 238 498)" fill="#3DAF5B"/>
<circle cx="9" cy="9" r="9" transform="matrix(-1 0 0 1 186 500)" fill="#3DAF5B"/>
<circle cx="7" cy="7" r="7" transform="matrix(-1 0 0 1 134 502)" fill="#3DAF5B"/>
<circle cx="5" cy="5" r="5" transform="matrix(-1 0 0 1 82 504)" fill="#3DAF5B"/>
<circle cx="3" cy="3" r="3" transform="matrix(-1 0 0 1 29 506)" fill="#3DAF5B"/>
<circle cx="608" cy="458" r="22" fill="#3DAF5B"/>
<circle cx="659" cy="458" r="21" fill="#3DAF5B"/>
<circle cx="709" cy="458" r="20" fill="#3DAF5B"/>
<circle cx="759" cy="458" r="18" fill="#3DAF5B"/>
<circle cx="810" cy="458" r="17" fill="#3DAF5B"/>
<circle cx="860" cy="458" r="15" fill="#3DAF5B"/>
<circle cx="910" cy="458" r="13" fill="#3DAF5B"/>
<circle cx="961" cy="458" r="11" fill="#3DAF5B"/>
<circle cx="1011" cy="458" r="9" fill="#3DAF5B"/>
<circle cx="1061" cy="458" r="7" fill="#3DAF5B"/>
<circle cx="1111" cy="458" r="5" fill="#3DAF5B"/>
<circle cx="1162" cy="458" r="3" fill="#3DAF5B"/>
<circle cx="630" cy="610" r="22" fill="#3DAF5B"/>
<circle cx="681" cy="610" r="21" fill="#3DAF5B"/>
<circle cx="731" cy="610" r="20" fill="#3DAF5B"/>
<circle cx="781" cy="610" r="18" fill="#3DAF5B"/>
<circle cx="832" cy="610" r="17" fill="#3DAF5B"/>
<circle cx="882" cy="610" r="15" fill="#3DAF5B"/>
<circle cx="932" cy="610" r="13" fill="#3DAF5B"/>
<circle cx="983" cy="610" r="11" fill="#3DAF5B"/>
<circle cx="1033" cy="610" r="9" fill="#3DAF5B"/>
<circle cx="1083" cy="610" r="7" fill="#3DAF5B"/>
<circle cx="1133" cy="610" r="5" fill="#3DAF5B"/>
<circle cx="1184" cy="610" r="3" fill="#3DAF5B"/>
<circle cx="608" cy="558" r="22" fill="#3DAF5B"/>
<circle cx="659" cy="558" r="21" fill="#3DAF5B"/>
<circle cx="709" cy="558" r="20" fill="#3DAF5B"/>
<circle cx="759" cy="558" r="18" fill="#3DAF5B"/>
<circle cx="810" cy="558" r="17" fill="#3DAF5B"/>
<circle cx="860" cy="558" r="15" fill="#3DAF5B"/>
<circle cx="910" cy="558" r="13" fill="#3DAF5B"/>
<circle cx="961" cy="558" r="11" fill="#3DAF5B"/>
<circle cx="1011" cy="558" r="9" fill="#3DAF5B"/>
<circle cx="1061" cy="558" r="7" fill="#3DAF5B"/>
<circle cx="1111" cy="558" r="5" fill="#3DAF5B"/>
<circle cx="1162" cy="558" r="3" fill="#3DAF5B"/>
<circle cx="22" cy="22" r="22" transform="matrix(-1 0 0 1 579 436)" fill="#3DAF5B"/>
<circle cx="21" cy="21" r="21" transform="matrix(-1 0 0 1 527 437)" fill="#3DAF5B"/>
<circle cx="20" cy="20" r="20" transform="matrix(-1 0 0 1 476 438)" fill="#3DAF5B"/>
<circle cx="18" cy="18" r="18" transform="matrix(-1 0 0 1 424 440)" fill="#3DAF5B"/>
<circle cx="17" cy="17" r="17" transform="matrix(-1 0 0 1 372 441)" fill="#3DAF5B"/>
<circle cx="15" cy="15" r="15" transform="matrix(-1 0 0 1 320 443)" fill="#3DAF5B"/>
<circle cx="13" cy="13" r="13" transform="matrix(-1 0 0 1 268 445)" fill="#3DAF5B"/>
<circle cx="11" cy="11" r="11" transform="matrix(-1 0 0 1 215 447)" fill="#3DAF5B"/>
<circle cx="9" cy="9" r="9" transform="matrix(-1 0 0 1 163 449)" fill="#3DAF5B"/>
<circle cx="7" cy="7" r="7" transform="matrix(-1 0 0 1 111 451)" fill="#3DAF5B"/>
<circle cx="5" cy="5" r="5" transform="matrix(-1 0 0 1 59 453)" fill="#3DAF5B"/>
<circle cx="3" cy="3" r="3" transform="matrix(-1 0 0 1 6 455)" fill="#3DAF5B"/>
<circle cx="22" cy="22" r="22" transform="matrix(-1 0 0 1 601 588)" fill="#3DAF5B"/>
<circle cx="21" cy="21" r="21" transform="matrix(-1 0 0 1 549 589)" fill="#3DAF5B"/>
<circle cx="20" cy="20" r="20" transform="matrix(-1 0 0 1 498 590)" fill="#3DAF5B"/>
<circle cx="18" cy="18" r="18" transform="matrix(-1 0 0 1 446 592)" fill="#3DAF5B"/>
<circle cx="17" cy="17" r="17" transform="matrix(-1 0 0 1 394 593)" fill="#3DAF5B"/>
<circle cx="15" cy="15" r="15" transform="matrix(-1 0 0 1 342 595)" fill="#3DAF5B"/>
<circle cx="13" cy="13" r="13" transform="matrix(-1 0 0 1 290 597)" fill="#3DAF5B"/>
<circle cx="11" cy="11" r="11" transform="matrix(-1 0 0 1 237 599)" fill="#3DAF5B"/>
<circle cx="9" cy="9" r="9" transform="matrix(-1 0 0 1 185 601)" fill="#3DAF5B"/>
<circle cx="7" cy="7" r="7" transform="matrix(-1 0 0 1 133 603)" fill="#3DAF5B"/>
<circle cx="5" cy="5" r="5" transform="matrix(-1 0 0 1 81 605)" fill="#3DAF5B"/>
<circle cx="3" cy="3" r="3" transform="matrix(-1 0 0 1 28 607)" fill="#3DAF5B"/>
<circle cx="22" cy="22" r="22" transform="matrix(-1 0 0 1 579 536)" fill="#3DAF5B"/>
<circle cx="21" cy="21" r="21" transform="matrix(-1 0 0 1 527 537)" fill="#3DAF5B"/>
<circle cx="20" cy="20" r="20" transform="matrix(-1 0 0 1 476 538)" fill="#3DAF5B"/>
<circle cx="18" cy="18" r="18" transform="matrix(-1 0 0 1 424 540)" fill="#3DAF5B"/>
<circle cx="17" cy="17" r="17" transform="matrix(-1 0 0 1 372 541)" fill="#3DAF5B"/>
<circle cx="15" cy="15" r="15" transform="matrix(-1 0 0 1 320 543)" fill="#3DAF5B"/>
<circle cx="13" cy="13" r="13" transform="matrix(-1 0 0 1 268 545)" fill="#3DAF5B"/>
<circle cx="11" cy="11" r="11" transform="matrix(-1 0 0 1 215 547)" fill="#3DAF5B"/>
<circle cx="9" cy="9" r="9" transform="matrix(-1 0 0 1 163 549)" fill="#3DAF5B"/>
<circle cx="7" cy="7" r="7" transform="matrix(-1 0 0 1 111 551)" fill="#3DAF5B"/>
<circle cx="5" cy="5" r="5" transform="matrix(-1 0 0 1 59 553)" fill="#3DAF5B"/>
<circle cx="3" cy="3" r="3" transform="matrix(-1 0 0 1 6 555)" fill="#3DAF5B"/>
<circle cx="630" cy="408" r="19" fill="#3DAF5B"/>
<circle cx="680" cy="408" r="18" fill="#3DAF5B"/>
<circle cx="731" cy="408" r="17" fill="#3DAF5B"/>
<circle cx="781" cy="408" r="15" fill="#3DAF5B"/>
<circle cx="831" cy="408" r="14" fill="#3DAF5B"/>
<circle cx="882" cy="408" r="12" fill="#3DAF5B"/>
<circle cx="932" cy="408" r="10" fill="#3DAF5B"/>
<circle cx="982" cy="408" r="8" fill="#3DAF5B"/>
<circle cx="1032" cy="408" r="7" fill="#3DAF5B"/>
<circle cx="1083" cy="408" r="5" fill="#3DAF5B"/>
<circle cx="1133" cy="408" r="4" fill="#3DAF5B"/>
<circle cx="1184" cy="408" r="3" fill="#3DAF5B"/>
<circle cx="609" cy="659" r="19" fill="#3DAF5B"/>
<circle cx="659" cy="659" r="18" fill="#3DAF5B"/>
<circle cx="710" cy="659" r="17" fill="#3DAF5B"/>
<circle cx="760" cy="659" r="15" fill="#3DAF5B"/>
<circle cx="810" cy="659" r="14" fill="#3DAF5B"/>
<circle cx="861" cy="659" r="12" fill="#3DAF5B"/>
<circle cx="911" cy="659" r="10" fill="#3DAF5B"/>
<circle cx="961" cy="659" r="8" fill="#3DAF5B"/>
<circle cx="1011" cy="659" r="7" fill="#3DAF5B"/>
<circle cx="1062" cy="659" r="5" fill="#3DAF5B"/>
<circle cx="1112" cy="659" r="4" fill="#3DAF5B"/>
<circle cx="1163" cy="659" r="3" fill="#3DAF5B"/>
<circle cx="630" cy="709" r="19" fill="#3DAF5B"/>
<circle cx="680" cy="709" r="18" fill="#3DAF5B"/>
<circle cx="731" cy="709" r="17" fill="#3DAF5B"/>
<circle cx="781" cy="709" r="15" fill="#3DAF5B"/>
<circle cx="831" cy="709" r="14" fill="#3DAF5B"/>
<circle cx="882" cy="709" r="12" fill="#3DAF5B"/>
<circle cx="932" cy="709" r="10" fill="#3DAF5B"/>
<circle cx="982" cy="709" r="8" fill="#3DAF5B"/>
<circle cx="1032" cy="709" r="7" fill="#3DAF5B"/>
<circle cx="1083" cy="709" r="5" fill="#3DAF5B"/>
<circle cx="1133" cy="709" r="4" fill="#3DAF5B"/>
<circle cx="1184" cy="709" r="3" fill="#3DAF5B"/>
<circle cx="19" cy="19" r="19" transform="matrix(-1 0 0 1 599 389)" fill="#3DAF5B"/>
<circle cx="18" cy="18" r="18" transform="matrix(-1 0 0 1 548 390)" fill="#3DAF5B"/>
<circle cx="17" cy="17" r="17" transform="matrix(-1 0 0 1 496 391)" fill="#3DAF5B"/>
<circle cx="15" cy="15" r="15" transform="matrix(-1 0 0 1 444 393)" fill="#3DAF5B"/>
<circle cx="14" cy="14" r="14" transform="matrix(-1 0 0 1 393 394)" fill="#3DAF5B"/>
<circle cx="12" cy="12" r="12" transform="matrix(-1 0 0 1 340 396)" fill="#3DAF5B"/>
<circle cx="10" cy="10" r="10" transform="matrix(-1 0 0 1 288 398)" fill="#3DAF5B"/>
<circle cx="8" cy="8" r="8" transform="matrix(-1 0 0 1 236 400)" fill="#3DAF5B"/>
<circle cx="7" cy="7" r="7" transform="matrix(-1 0 0 1 185 401)" fill="#3DAF5B"/>
<circle cx="5" cy="5" r="5" transform="matrix(-1 0 0 1 132 403)" fill="#3DAF5B"/>
<circle cx="4" cy="4" r="4" transform="matrix(-1 0 0 1 81 404)" fill="#3DAF5B"/>
<circle cx="3" cy="3" r="3" transform="matrix(-1 0 0 1 29 405)" fill="#3DAF5B"/>
<circle cx="19" cy="19" r="19" transform="matrix(-1 0 0 1 578 640)" fill="#3DAF5B"/>
<circle cx="18" cy="18" r="18" transform="matrix(-1 0 0 1 527 641)" fill="#3DAF5B"/>
<circle cx="17" cy="17" r="17" transform="matrix(-1 0 0 1 475 642)" fill="#3DAF5B"/>
<circle cx="15" cy="15" r="15" transform="matrix(-1 0 0 1 423 644)" fill="#3DAF5B"/>
<circle cx="14" cy="14" r="14" transform="matrix(-1 0 0 1 372 645)" fill="#3DAF5B"/>
<circle cx="12" cy="12" r="12" transform="matrix(-1 0 0 1 319 647)" fill="#3DAF5B"/>
<circle cx="10" cy="10" r="10" transform="matrix(-1 0 0 1 267 649)" fill="#3DAF5B"/>
<circle cx="8" cy="8" r="8" transform="matrix(-1 0 0 1 215 651)" fill="#3DAF5B"/>
<circle cx="7" cy="7" r="7" transform="matrix(-1 0 0 1 164 652)" fill="#3DAF5B"/>
<circle cx="5" cy="5" r="5" transform="matrix(-1 0 0 1 111 654)" fill="#3DAF5B"/>
<circle cx="4" cy="4" r="4" transform="matrix(-1 0 0 1 60 655)" fill="#3DAF5B"/>
<circle cx="3" cy="3" r="3" transform="matrix(-1 0 0 1 8 656)" fill="#3DAF5B"/>
<circle cx="19" cy="19" r="19" transform="matrix(-1 0 0 1 599 690)" fill="#3DAF5B"/>
<circle cx="18" cy="18" r="18" transform="matrix(-1 0 0 1 548 691)" fill="#3DAF5B"/>
<circle cx="17" cy="17" r="17" transform="matrix(-1 0 0 1 496 692)" fill="#3DAF5B"/>
<circle cx="15" cy="15" r="15" transform="matrix(-1 0 0 1 444 694)" fill="#3DAF5B"/>
<circle cx="14" cy="14" r="14" transform="matrix(-1 0 0 1 393 695)" fill="#3DAF5B"/>
<circle cx="12" cy="12" r="12" transform="matrix(-1 0 0 1 340 697)" fill="#3DAF5B"/>
<circle cx="10" cy="10" r="10" transform="matrix(-1 0 0 1 288 699)" fill="#3DAF5B"/>
<circle cx="8" cy="8" r="8" transform="matrix(-1 0 0 1 236 701)" fill="#3DAF5B"/>
<circle cx="7" cy="7" r="7" transform="matrix(-1 0 0 1 185 702)" fill="#3DAF5B"/>
<circle cx="5" cy="5" r="5" transform="matrix(-1 0 0 1 132 704)" fill="#3DAF5B"/>
<circle cx="4" cy="4" r="4" transform="matrix(-1 0 0 1 81 705)" fill="#3DAF5B"/>
<circle cx="3" cy="3" r="3" transform="matrix(-1 0 0 1 29 706)" fill="#3DAF5B"/>
<circle cx="608" cy="356" r="18" fill="#3DAF5B"/>
<circle cx="659" cy="356" r="17" fill="#3DAF5B"/>
<circle cx="709" cy="356" r="16" fill="#3DAF5B"/>
<circle cx="760" cy="356" r="14" fill="#3DAF5B"/>
<circle cx="810" cy="356" r="13" fill="#3DAF5B"/>
<circle cx="860" cy="356" r="11" fill="#3DAF5B"/>
<circle cx="910" cy="356" r="9" fill="#3DAF5B"/>
<circle cx="960" cy="356" r="8" fill="#3DAF5B"/>
<circle cx="1011" cy="356" r="6" fill="#3DAF5B"/>
<circle cx="1061" cy="356" r="5" fill="#3DAF5B"/>
<circle cx="1111" cy="356" r="4" fill="#3DAF5B"/>
<circle cx="1162" cy="356" r="3" fill="#3DAF5B"/>
<circle cx="608" cy="760" r="18" fill="#3DAF5B"/>
<circle cx="659" cy="760" r="17" fill="#3DAF5B"/>
<circle cx="709" cy="760" r="16" fill="#3DAF5B"/>
<circle cx="760" cy="760" r="14" fill="#3DAF5B"/>
<circle cx="810" cy="760" r="13" fill="#3DAF5B"/>
<circle cx="860" cy="760" r="11" fill="#3DAF5B"/>
<circle cx="910" cy="760" r="9" fill="#3DAF5B"/>
<circle cx="960" cy="760" r="8" fill="#3DAF5B"/>
<circle cx="1011" cy="760" r="6" fill="#3DAF5B"/>
<circle cx="1061" cy="760" r="5" fill="#3DAF5B"/>
<circle cx="1111" cy="760" r="4" fill="#3DAF5B"/>
<circle cx="1162" cy="760" r="3" fill="#3DAF5B"/>
<circle cx="18" cy="18" r="18" transform="matrix(-1 0 0 1 627 338)" fill="#3DAF5B"/>
<circle cx="17" cy="17" r="17" transform="matrix(-1 0 0 1 575 339)" fill="#3DAF5B"/>
<circle cx="16" cy="16" r="16" transform="matrix(-1 0 0 1 524 340)" fill="#3DAF5B"/>
<circle cx="14" cy="14" r="14" transform="matrix(-1 0 0 1 471 342)" fill="#3DAF5B"/>
<circle cx="13" cy="13" r="13" transform="matrix(-1 0 0 1 420 343)" fill="#3DAF5B"/>
<circle cx="11" cy="11" r="11" transform="matrix(-1 0 0 1 368 345)" fill="#3DAF5B"/>
<circle cx="9" cy="9" r="9" transform="matrix(-1 0 0 1 316 347)" fill="#3DAF5B"/>
<circle cx="8" cy="8" r="8" transform="matrix(-1 0 0 1 265 348)" fill="#3DAF5B"/>
<circle cx="6" cy="6" r="6" transform="matrix(-1 0 0 1 212 350)" fill="#3DAF5B"/>
<circle cx="5" cy="5" r="5" transform="matrix(-1 0 0 1 161 351)" fill="#3DAF5B"/>
<circle cx="4" cy="4" r="4" transform="matrix(-1 0 0 1 110 352)" fill="#3DAF5B"/>
<circle cx="3" cy="3" r="3" transform="matrix(-1 0 0 1 58 353)" fill="#3DAF5B"/>
<circle cx="18" cy="18" r="18" transform="matrix(-1 0 0 1 627 742)" fill="#3DAF5B"/>
<circle cx="17" cy="17" r="17" transform="matrix(-1 0 0 1 575 743)" fill="#3DAF5B"/>
<circle cx="16" cy="16" r="16" transform="matrix(-1 0 0 1 524 744)" fill="#3DAF5B"/>
<circle cx="14" cy="14" r="14" transform="matrix(-1 0 0 1 471 746)" fill="#3DAF5B"/>
<circle cx="13" cy="13" r="13" transform="matrix(-1 0 0 1 420 747)" fill="#3DAF5B"/>
<circle cx="11" cy="11" r="11" transform="matrix(-1 0 0 1 368 749)" fill="#3DAF5B"/>
<circle cx="9" cy="9" r="9" transform="matrix(-1 0 0 1 316 751)" fill="#3DAF5B"/>
<circle cx="8" cy="8" r="8" transform="matrix(-1 0 0 1 265 752)" fill="#3DAF5B"/>
<circle cx="6" cy="6" r="6" transform="matrix(-1 0 0 1 212 754)" fill="#3DAF5B"/>
<circle cx="5" cy="5" r="5" transform="matrix(-1 0 0 1 161 755)" fill="#3DAF5B"/>
<circle cx="4" cy="4" r="4" transform="matrix(-1 0 0 1 110 756)" fill="#3DAF5B"/>
<circle cx="3" cy="3" r="3" transform="matrix(-1 0 0 1 58 757)" fill="#3DAF5B"/>
<circle cx="630" cy="307" r="15" fill="#3DAF5B"/>
<circle cx="680" cy="307" r="14" fill="#3DAF5B"/>
<circle cx="731" cy="307" r="13" fill="#3DAF5B"/>
<circle cx="781" cy="307" r="12" fill="#3DAF5B"/>
<circle cx="831" cy="307" r="11" fill="#3DAF5B"/>
<circle cx="882" cy="307" r="10" fill="#3DAF5B"/>
<circle cx="932" cy="307" r="9" fill="#3DAF5B"/>
<circle cx="982" cy="307" r="8" fill="#3DAF5B"/>
<circle cx="1032" cy="307" r="7" fill="#3DAF5B"/>
<circle cx="1082" cy="307" r="5" fill="#3DAF5B"/>
<circle cx="1133" cy="307" r="3" fill="#3DAF5B"/>
<circle cx="630" cy="810" r="15" fill="#3DAF5B"/>
<circle cx="680" cy="810" r="14" fill="#3DAF5B"/>
<circle cx="731" cy="810" r="13" fill="#3DAF5B"/>
<circle cx="781" cy="810" r="12" fill="#3DAF5B"/>
<circle cx="831" cy="810" r="11" fill="#3DAF5B"/>
<circle cx="882" cy="810" r="10" fill="#3DAF5B"/>
<circle cx="932" cy="810" r="9" fill="#3DAF5B"/>
<circle cx="982" cy="810" r="8" fill="#3DAF5B"/>
<circle cx="1032" cy="810" r="7" fill="#3DAF5B"/>
<circle cx="1082" cy="810" r="5" fill="#3DAF5B"/>
<circle cx="1133" cy="810" r="3" fill="#3DAF5B"/>
<circle cx="15" cy="15" r="15" transform="matrix(-1 0 0 1 595 292)" fill="#3DAF5B"/>
<circle cx="14" cy="14" r="14" transform="matrix(-1 0 0 1 544 293)" fill="#3DAF5B"/>
<circle cx="13" cy="13" r="13" transform="matrix(-1 0 0 1 492 294)" fill="#3DAF5B"/>
<circle cx="12" cy="12" r="12" transform="matrix(-1 0 0 1 441 295)" fill="#3DAF5B"/>
<circle cx="11" cy="11" r="11" transform="matrix(-1 0 0 1 390 296)" fill="#3DAF5B"/>
<circle cx="10" cy="10" r="10" transform="matrix(-1 0 0 1 338 297)" fill="#3DAF5B"/>
<circle cx="9" cy="9" r="9" transform="matrix(-1 0 0 1 287 298)" fill="#3DAF5B"/>
<circle cx="8" cy="8" r="8" transform="matrix(-1 0 0 1 236 299)" fill="#3DAF5B"/>
<circle cx="7" cy="7" r="7" transform="matrix(-1 0 0 1 185 300)" fill="#3DAF5B"/>
<circle cx="5" cy="5" r="5" transform="matrix(-1 0 0 1 133 302)" fill="#3DAF5B"/>
<circle cx="3" cy="3" r="3" transform="matrix(-1 0 0 1 80 304)" fill="#3DAF5B"/>
<circle cx="15" cy="15" r="15" transform="matrix(-1 0 0 1 595 795)" fill="#3DAF5B"/>
<circle cx="14" cy="14" r="14" transform="matrix(-1 0 0 1 544 796)" fill="#3DAF5B"/>
<circle cx="13" cy="13" r="13" transform="matrix(-1 0 0 1 492 797)" fill="#3DAF5B"/>
<circle cx="12" cy="12" r="12" transform="matrix(-1 0 0 1 441 798)" fill="#3DAF5B"/>
<circle cx="11" cy="11" r="11" transform="matrix(-1 0 0 1 390 799)" fill="#3DAF5B"/>
<circle cx="10" cy="10" r="10" transform="matrix(-1 0 0 1 338 800)" fill="#3DAF5B"/>
<circle cx="9" cy="9" r="9" transform="matrix(-1 0 0 1 287 801)" fill="#3DAF5B"/>
<circle cx="8" cy="8" r="8" transform="matrix(-1 0 0 1 236 802)" fill="#3DAF5B"/>
<circle cx="7" cy="7" r="7" transform="matrix(-1 0 0 1 185 803)" fill="#3DAF5B"/>
<circle cx="5" cy="5" r="5" transform="matrix(-1 0 0 1 133 805)" fill="#3DAF5B"/>
<circle cx="3" cy="3" r="3" transform="matrix(-1 0 0 1 80 807)" fill="#3DAF5B"/>
<circle cx="608" cy="256" r="14" fill="#3DAF5B"/>
<circle cx="658" cy="256" r="13" fill="#3DAF5B"/>
<circle cx="709" cy="256" r="12" fill="#3DAF5B"/>
<circle cx="759" cy="256" r="11" fill="#3DAF5B"/>
<circle cx="810" cy="256" r="10" fill="#3DAF5B"/>
<circle cx="860" cy="256" r="9" fill="#3DAF5B"/>
<circle cx="910" cy="256" r="8" fill="#3DAF5B"/>
<circle cx="960" cy="256" r="7" fill="#3DAF5B"/>
<circle cx="1010" cy="256" r="6" fill="#3DAF5B"/>
<circle cx="1061" cy="256" r="5" fill="#3DAF5B"/>
<circle cx="1112" cy="256" r="3" fill="#3DAF5B"/>
<circle cx="608" cy="860" r="14" fill="#3DAF5B"/>
<circle cx="658" cy="860" r="13" fill="#3DAF5B"/>
<circle cx="709" cy="860" r="12" fill="#3DAF5B"/>
<circle cx="759" cy="860" r="11" fill="#3DAF5B"/>
<circle cx="810" cy="860" r="10" fill="#3DAF5B"/>
<circle cx="860" cy="860" r="9" fill="#3DAF5B"/>
<circle cx="910" cy="860" r="8" fill="#3DAF5B"/>
<circle cx="960" cy="860" r="7" fill="#3DAF5B"/>
<circle cx="1010" cy="860" r="6" fill="#3DAF5B"/>
<circle cx="1061" cy="860" r="5" fill="#3DAF5B"/>
<circle cx="1112" cy="860" r="3" fill="#3DAF5B"/>
<circle cx="14" cy="14" r="14" transform="matrix(-1 0 0 1 623 242)" fill="#3DAF5B"/>
<circle cx="13" cy="13" r="13" transform="matrix(-1 0 0 1 572 243)" fill="#3DAF5B"/>
<circle cx="12" cy="12" r="12" transform="matrix(-1 0 0 1 520 244)" fill="#3DAF5B"/>
<circle cx="11" cy="11" r="11" transform="matrix(-1 0 0 1 469 245)" fill="#3DAF5B"/>
<circle cx="10" cy="10" r="10" transform="matrix(-1 0 0 1 417 246)" fill="#3DAF5B"/>
<circle cx="9" cy="9" r="9" transform="matrix(-1 0 0 1 366 247)" fill="#3DAF5B"/>
<circle cx="8" cy="8" r="8" transform="matrix(-1 0 0 1 315 248)" fill="#3DAF5B"/>
<circle cx="7" cy="7" r="7" transform="matrix(-1 0 0 1 264 249)" fill="#3DAF5B"/>
<circle cx="6" cy="6" r="6" transform="matrix(-1 0 0 1 213 250)" fill="#3DAF5B"/>
<circle cx="5" cy="5" r="5" transform="matrix(-1 0 0 1 161 251)" fill="#3DAF5B"/>
<circle cx="3" cy="3" r="3" transform="matrix(-1 0 0 1 108 253)" fill="#3DAF5B"/>
<circle cx="14" cy="14" r="14" transform="matrix(-1 0 0 1 623 846)" fill="#3DAF5B"/>
<circle cx="13" cy="13" r="13" transform="matrix(-1 0 0 1 572 847)" fill="#3DAF5B"/>
<circle cx="12" cy="12" r="12" transform="matrix(-1 0 0 1 520 848)" fill="#3DAF5B"/>
<circle cx="11" cy="11" r="11" transform="matrix(-1 0 0 1 469 849)" fill="#3DAF5B"/>
<circle cx="10" cy="10" r="10" transform="matrix(-1 0 0 1 417 850)" fill="#3DAF5B"/>
<circle cx="9" cy="9" r="9" transform="matrix(-1 0 0 1 366 851)" fill="#3DAF5B"/>
<circle cx="8" cy="8" r="8" transform="matrix(-1 0 0 1 315 852)" fill="#3DAF5B"/>
<circle cx="7" cy="7" r="7" transform="matrix(-1 0 0 1 264 853)" fill="#3DAF5B"/>
<circle cx="6" cy="6" r="6" transform="matrix(-1 0 0 1 213 854)" fill="#3DAF5B"/>
<circle cx="5" cy="5" r="5" transform="matrix(-1 0 0 1 161 855)" fill="#3DAF5B"/>
<circle cx="3" cy="3" r="3" transform="matrix(-1 0 0 1 108 857)" fill="#3DAF5B"/>
<circle cx="630" cy="206" r="11" fill="#3DAF5B"/>
<circle cx="680" cy="206" r="10" fill="#3DAF5B"/>
<circle cx="731" cy="206" r="9" fill="#3DAF5B"/>
<circle cx="781" cy="206" r="8" fill="#3DAF5B"/>
<circle cx="831" cy="206" r="7" fill="#3DAF5B"/>
<circle cx="882" cy="206" r="6" fill="#3DAF5B"/>
<circle cx="932" cy="206" r="5" fill="#3DAF5B"/>
<circle cx="982" cy="206" r="4" fill="#3DAF5B"/>
<circle cx="1032" cy="206" r="3" fill="#3DAF5B"/>
<circle cx="1083" cy="206" r="2" fill="#3DAF5B"/>
<circle cx="630" cy="911" r="11" fill="#3DAF5B"/>
<circle cx="680" cy="911" r="10" fill="#3DAF5B"/>
<circle cx="731" cy="911" r="9" fill="#3DAF5B"/>
<circle cx="781" cy="911" r="8" fill="#3DAF5B"/>
<circle cx="831" cy="911" r="7" fill="#3DAF5B"/>
<circle cx="882" cy="911" r="6" fill="#3DAF5B"/>
<circle cx="932" cy="911" r="5" fill="#3DAF5B"/>
<circle cx="982" cy="911" r="4" fill="#3DAF5B"/>
<circle cx="1032" cy="911" r="3" fill="#3DAF5B"/>
<circle cx="1083" cy="911" r="2" fill="#3DAF5B"/>
<circle cx="11" cy="11" r="11" transform="matrix(-1 0 0 1 591 195)" fill="#3DAF5B"/>
<circle cx="10" cy="10" r="10" transform="matrix(-1 0 0 1 540 196)" fill="#3DAF5B"/>
<circle cx="9" cy="9" r="9" transform="matrix(-1 0 0 1 488 197)" fill="#3DAF5B"/>
<circle cx="8" cy="8" r="8" transform="matrix(-1 0 0 1 437 198)" fill="#3DAF5B"/>
<circle cx="7" cy="7" r="7" transform="matrix(-1 0 0 1 386 199)" fill="#3DAF5B"/>
<circle cx="6" cy="6" r="6" transform="matrix(-1 0 0 1 334 200)" fill="#3DAF5B"/>
<circle cx="5" cy="5" r="5" transform="matrix(-1 0 0 1 283 201)" fill="#3DAF5B"/>
<circle cx="4" cy="4" r="4" transform="matrix(-1 0 0 1 232 202)" fill="#3DAF5B"/>
<circle cx="3" cy="3" r="3" transform="matrix(-1 0 0 1 181 203)" fill="#3DAF5B"/>
<circle cx="2" cy="2" r="2" transform="matrix(-1 0 0 1 129 204)" fill="#3DAF5B"/>
<circle cx="11" cy="11" r="11" transform="matrix(-1 0 0 1 591 900)" fill="#3DAF5B"/>
<circle cx="10" cy="10" r="10" transform="matrix(-1 0 0 1 540 901)" fill="#3DAF5B"/>
<circle cx="9" cy="9" r="9" transform="matrix(-1 0 0 1 488 902)" fill="#3DAF5B"/>
<circle cx="8" cy="8" r="8" transform="matrix(-1 0 0 1 437 903)" fill="#3DAF5B"/>
<circle cx="7" cy="7" r="7" transform="matrix(-1 0 0 1 386 904)" fill="#3DAF5B"/>
<circle cx="6" cy="6" r="6" transform="matrix(-1 0 0 1 334 905)" fill="#3DAF5B"/>
<circle cx="5" cy="5" r="5" transform="matrix(-1 0 0 1 283 906)" fill="#3DAF5B"/>
<circle cx="4" cy="4" r="4" transform="matrix(-1 0 0 1 232 907)" fill="#3DAF5B"/>
<circle cx="3" cy="3" r="3" transform="matrix(-1 0 0 1 181 908)" fill="#3DAF5B"/>
<circle cx="2" cy="2" r="2" transform="matrix(-1 0 0 1 129 909)" fill="#3DAF5B"/>
<circle cx="609" cy="156" r="10" fill="#3DAF5B"/>
<circle cx="659" cy="156" r="9" fill="#3DAF5B"/>
<circle cx="708" cy="156" r="8" fill="#3DAF5B"/>
<circle cx="759" cy="156" r="7" fill="#3DAF5B"/>
<circle cx="809" cy="156" r="6" fill="#3DAF5B"/>
<circle cx="860" cy="156" r="5" fill="#3DAF5B"/>
<circle cx="910" cy="156" r="4" fill="#3DAF5B"/>
<circle cx="960" cy="156" r="3" fill="#3DAF5B"/>
<circle cx="1010" cy="156" r="2" fill="#3DAF5B"/>
<circle cx="609" cy="961" r="10" fill="#3DAF5B"/>
<circle cx="659" cy="961" r="9" fill="#3DAF5B"/>
<circle cx="708" cy="961" r="8" fill="#3DAF5B"/>
<circle cx="759" cy="961" r="7" fill="#3DAF5B"/>
<circle cx="809" cy="961" r="6" fill="#3DAF5B"/>
<circle cx="860" cy="961" r="5" fill="#3DAF5B"/>
<circle cx="910" cy="961" r="4" fill="#3DAF5B"/>
<circle cx="960" cy="961" r="3" fill="#3DAF5B"/>
<circle cx="1010" cy="961" r="2" fill="#3DAF5B"/>
<circle cx="10" cy="10" r="10" transform="matrix(-1 0 0 1 567 146)" fill="#3DAF5B"/>
<circle cx="9" cy="9" r="9" transform="matrix(-1 0 0 1 516 147)" fill="#3DAF5B"/>
<circle cx="8" cy="8" r="8" transform="matrix(-1 0 0 1 466 148)" fill="#3DAF5B"/>
<circle cx="7" cy="7" r="7" transform="matrix(-1 0 0 1 414 149)" fill="#3DAF5B"/>
<circle cx="6" cy="6" r="6" transform="matrix(-1 0 0 1 363 150)" fill="#3DAF5B"/>
<circle cx="5" cy="5" r="5" transform="matrix(-1 0 0 1 311 151)" fill="#3DAF5B"/>
<circle cx="4" cy="4" r="4" transform="matrix(-1 0 0 1 260 152)" fill="#3DAF5B"/>
<circle cx="3" cy="3" r="3" transform="matrix(-1 0 0 1 209 153)" fill="#3DAF5B"/>
<circle cx="2" cy="2" r="2" transform="matrix(-1 0 0 1 158 154)" fill="#3DAF5B"/>
<circle cx="10" cy="10" r="10" transform="matrix(-1 0 0 1 567 951)" fill="#3DAF5B"/>
<circle cx="9" cy="9" r="9" transform="matrix(-1 0 0 1 516 952)" fill="#3DAF5B"/>
<circle cx="8" cy="8" r="8" transform="matrix(-1 0 0 1 466 953)" fill="#3DAF5B"/>
<circle cx="7" cy="7" r="7" transform="matrix(-1 0 0 1 414 954)" fill="#3DAF5B"/>
<circle cx="6" cy="6" r="6" transform="matrix(-1 0 0 1 363 955)" fill="#3DAF5B"/>
<circle cx="5" cy="5" r="5" transform="matrix(-1 0 0 1 311 956)" fill="#3DAF5B"/>
<circle cx="4" cy="4" r="4" transform="matrix(-1 0 0 1 260 957)" fill="#3DAF5B"/>
<circle cx="3" cy="3" r="3" transform="matrix(-1 0 0 1 209 958)" fill="#3DAF5B"/>
<circle cx="2" cy="2" r="2" transform="matrix(-1 0 0 1 158 959)" fill="#3DAF5B"/>
<circle cx="579" cy="105" r="8" fill="#3DAF5B"/>
<circle cx="630" cy="105" r="7" fill="#3DAF5B"/>
<circle cx="680" cy="105" r="6" fill="#3DAF5B"/>
<circle cx="731" cy="105" r="5" fill="#3DAF5B"/>
<circle cx="781" cy="105" r="4" fill="#3DAF5B"/>
<circle cx="831" cy="105" r="3" fill="#3DAF5B"/>
<circle cx="882" cy="105" r="2" fill="#3DAF5B"/>
<circle cx="932" cy="105" r="1" fill="#3DAF5B"/>
<circle cx="981.5" cy="105.5" r="0.5" fill="#3DAF5B"/>
<circle cx="608" cy="56" r="7" fill="#3DAF5B"/>
<circle cx="658" cy="56" r="6" fill="#3DAF5B"/>
<circle cx="709" cy="56" r="5" fill="#3DAF5B"/>
<circle cx="759" cy="56" r="4" fill="#3DAF5B"/>
<circle cx="809" cy="56" r="3" fill="#3DAF5B"/>
<circle cx="860" cy="56" r="2" fill="#3DAF5B"/>
<circle cx="910" cy="56" r="1" fill="#3DAF5B"/>
<circle cx="959.5" cy="56.5" r="0.5" fill="#3DAF5B"/>
<circle cx="608" cy="1061" r="7" fill="#3DAF5B"/>
<circle cx="658" cy="1061" r="6" fill="#3DAF5B"/>
<circle cx="709" cy="1061" r="5" fill="#3DAF5B"/>
<circle cx="759" cy="1061" r="4" fill="#3DAF5B"/>
<circle cx="809" cy="1061" r="3" fill="#3DAF5B"/>
<circle cx="860" cy="1061" r="2" fill="#3DAF5B"/>
<circle cx="910" cy="1061" r="1" fill="#3DAF5B"/>
<circle cx="959.5" cy="1061.5" r="0.5" fill="#3DAF5B"/>
<circle cx="630" cy="5" r="5" fill="#3DAF5B"/>
<circle cx="680" cy="5" r="4" fill="#3DAF5B"/>
<circle cx="730" cy="5" r="3" fill="#3DAF5B"/>
<circle cx="781" cy="5" r="2" fill="#3DAF5B"/>
<circle cx="831" cy="5" r="1" fill="#3DAF5B"/>
<circle cx="880.5" cy="5.5" r="0.5" fill="#3DAF5B"/>
<circle cx="630" cy="1112" r="5" fill="#3DAF5B"/>
<circle cx="680" cy="1112" r="4" fill="#3DAF5B"/>
<circle cx="730" cy="1112" r="3" fill="#3DAF5B"/>
<circle cx="781" cy="1112" r="2" fill="#3DAF5B"/>
<circle cx="831" cy="1112" r="1" fill="#3DAF5B"/>
<circle cx="880.5" cy="1112.5" r="0.5" fill="#3DAF5B"/>
<circle cx="4" cy="4" r="4" transform="matrix(-1 0 0 1 584 1)" fill="#3DAF5B"/>
<circle cx="3" cy="3" r="3" transform="matrix(-1 0 0 1 533 2)" fill="#3DAF5B"/>
<circle cx="2" cy="2" r="2" transform="matrix(-1 0 0 1 481 3)" fill="#3DAF5B"/>
<circle cx="1" cy="1" r="1" transform="matrix(-1 0 0 1 430 4)" fill="#3DAF5B"/>
<circle cx="0.5" cy="0.5" r="0.5" transform="matrix(-1 0 0 1 380 5)" fill="#3DAF5B"/>
<circle cx="4" cy="4" r="4" transform="matrix(-1 0 0 1 584 1108)" fill="#3DAF5B"/>
<circle cx="3" cy="3" r="3" transform="matrix(-1 0 0 1 533 1109)" fill="#3DAF5B"/>
<circle cx="2" cy="2" r="2" transform="matrix(-1 0 0 1 481 1110)" fill="#3DAF5B"/>
<circle cx="1" cy="1" r="1" transform="matrix(-1 0 0 1 430 1111)" fill="#3DAF5B"/>
<circle cx="0.5" cy="0.5" r="0.5" transform="matrix(-1 0 0 1 380 1112)" fill="#3DAF5B"/>
<circle cx="7" cy="7" r="7" transform="matrix(-1 0 0 1 566 49)" fill="#3DAF5B"/>
<circle cx="6" cy="6" r="6" transform="matrix(-1 0 0 1 515 50)" fill="#3DAF5B"/>
<circle cx="5" cy="5" r="5" transform="matrix(-1 0 0 1 463 51)" fill="#3DAF5B"/>
<circle cx="4" cy="4" r="4" transform="matrix(-1 0 0 1 412 52)" fill="#3DAF5B"/>
<circle cx="3" cy="3" r="3" transform="matrix(-1 0 0 1 361 53)" fill="#3DAF5B"/>
<circle cx="2" cy="2" r="2" transform="matrix(-1 0 0 1 309 54)" fill="#3DAF5B"/>
<circle cx="7" cy="7" r="7" transform="matrix(-1 0 0 1 566 1054)" fill="#3DAF5B"/>
<circle cx="6" cy="6" r="6" transform="matrix(-1 0 0 1 515 1055)" fill="#3DAF5B"/>
<circle cx="5" cy="5" r="5" transform="matrix(-1 0 0 1 463 1056)" fill="#3DAF5B"/>
<circle cx="4" cy="4" r="4" transform="matrix(-1 0 0 1 412 1057)" fill="#3DAF5B"/>
<circle cx="3" cy="3" r="3" transform="matrix(-1 0 0 1 361 1058)" fill="#3DAF5B"/>
<circle cx="2" cy="2" r="2" transform="matrix(-1 0 0 1 309 1059)" fill="#3DAF5B"/>
<circle cx="579" cy="1011" r="8" fill="#3DAF5B"/>
<circle cx="630" cy="1011" r="7" fill="#3DAF5B"/>
<circle cx="680" cy="1011" r="6" fill="#3DAF5B"/>
<circle cx="731" cy="1011" r="5" fill="#3DAF5B"/>
<circle cx="781" cy="1011" r="4" fill="#3DAF5B"/>
<circle cx="831" cy="1011" r="3" fill="#3DAF5B"/>
<circle cx="882" cy="1011" r="2" fill="#3DAF5B"/>
<circle cx="932" cy="1011" r="1" fill="#3DAF5B"/>
<circle cx="981.5" cy="1011.5" r="0.5" fill="#3DAF5B"/>
<circle cx="6" cy="6" r="6" transform="matrix(-1 0 0 1 536 100)" fill="#3DAF5B"/>
<circle cx="5" cy="5" r="5" transform="matrix(-1 0 0 1 484 101)" fill="#3DAF5B"/>
<circle cx="4" cy="4" r="4" transform="matrix(-1 0 0 1 433 102)" fill="#3DAF5B"/>
<circle cx="3" cy="3" r="3" transform="matrix(-1 0 0 1 382 103)" fill="#3DAF5B"/>
<circle cx="2" cy="2" r="2" transform="matrix(-1 0 0 1 330 104)" fill="#3DAF5B"/>
<circle cx="1" cy="1" r="1" transform="matrix(-1 0 0 1 279 105)" fill="#3DAF5B"/>
<circle cx="0.5" cy="0.5" r="0.5" transform="matrix(-1 0 0 1 229 106)" fill="#3DAF5B"/>
<circle cx="6" cy="6" r="6" transform="matrix(-1 0 0 1 536 1006)" fill="#3DAF5B"/>
<circle cx="5" cy="5" r="5" transform="matrix(-1 0 0 1 484 1007)" fill="#3DAF5B"/>
<circle cx="4" cy="4" r="4" transform="matrix(-1 0 0 1 433 1008)" fill="#3DAF5B"/>
<circle cx="3" cy="3" r="3" transform="matrix(-1 0 0 1 382 1009)" fill="#3DAF5B"/>
<circle cx="2" cy="2" r="2" transform="matrix(-1 0 0 1 330 1010)" fill="#3DAF5B"/>
<circle cx="1" cy="1" r="1" transform="matrix(-1 0 0 1 279 1011)" fill="#3DAF5B"/>
<circle cx="0.5" cy="0.5" r="0.5" transform="matrix(-1 0 0 1 229 1012)" fill="#3DAF5B"/>
</svg>
