<svg width="910" height="864" viewBox="0 0 910 864" fill="none" xmlns="http://www.w3.org/2000/svg">
<mask id="mask0_1331_1445" style="mask-type:alpha" maskUnits="userSpaceOnUse" x="0" y="0" width="910" height="864">
<rect width="910" height="864" fill="#D9D9D9"/>
</mask>
<g mask="url(#mask0_1331_1445)">
<circle cx="492" cy="381" r="22" fill="#3DAF5B"/>
<circle cx="543" cy="381" r="21" fill="#3DAF5B"/>
<circle cx="593" cy="381" r="20" fill="#3DAF5B"/>
<circle cx="643" cy="381" r="18" fill="#3DAF5B"/>
<circle cx="694" cy="381" r="17" fill="#3DAF5B"/>
<circle cx="744" cy="381" r="15" fill="#3DAF5B"/>
<circle cx="794" cy="381" r="13" fill="#3DAF5B"/>
<circle cx="845" cy="381" r="11" fill="#3DAF5B"/>
<circle cx="895" cy="381" r="9" fill="#3DAF5B"/>
<circle cx="22" cy="22" r="22" transform="matrix(-1 0 0 1 464 360)" fill="#3DAF5B"/>
<circle cx="21" cy="21" r="21" transform="matrix(-1 0 0 1 412 361)" fill="#3DAF5B"/>
<circle cx="20" cy="20" r="20" transform="matrix(-1 0 0 1 361 362)" fill="#3DAF5B"/>
<circle cx="18" cy="18" r="18" transform="matrix(-1 0 0 1 309 364)" fill="#3DAF5B"/>
<circle cx="17" cy="17" r="17" transform="matrix(-1 0 0 1 257 365)" fill="#3DAF5B"/>
<circle cx="15" cy="15" r="15" transform="matrix(-1 0 0 1 205 367)" fill="#3DAF5B"/>
<circle cx="13" cy="13" r="13" transform="matrix(-1 0 0 1 153 369)" fill="#3DAF5B"/>
<circle cx="11" cy="11" r="11" transform="matrix(-1 0 0 1 100 371)" fill="#3DAF5B"/>
<circle cx="9" cy="9" r="9" transform="matrix(-1 0 0 1 48 373)" fill="#3DAF5B"/>
<circle cx="470" cy="331" r="22" fill="#3DAF5B"/>
<circle cx="521" cy="331" r="21" fill="#3DAF5B"/>
<circle cx="571" cy="331" r="20" fill="#3DAF5B"/>
<circle cx="621" cy="331" r="18" fill="#3DAF5B"/>
<circle cx="672" cy="331" r="17" fill="#3DAF5B"/>
<circle cx="722" cy="331" r="15" fill="#3DAF5B"/>
<circle cx="772" cy="331" r="13" fill="#3DAF5B"/>
<circle cx="823" cy="331" r="11" fill="#3DAF5B"/>
<circle cx="873" cy="331" r="9" fill="#3DAF5B"/>
<circle cx="492" cy="483" r="22" fill="#3DAF5B"/>
<circle cx="543" cy="483" r="21" fill="#3DAF5B"/>
<circle cx="593" cy="483" r="20" fill="#3DAF5B"/>
<circle cx="643" cy="483" r="18" fill="#3DAF5B"/>
<circle cx="694" cy="483" r="17" fill="#3DAF5B"/>
<circle cx="744" cy="483" r="15" fill="#3DAF5B"/>
<circle cx="794" cy="483" r="13" fill="#3DAF5B"/>
<circle cx="845" cy="483" r="11" fill="#3DAF5B"/>
<circle cx="895" cy="483" r="9" fill="#3DAF5B"/>
<circle cx="470" cy="431" r="22" fill="#3DAF5B"/>
<circle cx="521" cy="431" r="21" fill="#3DAF5B"/>
<circle cx="571" cy="431" r="20" fill="#3DAF5B"/>
<circle cx="621" cy="431" r="18" fill="#3DAF5B"/>
<circle cx="672" cy="431" r="17" fill="#3DAF5B"/>
<circle cx="722" cy="431" r="15" fill="#3DAF5B"/>
<circle cx="772" cy="431" r="13" fill="#3DAF5B"/>
<circle cx="823" cy="431" r="11" fill="#3DAF5B"/>
<circle cx="873" cy="431" r="9" fill="#3DAF5B"/>
<circle cx="22" cy="22" r="22" transform="matrix(-1 0 0 1 441 309)" fill="#3DAF5B"/>
<circle cx="21" cy="21" r="21" transform="matrix(-1 0 0 1 389 310)" fill="#3DAF5B"/>
<circle cx="20" cy="20" r="20" transform="matrix(-1 0 0 1 338 311)" fill="#3DAF5B"/>
<circle cx="18" cy="18" r="18" transform="matrix(-1 0 0 1 286 313)" fill="#3DAF5B"/>
<circle cx="17" cy="17" r="17" transform="matrix(-1 0 0 1 234 314)" fill="#3DAF5B"/>
<circle cx="15" cy="15" r="15" transform="matrix(-1 0 0 1 182 316)" fill="#3DAF5B"/>
<circle cx="13" cy="13" r="13" transform="matrix(-1 0 0 1 130 318)" fill="#3DAF5B"/>
<circle cx="11" cy="11" r="11" transform="matrix(-1 0 0 1 77 320)" fill="#3DAF5B"/>
<circle cx="9" cy="9" r="9" transform="matrix(-1 0 0 1 25 322)" fill="#3DAF5B"/>
<circle cx="22" cy="22" r="22" transform="matrix(-1 0 0 1 463 461)" fill="#3DAF5B"/>
<circle cx="21" cy="21" r="21" transform="matrix(-1 0 0 1 411 462)" fill="#3DAF5B"/>
<circle cx="20" cy="20" r="20" transform="matrix(-1 0 0 1 360 463)" fill="#3DAF5B"/>
<circle cx="18" cy="18" r="18" transform="matrix(-1 0 0 1 308 465)" fill="#3DAF5B"/>
<circle cx="17" cy="17" r="17" transform="matrix(-1 0 0 1 256 466)" fill="#3DAF5B"/>
<circle cx="15" cy="15" r="15" transform="matrix(-1 0 0 1 204 468)" fill="#3DAF5B"/>
<circle cx="13" cy="13" r="13" transform="matrix(-1 0 0 1 152 470)" fill="#3DAF5B"/>
<circle cx="11" cy="11" r="11" transform="matrix(-1 0 0 1 99 472)" fill="#3DAF5B"/>
<circle cx="9" cy="9" r="9" transform="matrix(-1 0 0 1 47 474)" fill="#3DAF5B"/>
<circle cx="22" cy="22" r="22" transform="matrix(-1 0 0 1 441 409)" fill="#3DAF5B"/>
<circle cx="21" cy="21" r="21" transform="matrix(-1 0 0 1 389 410)" fill="#3DAF5B"/>
<circle cx="20" cy="20" r="20" transform="matrix(-1 0 0 1 338 411)" fill="#3DAF5B"/>
<circle cx="18" cy="18" r="18" transform="matrix(-1 0 0 1 286 413)" fill="#3DAF5B"/>
<circle cx="17" cy="17" r="17" transform="matrix(-1 0 0 1 234 414)" fill="#3DAF5B"/>
<circle cx="15" cy="15" r="15" transform="matrix(-1 0 0 1 182 416)" fill="#3DAF5B"/>
<circle cx="13" cy="13" r="13" transform="matrix(-1 0 0 1 130 418)" fill="#3DAF5B"/>
<circle cx="11" cy="11" r="11" transform="matrix(-1 0 0 1 77 420)" fill="#3DAF5B"/>
<circle cx="9" cy="9" r="9" transform="matrix(-1 0 0 1 25 422)" fill="#3DAF5B"/>
<circle cx="492" cy="281" r="19" fill="#3DAF5B"/>
<circle cx="542" cy="281" r="18" fill="#3DAF5B"/>
<circle cx="593" cy="281" r="17" fill="#3DAF5B"/>
<circle cx="643" cy="281" r="15" fill="#3DAF5B"/>
<circle cx="693" cy="281" r="14" fill="#3DAF5B"/>
<circle cx="744" cy="281" r="12" fill="#3DAF5B"/>
<circle cx="794" cy="281" r="10" fill="#3DAF5B"/>
<circle cx="844" cy="281" r="8" fill="#3DAF5B"/>
<circle cx="894" cy="281" r="7" fill="#3DAF5B"/>
<circle cx="471" cy="532" r="19" fill="#3DAF5B"/>
<circle cx="521" cy="532" r="18" fill="#3DAF5B"/>
<circle cx="572" cy="532" r="17" fill="#3DAF5B"/>
<circle cx="622" cy="532" r="15" fill="#3DAF5B"/>
<circle cx="672" cy="532" r="14" fill="#3DAF5B"/>
<circle cx="723" cy="532" r="12" fill="#3DAF5B"/>
<circle cx="773" cy="532" r="10" fill="#3DAF5B"/>
<circle cx="823" cy="532" r="8" fill="#3DAF5B"/>
<circle cx="873" cy="532" r="7" fill="#3DAF5B"/>
<circle cx="492" cy="582" r="19" fill="#3DAF5B"/>
<circle cx="542" cy="582" r="18" fill="#3DAF5B"/>
<circle cx="593" cy="582" r="17" fill="#3DAF5B"/>
<circle cx="643" cy="582" r="15" fill="#3DAF5B"/>
<circle cx="693" cy="582" r="14" fill="#3DAF5B"/>
<circle cx="744" cy="582" r="12" fill="#3DAF5B"/>
<circle cx="794" cy="582" r="10" fill="#3DAF5B"/>
<circle cx="844" cy="582" r="8" fill="#3DAF5B"/>
<circle cx="894" cy="582" r="7" fill="#3DAF5B"/>
<circle cx="19" cy="19" r="19" transform="matrix(-1 0 0 1 461 262)" fill="#3DAF5B"/>
<circle cx="18" cy="18" r="18" transform="matrix(-1 0 0 1 410 263)" fill="#3DAF5B"/>
<circle cx="17" cy="17" r="17" transform="matrix(-1 0 0 1 358 264)" fill="#3DAF5B"/>
<circle cx="15" cy="15" r="15" transform="matrix(-1 0 0 1 306 266)" fill="#3DAF5B"/>
<circle cx="14" cy="14" r="14" transform="matrix(-1 0 0 1 255 267)" fill="#3DAF5B"/>
<circle cx="12" cy="12" r="12" transform="matrix(-1 0 0 1 202 269)" fill="#3DAF5B"/>
<circle cx="10" cy="10" r="10" transform="matrix(-1 0 0 1 150 271)" fill="#3DAF5B"/>
<circle cx="8" cy="8" r="8" transform="matrix(-1 0 0 1 98 273)" fill="#3DAF5B"/>
<circle cx="7" cy="7" r="7" transform="matrix(-1 0 0 1 47 274)" fill="#3DAF5B"/>
<circle cx="19" cy="19" r="19" transform="matrix(-1 0 0 1 440 513)" fill="#3DAF5B"/>
<circle cx="18" cy="18" r="18" transform="matrix(-1 0 0 1 389 514)" fill="#3DAF5B"/>
<circle cx="17" cy="17" r="17" transform="matrix(-1 0 0 1 337 515)" fill="#3DAF5B"/>
<circle cx="15" cy="15" r="15" transform="matrix(-1 0 0 1 285 517)" fill="#3DAF5B"/>
<circle cx="14" cy="14" r="14" transform="matrix(-1 0 0 1 234 518)" fill="#3DAF5B"/>
<circle cx="12" cy="12" r="12" transform="matrix(-1 0 0 1 181 520)" fill="#3DAF5B"/>
<circle cx="10" cy="10" r="10" transform="matrix(-1 0 0 1 129 522)" fill="#3DAF5B"/>
<circle cx="8" cy="8" r="8" transform="matrix(-1 0 0 1 77 524)" fill="#3DAF5B"/>
<circle cx="7" cy="7" r="7" transform="matrix(-1 0 0 1 26 525)" fill="#3DAF5B"/>
<circle cx="19" cy="19" r="19" transform="matrix(-1 0 0 1 461 563)" fill="#3DAF5B"/>
<circle cx="18" cy="18" r="18" transform="matrix(-1 0 0 1 410 564)" fill="#3DAF5B"/>
<circle cx="17" cy="17" r="17" transform="matrix(-1 0 0 1 358 565)" fill="#3DAF5B"/>
<circle cx="15" cy="15" r="15" transform="matrix(-1 0 0 1 306 567)" fill="#3DAF5B"/>
<circle cx="14" cy="14" r="14" transform="matrix(-1 0 0 1 255 568)" fill="#3DAF5B"/>
<circle cx="12" cy="12" r="12" transform="matrix(-1 0 0 1 202 570)" fill="#3DAF5B"/>
<circle cx="10" cy="10" r="10" transform="matrix(-1 0 0 1 150 572)" fill="#3DAF5B"/>
<circle cx="8" cy="8" r="8" transform="matrix(-1 0 0 1 98 574)" fill="#3DAF5B"/>
<circle cx="7" cy="7" r="7" transform="matrix(-1 0 0 1 47 575)" fill="#3DAF5B"/>
<circle cx="470" cy="229" r="18" fill="#3DAF5B"/>
<circle cx="521" cy="229" r="17" fill="#3DAF5B"/>
<circle cx="571" cy="229" r="16" fill="#3DAF5B"/>
<circle cx="622" cy="229" r="14" fill="#3DAF5B"/>
<circle cx="672" cy="229" r="13" fill="#3DAF5B"/>
<circle cx="722" cy="229" r="11" fill="#3DAF5B"/>
<circle cx="772" cy="229" r="9" fill="#3DAF5B"/>
<circle cx="822" cy="229" r="8" fill="#3DAF5B"/>
<circle cx="873" cy="229" r="6" fill="#3DAF5B"/>
<circle cx="470" cy="633" r="18" fill="#3DAF5B"/>
<circle cx="521" cy="633" r="17" fill="#3DAF5B"/>
<circle cx="571" cy="633" r="16" fill="#3DAF5B"/>
<circle cx="622" cy="633" r="14" fill="#3DAF5B"/>
<circle cx="672" cy="633" r="13" fill="#3DAF5B"/>
<circle cx="722" cy="633" r="11" fill="#3DAF5B"/>
<circle cx="772" cy="633" r="9" fill="#3DAF5B"/>
<circle cx="822" cy="633" r="8" fill="#3DAF5B"/>
<circle cx="873" cy="633" r="6" fill="#3DAF5B"/>
<circle cx="18" cy="18" r="18" transform="matrix(-1 0 0 1 489 211)" fill="#3DAF5B"/>
<circle cx="17" cy="17" r="17" transform="matrix(-1 0 0 1 437 212)" fill="#3DAF5B"/>
<circle cx="16" cy="16" r="16" transform="matrix(-1 0 0 1 386 213)" fill="#3DAF5B"/>
<circle cx="14" cy="14" r="14" transform="matrix(-1 0 0 1 333 215)" fill="#3DAF5B"/>
<circle cx="13" cy="13" r="13" transform="matrix(-1 0 0 1 282 216)" fill="#3DAF5B"/>
<circle cx="11" cy="11" r="11" transform="matrix(-1 0 0 1 230 218)" fill="#3DAF5B"/>
<circle cx="9" cy="9" r="9" transform="matrix(-1 0 0 1 178 220)" fill="#3DAF5B"/>
<circle cx="8" cy="8" r="8" transform="matrix(-1 0 0 1 127 221)" fill="#3DAF5B"/>
<circle cx="6" cy="6" r="6" transform="matrix(-1 0 0 1 74 223)" fill="#3DAF5B"/>
<circle cx="5" cy="5" r="5" transform="matrix(-1 0 0 1 23 224)" fill="#3DAF5B"/>
<circle cx="18" cy="18" r="18" transform="matrix(-1 0 0 1 489 615)" fill="#3DAF5B"/>
<circle cx="17" cy="17" r="17" transform="matrix(-1 0 0 1 437 616)" fill="#3DAF5B"/>
<circle cx="16" cy="16" r="16" transform="matrix(-1 0 0 1 386 617)" fill="#3DAF5B"/>
<circle cx="14" cy="14" r="14" transform="matrix(-1 0 0 1 333 619)" fill="#3DAF5B"/>
<circle cx="13" cy="13" r="13" transform="matrix(-1 0 0 1 282 620)" fill="#3DAF5B"/>
<circle cx="11" cy="11" r="11" transform="matrix(-1 0 0 1 230 622)" fill="#3DAF5B"/>
<circle cx="9" cy="9" r="9" transform="matrix(-1 0 0 1 178 624)" fill="#3DAF5B"/>
<circle cx="8" cy="8" r="8" transform="matrix(-1 0 0 1 127 625)" fill="#3DAF5B"/>
<circle cx="6" cy="6" r="6" transform="matrix(-1 0 0 1 74 627)" fill="#3DAF5B"/>
<circle cx="5" cy="5" r="5" transform="matrix(-1 0 0 1 23 628)" fill="#3DAF5B"/>
<circle cx="492" cy="180" r="15" fill="#3DAF5B"/>
<circle cx="542" cy="180" r="14" fill="#3DAF5B"/>
<circle cx="593" cy="180" r="13" fill="#3DAF5B"/>
<circle cx="643" cy="180" r="12" fill="#3DAF5B"/>
<circle cx="693" cy="180" r="11" fill="#3DAF5B"/>
<circle cx="744" cy="180" r="10" fill="#3DAF5B"/>
<circle cx="794" cy="180" r="9" fill="#3DAF5B"/>
<circle cx="844" cy="180" r="8" fill="#3DAF5B"/>
<circle cx="894" cy="180" r="7" fill="#3DAF5B"/>
<circle cx="492" cy="683" r="15" fill="#3DAF5B"/>
<circle cx="542" cy="683" r="14" fill="#3DAF5B"/>
<circle cx="593" cy="683" r="13" fill="#3DAF5B"/>
<circle cx="643" cy="683" r="12" fill="#3DAF5B"/>
<circle cx="693" cy="683" r="11" fill="#3DAF5B"/>
<circle cx="744" cy="683" r="10" fill="#3DAF5B"/>
<circle cx="794" cy="683" r="9" fill="#3DAF5B"/>
<circle cx="844" cy="683" r="8" fill="#3DAF5B"/>
<circle cx="894" cy="683" r="7" fill="#3DAF5B"/>
<circle cx="15" cy="15" r="15" transform="matrix(-1 0 0 1 457 165)" fill="#3DAF5B"/>
<circle cx="14" cy="14" r="14" transform="matrix(-1 0 0 1 406 166)" fill="#3DAF5B"/>
<circle cx="13" cy="13" r="13" transform="matrix(-1 0 0 1 354 167)" fill="#3DAF5B"/>
<circle cx="12" cy="12" r="12" transform="matrix(-1 0 0 1 303 168)" fill="#3DAF5B"/>
<circle cx="11" cy="11" r="11" transform="matrix(-1 0 0 1 252 169)" fill="#3DAF5B"/>
<circle cx="10" cy="10" r="10" transform="matrix(-1 0 0 1 200 170)" fill="#3DAF5B"/>
<circle cx="9" cy="9" r="9" transform="matrix(-1 0 0 1 149 171)" fill="#3DAF5B"/>
<circle cx="8" cy="8" r="8" transform="matrix(-1 0 0 1 98 172)" fill="#3DAF5B"/>
<circle cx="7" cy="7" r="7" transform="matrix(-1 0 0 1 47 173)" fill="#3DAF5B"/>
<circle cx="15" cy="15" r="15" transform="matrix(-1 0 0 1 457 668)" fill="#3DAF5B"/>
<circle cx="14" cy="14" r="14" transform="matrix(-1 0 0 1 406 669)" fill="#3DAF5B"/>
<circle cx="13" cy="13" r="13" transform="matrix(-1 0 0 1 354 670)" fill="#3DAF5B"/>
<circle cx="12" cy="12" r="12" transform="matrix(-1 0 0 1 303 671)" fill="#3DAF5B"/>
<circle cx="11" cy="11" r="11" transform="matrix(-1 0 0 1 252 672)" fill="#3DAF5B"/>
<circle cx="10" cy="10" r="10" transform="matrix(-1 0 0 1 200 673)" fill="#3DAF5B"/>
<circle cx="9" cy="9" r="9" transform="matrix(-1 0 0 1 149 674)" fill="#3DAF5B"/>
<circle cx="8" cy="8" r="8" transform="matrix(-1 0 0 1 98 675)" fill="#3DAF5B"/>
<circle cx="7" cy="7" r="7" transform="matrix(-1 0 0 1 47 676)" fill="#3DAF5B"/>
<circle cx="470" cy="129" r="14" fill="#3DAF5B"/>
<circle cx="520" cy="129" r="13" fill="#3DAF5B"/>
<circle cx="571" cy="129" r="12" fill="#3DAF5B"/>
<circle cx="621" cy="129" r="11" fill="#3DAF5B"/>
<circle cx="672" cy="129" r="10" fill="#3DAF5B"/>
<circle cx="722" cy="129" r="9" fill="#3DAF5B"/>
<circle cx="772" cy="129" r="8" fill="#3DAF5B"/>
<circle cx="822" cy="129" r="7" fill="#3DAF5B"/>
<circle cx="872" cy="129" r="6" fill="#3DAF5B"/>
<circle cx="470" cy="733" r="14" fill="#3DAF5B"/>
<circle cx="520" cy="733" r="13" fill="#3DAF5B"/>
<circle cx="571" cy="733" r="12" fill="#3DAF5B"/>
<circle cx="621" cy="733" r="11" fill="#3DAF5B"/>
<circle cx="672" cy="733" r="10" fill="#3DAF5B"/>
<circle cx="722" cy="733" r="9" fill="#3DAF5B"/>
<circle cx="772" cy="733" r="8" fill="#3DAF5B"/>
<circle cx="822" cy="733" r="7" fill="#3DAF5B"/>
<circle cx="872" cy="733" r="6" fill="#3DAF5B"/>
<circle cx="14" cy="14" r="14" transform="matrix(-1 0 0 1 485 115)" fill="#3DAF5B"/>
<circle cx="13" cy="13" r="13" transform="matrix(-1 0 0 1 434 116)" fill="#3DAF5B"/>
<circle cx="12" cy="12" r="12" transform="matrix(-1 0 0 1 382 117)" fill="#3DAF5B"/>
<circle cx="11" cy="11" r="11" transform="matrix(-1 0 0 1 331 118)" fill="#3DAF5B"/>
<circle cx="10" cy="10" r="10" transform="matrix(-1 0 0 1 279 119)" fill="#3DAF5B"/>
<circle cx="9" cy="9" r="9" transform="matrix(-1 0 0 1 228 120)" fill="#3DAF5B"/>
<circle cx="8" cy="8" r="8" transform="matrix(-1 0 0 1 177 121)" fill="#3DAF5B"/>
<circle cx="7" cy="7" r="7" transform="matrix(-1 0 0 1 126 122)" fill="#3DAF5B"/>
<circle cx="6" cy="6" r="6" transform="matrix(-1 0 0 1 75 123)" fill="#3DAF5B"/>
<circle cx="5" cy="5" r="5" transform="matrix(-1 0 0 1 23 124)" fill="#3DAF5B"/>
<circle cx="14" cy="14" r="14" transform="matrix(-1 0 0 1 485 719)" fill="#3DAF5B"/>
<circle cx="13" cy="13" r="13" transform="matrix(-1 0 0 1 434 720)" fill="#3DAF5B"/>
<circle cx="12" cy="12" r="12" transform="matrix(-1 0 0 1 382 721)" fill="#3DAF5B"/>
<circle cx="11" cy="11" r="11" transform="matrix(-1 0 0 1 331 722)" fill="#3DAF5B"/>
<circle cx="10" cy="10" r="10" transform="matrix(-1 0 0 1 279 723)" fill="#3DAF5B"/>
<circle cx="9" cy="9" r="9" transform="matrix(-1 0 0 1 228 724)" fill="#3DAF5B"/>
<circle cx="8" cy="8" r="8" transform="matrix(-1 0 0 1 177 725)" fill="#3DAF5B"/>
<circle cx="7" cy="7" r="7" transform="matrix(-1 0 0 1 126 726)" fill="#3DAF5B"/>
<circle cx="6" cy="6" r="6" transform="matrix(-1 0 0 1 75 727)" fill="#3DAF5B"/>
<circle cx="5" cy="5" r="5" transform="matrix(-1 0 0 1 23 728)" fill="#3DAF5B"/>
<circle cx="492" cy="79" r="11" fill="#3DAF5B"/>
<circle cx="542" cy="79" r="10" fill="#3DAF5B"/>
<circle cx="593" cy="79" r="9" fill="#3DAF5B"/>
<circle cx="643" cy="79" r="8" fill="#3DAF5B"/>
<circle cx="693" cy="79" r="7" fill="#3DAF5B"/>
<circle cx="744" cy="79" r="6" fill="#3DAF5B"/>
<circle cx="794" cy="79" r="5" fill="#3DAF5B"/>
<circle cx="844" cy="79" r="4" fill="#3DAF5B"/>
<circle cx="894" cy="79" r="3" fill="#3DAF5B"/>
<circle cx="492" cy="784" r="11" fill="#3DAF5B"/>
<circle cx="542" cy="784" r="10" fill="#3DAF5B"/>
<circle cx="593" cy="784" r="9" fill="#3DAF5B"/>
<circle cx="643" cy="784" r="8" fill="#3DAF5B"/>
<circle cx="693" cy="784" r="7" fill="#3DAF5B"/>
<circle cx="744" cy="784" r="6" fill="#3DAF5B"/>
<circle cx="794" cy="784" r="5" fill="#3DAF5B"/>
<circle cx="844" cy="784" r="4" fill="#3DAF5B"/>
<circle cx="894" cy="784" r="3" fill="#3DAF5B"/>
<circle cx="11" cy="11" r="11" transform="matrix(-1 0 0 1 453 68)" fill="#3DAF5B"/>
<circle cx="10" cy="10" r="10" transform="matrix(-1 0 0 1 402 69)" fill="#3DAF5B"/>
<circle cx="9" cy="9" r="9" transform="matrix(-1 0 0 1 350 70)" fill="#3DAF5B"/>
<circle cx="8" cy="8" r="8" transform="matrix(-1 0 0 1 299 71)" fill="#3DAF5B"/>
<circle cx="7" cy="7" r="7" transform="matrix(-1 0 0 1 248 72)" fill="#3DAF5B"/>
<circle cx="6" cy="6" r="6" transform="matrix(-1 0 0 1 196 73)" fill="#3DAF5B"/>
<circle cx="5" cy="5" r="5" transform="matrix(-1 0 0 1 145 74)" fill="#3DAF5B"/>
<circle cx="4" cy="4" r="4" transform="matrix(-1 0 0 1 94 75)" fill="#3DAF5B"/>
<circle cx="3" cy="3" r="3" transform="matrix(-1 0 0 1 43 76)" fill="#3DAF5B"/>
<circle cx="11" cy="11" r="11" transform="matrix(-1 0 0 1 453 773)" fill="#3DAF5B"/>
<circle cx="10" cy="10" r="10" transform="matrix(-1 0 0 1 402 774)" fill="#3DAF5B"/>
<circle cx="9" cy="9" r="9" transform="matrix(-1 0 0 1 350 775)" fill="#3DAF5B"/>
<circle cx="8" cy="8" r="8" transform="matrix(-1 0 0 1 299 776)" fill="#3DAF5B"/>
<circle cx="7" cy="7" r="7" transform="matrix(-1 0 0 1 248 777)" fill="#3DAF5B"/>
<circle cx="6" cy="6" r="6" transform="matrix(-1 0 0 1 196 778)" fill="#3DAF5B"/>
<circle cx="5" cy="5" r="5" transform="matrix(-1 0 0 1 145 779)" fill="#3DAF5B"/>
<circle cx="4" cy="4" r="4" transform="matrix(-1 0 0 1 94 780)" fill="#3DAF5B"/>
<circle cx="3" cy="3" r="3" transform="matrix(-1 0 0 1 43 781)" fill="#3DAF5B"/>
<circle cx="471" cy="29" r="10" fill="#3DAF5B"/>
<circle cx="521" cy="29" r="9" fill="#3DAF5B"/>
<circle cx="570" cy="29" r="8" fill="#3DAF5B"/>
<circle cx="621" cy="29" r="7" fill="#3DAF5B"/>
<circle cx="671" cy="29" r="6" fill="#3DAF5B"/>
<circle cx="722" cy="29" r="5" fill="#3DAF5B"/>
<circle cx="772" cy="29" r="4" fill="#3DAF5B"/>
<circle cx="822" cy="29" r="3" fill="#3DAF5B"/>
<circle cx="872" cy="29" r="2" fill="#3DAF5B"/>
<circle cx="471" cy="834" r="10" fill="#3DAF5B"/>
<circle cx="521" cy="834" r="9" fill="#3DAF5B"/>
<circle cx="570" cy="834" r="8" fill="#3DAF5B"/>
<circle cx="621" cy="834" r="7" fill="#3DAF5B"/>
<circle cx="671" cy="834" r="6" fill="#3DAF5B"/>
<circle cx="722" cy="834" r="5" fill="#3DAF5B"/>
<circle cx="772" cy="834" r="4" fill="#3DAF5B"/>
<circle cx="822" cy="834" r="3" fill="#3DAF5B"/>
<circle cx="872" cy="834" r="2" fill="#3DAF5B"/>
<circle cx="10" cy="10" r="10" transform="matrix(-1 0 0 1 429 19)" fill="#3DAF5B"/>
<circle cx="9" cy="9" r="9" transform="matrix(-1 0 0 1 378 20)" fill="#3DAF5B"/>
<circle cx="8" cy="8" r="8" transform="matrix(-1 0 0 1 328 21)" fill="#3DAF5B"/>
<circle cx="7" cy="7" r="7" transform="matrix(-1 0 0 1 276 22)" fill="#3DAF5B"/>
<circle cx="6" cy="6" r="6" transform="matrix(-1 0 0 1 225 23)" fill="#3DAF5B"/>
<circle cx="5" cy="5" r="5" transform="matrix(-1 0 0 1 173 24)" fill="#3DAF5B"/>
<circle cx="4" cy="4" r="4" transform="matrix(-1 0 0 1 122 25)" fill="#3DAF5B"/>
<circle cx="3" cy="3" r="3" transform="matrix(-1 0 0 1 71 26)" fill="#3DAF5B"/>
<circle cx="2" cy="2" r="2" transform="matrix(-1 0 0 1 20 27)" fill="#3DAF5B"/>
<circle cx="10" cy="10" r="10" transform="matrix(-1 0 0 1 429 824)" fill="#3DAF5B"/>
<circle cx="9" cy="9" r="9" transform="matrix(-1 0 0 1 378 825)" fill="#3DAF5B"/>
<circle cx="8" cy="8" r="8" transform="matrix(-1 0 0 1 328 826)" fill="#3DAF5B"/>
<circle cx="7" cy="7" r="7" transform="matrix(-1 0 0 1 276 827)" fill="#3DAF5B"/>
<circle cx="6" cy="6" r="6" transform="matrix(-1 0 0 1 225 828)" fill="#3DAF5B"/>
<circle cx="5" cy="5" r="5" transform="matrix(-1 0 0 1 173 829)" fill="#3DAF5B"/>
<circle cx="4" cy="4" r="4" transform="matrix(-1 0 0 1 122 830)" fill="#3DAF5B"/>
<circle cx="3" cy="3" r="3" transform="matrix(-1 0 0 1 71 831)" fill="#3DAF5B"/>
<circle cx="2" cy="2" r="2" transform="matrix(-1 0 0 1 20 832)" fill="#3DAF5B"/>
</g>
</svg>
