<svg width="75" height="75" viewBox="0 0 75 75" fill="none" xmlns="http://www.w3.org/2000/svg">
<mask id="mask0_203_32" style="mask-type:luminance" maskUnits="userSpaceOnUse" x="5" y="13" width="65" height="49">
<path d="M70 13H5V61.2992H70V13Z" fill="white"/>
</mask>
<g mask="url(#mask0_203_32)">
<path d="M7.39551 54.9023C7.39551 52.2748 9.2502 49.4413 9.2502 49.4413C9.2502 49.4413 13.2601 43.4393 16.171 35.4968C16.7548 33.8997 17.5276 31.796 18.1287 28.9195C18.3863 27.683 18.4893 26.9102 18.7383 25.6051C18.8843 24.858 19.0131 24.2226 19.0732 23.9651C19.4596 22.1533 19.949 19.8607 20.8334 18.1863C22.6194 14.8118 26.1227 13.6011 26.3718 13.5152C28.8962 12.6566 31.1201 13.1117 31.8156 13.2748C32.6399 13.4723 33.3097 13.7471 33.842 14.0132C37.3797 15.7391 39.0369 18.5469 41.3123 20.5046C44.3605 23.1322 47.9239 23.716 50.3969 24.1024C54.8103 24.7894 58.0131 23.8191 62.3751 25.6222C63.0191 25.8884 63.8691 26.292 64.7793 27.0133C65.4147 27.5199 67.4669 29.2801 68.171 32.3283C68.6948 34.5694 68.2225 36.3983 68.0164 37.1454C66.6168 42.1256 61.7826 44.7874 60.7436 45.3627C59.2324 46.1956 58.5455 46.2643 56.4761 47.5351C54.4154 48.8059 52.8183 50.2055 52.5435 50.4459C49.8044 52.833 43.811 53.6573 38.1954 54.43C36.4266 54.6705 33.3011 55.0311 29.171 56.0271C28.4926 56.1903 28.1492 56.2762 27.6597 56.4135C24.4827 57.2979 21.8123 58.5773 19.6056 59.6421C18.5408 60.1573 17.914 60.4835 16.8407 60.8098C15.9391 61.076 14.986 61.3594 13.7324 61.3164C13.1914 61.2993 11.268 61.222 9.85984 60.037C9.38758 59.6421 8.76077 58.938 8.25416 58.1051C8.18547 57.9935 8.12536 57.899 8.09102 57.8303C8.09102 57.8303 7.40409 56.5767 7.40409 54.9195L7.39551 54.9023Z" fill="#3DAF5B"/>
<path d="M17.3647 22.3168C18.1289 21.8016 18.8845 21.6556 19.2967 21.6127C19.3911 21.5783 19.5371 21.5354 19.7174 21.4924C21.1084 21.149 22.7055 21.3121 23.7359 21.8445C26.2518 23.1496 26.6468 27.3485 25.728 30.0876C25.5305 30.6715 25.2901 31.1437 25.084 31.4872C28.6131 30.9205 32.1421 30.3537 35.6712 29.787C33.1296 26.4211 33.1296 22.3683 35.1474 20.256C36.4955 18.8392 38.4189 18.6503 39.2432 18.6159C39.621 18.5902 42.051 18.4356 43.7425 20.1959C45.4598 21.9733 45.7088 24.97 44.2062 27.4515C43.9314 28.0182 43.6567 28.5849 43.3905 29.1516C45.0477 29.2117 46.7049 29.2718 48.3621 29.3234C49.8475 29.83 51.3244 30.3366 52.8099 30.8432C51.7623 28.0869 52.5609 25.1074 54.6216 23.5876C56.7425 22.0248 59.2841 22.6688 59.6534 22.7718C60.3489 22.9779 62.5899 23.7335 63.5173 25.7514C64.7623 28.4561 63.2253 32.5605 59.2498 34.8187C60.0913 35.5829 60.9242 36.3386 61.7656 37.1028C62.2894 39.9106 62.8218 42.7184 63.3456 45.5261C64.0239 45.861 64.7108 46.1873 65.3892 46.5222C66.0932 46.11 66.7888 45.7065 67.4928 45.2943C68.3515 45.4489 69.0127 46.1186 69.1329 46.9343C69.2531 47.7758 68.7722 48.5057 68.1969 48.8663C67.3726 49.3815 66.1877 49.2098 65.3892 48.4026C63.7148 48.6173 62.0404 48.832 60.3574 49.0466C59.7907 47.896 59.224 46.5737 58.7174 45.0711C58.374 44.0493 58.1078 43.079 57.8931 42.1774C57.4037 44.2897 56.9228 46.4106 56.4334 48.5228C55.944 49.7679 55.4545 51.0215 54.9737 52.2666C43.339 52.2065 31.6956 52.1464 20.0609 52.0863C20.1038 51.2276 20.1382 50.3775 20.1811 49.5189L18.189 41.1556C17.0384 43.0275 15.8878 44.8993 14.7372 46.7712C10.5556 40.7692 8.99287 38.4251 8.73528 37.9357C8.72669 37.9099 8.69235 37.8498 8.62365 37.7725C8.17715 37.2659 7.14677 37.429 6.25377 37.7038C5.58403 36.8194 5.65272 35.6431 6.31388 34.9561C6.8119 34.4409 7.61903 34.2263 8.30595 34.4925C9.21612 34.8359 9.75707 35.9779 9.41361 37.1199C10.7789 38.5453 12.1441 39.9621 13.5094 41.3874C13.724 41.5592 13.9387 41.7395 14.1534 41.9112C15.1322 39.1034 16.1025 36.2956 17.0814 33.4878L19.125 33.5479C18.584 33.256 16.5147 32.0625 15.6131 29.5123C14.909 27.5116 15.1666 25.3306 16.0252 23.8366C16.2313 23.4759 16.6091 22.8405 17.3733 22.3168H17.3647Z" fill="white"/>
<path d="M39.5524 32.1914C38.1356 32.1914 36.6931 31.5217 35.4652 30.2852C34.5121 29.3149 33.7307 28.0527 33.2584 26.7218C32.9837 25.949 32.8291 25.1762 32.7948 24.4292C32.7175 22.669 33.3185 20.986 34.5035 19.6809C35.6884 18.3757 37.3113 17.6201 39.0715 17.5343C40.0761 17.4913 41.0636 17.6631 41.9909 18.0666C44.3265 19.0712 45.8463 21.278 45.9665 23.811C46.061 25.8803 45.2023 28.3103 43.7684 29.9933C42.6178 31.3585 41.2267 32.1141 39.7584 32.1914C39.6898 32.1914 39.6211 32.1914 39.5524 32.1914ZM39.3892 19.2859C39.3119 19.2859 39.2347 19.2859 39.1574 19.2859C37.8694 19.346 36.6845 19.9041 35.8172 20.8572C34.95 21.8103 34.5035 23.0468 34.5636 24.3347C34.5894 24.91 34.7182 25.5111 34.9328 26.1293C35.3106 27.2198 35.9546 28.2588 36.7274 29.0402C37.6547 29.9761 38.6937 30.4655 39.6812 30.4226C40.9005 30.3625 41.845 29.5382 42.4289 28.8513C43.5709 27.5032 44.2835 25.5111 44.2149 23.8883C44.129 22.0336 43.0127 20.4193 41.304 19.6809C40.6944 19.4147 40.0504 19.2859 39.3978 19.2859H39.3892Z" fill="#192232"/>
<path d="M21.8296 34.707C20.7735 34.707 19.6572 34.3807 18.5839 33.7367C17.4162 33.0412 16.3428 32.0108 15.5529 30.8345C15.0978 30.1561 14.7457 29.4434 14.5225 28.7308C14.0073 27.0478 14.1705 25.2618 14.9948 23.7076C15.8191 22.1535 17.1929 21.0029 18.8759 20.4877C19.8376 20.1871 20.8336 20.1185 21.8382 20.273C24.3455 20.668 26.3719 22.4111 27.1189 24.8411C27.7286 26.8245 27.5053 29.3833 26.5351 31.384C25.7623 32.9983 24.6117 34.0802 23.2035 34.5095C22.757 34.6469 22.2933 34.7156 21.821 34.7156L21.8296 34.707ZM20.825 21.956C20.3442 21.956 19.8719 22.0247 19.4082 22.1707C18.1718 22.5485 17.1671 23.3899 16.5661 24.5234C15.965 25.6654 15.8448 26.9705 16.2226 28.207C16.3944 28.7565 16.6691 29.3061 17.0298 29.8556C17.6738 30.8173 18.5496 31.6588 19.4941 32.2255C20.6275 32.8952 21.7609 33.1099 22.6969 32.8179C23.8646 32.4573 24.5687 31.4183 24.9637 30.6112C25.7279 29.0227 25.9254 26.9104 25.4446 25.3563C24.895 23.5788 23.4181 22.2995 21.5806 22.0161C21.3316 21.9817 21.0826 21.956 20.8336 21.956H20.825Z" fill="#192232"/>
<path d="M56.8541 36.0299C56.107 36.0299 55.4029 35.8754 54.7589 35.5748C53.4194 34.9394 52.3891 33.6257 51.8653 31.8826C51.4789 30.5775 51.3844 29.092 51.5991 27.701C51.7193 26.8853 51.9426 26.1297 52.2689 25.4599C53.0245 23.8628 54.3554 22.6693 56.0126 22.0768C57.6698 21.4843 59.4644 21.5702 61.0529 22.3258C61.963 22.7551 62.7444 23.3734 63.3798 24.1719C64.9683 26.1554 65.2774 28.8172 64.187 31.1098C63.294 32.9817 61.3963 34.7162 59.3356 35.5405C58.4855 35.8839 57.6526 36.0557 56.8626 36.0557L56.8541 36.0299ZM58.2193 23.4421C57.6698 23.4421 57.1288 23.5365 56.5965 23.7254C55.3858 24.1548 54.4069 25.0392 53.8574 26.2069C53.6084 26.7307 53.4366 27.3146 53.3422 27.9672C53.1619 29.1092 53.2391 30.3199 53.5568 31.376C53.9346 32.6382 54.6302 33.5656 55.5146 33.9863C56.6222 34.5101 57.8415 34.2182 58.6744 33.8919C60.3144 33.2393 61.8858 31.8139 62.5813 30.3456C63.3798 28.6713 63.148 26.7221 61.9888 25.271C61.5251 24.6957 60.9498 24.2406 60.2801 23.9229C59.6275 23.6138 58.9234 23.4507 58.2193 23.4507V23.4421Z" fill="#192232"/>
<path d="M59.0779 53.2024H17.2186C16.7291 53.2024 16.3342 52.8074 16.3342 52.318C16.3342 51.8286 16.7291 51.4336 17.2186 51.4336H59.0779C59.5673 51.4336 59.9623 51.8286 59.9623 52.318C59.9623 52.8074 59.5673 53.2024 59.0779 53.2024Z" fill="#192232"/>
<path d="M13.8783 43.3798C13.6207 43.3798 13.3802 43.2682 13.2085 43.0707L8.62328 37.7557C8.30558 37.3864 8.34851 36.8283 8.71773 36.5106C9.08695 36.1929 9.64508 36.2358 9.96278 36.6051L13.5348 40.7438L16.0506 33.2735C16.1623 32.9386 16.4628 32.7068 16.8063 32.6724L19.159 32.4664C19.6484 32.4234 20.0691 32.7841 20.1207 33.2649C20.1722 33.7458 19.803 34.1751 19.3221 34.2266L17.5447 34.3812L14.7197 42.7702C14.6167 43.0707 14.3677 43.294 14.05 43.3541C13.9899 43.3627 13.9384 43.3712 13.8783 43.3712V43.3798Z" fill="#192232"/>
<path d="M25.4447 32.5686C25.0325 32.5686 24.6633 32.2767 24.5774 31.8474C24.483 31.3665 24.8007 30.9028 25.2815 30.817L35.9288 28.7906C36.4011 28.6961 36.8733 29.0138 36.9592 29.4946C37.0536 29.9755 36.7359 30.4392 36.2551 30.525L25.6078 32.5515C25.5563 32.56 25.4962 32.5686 25.4447 32.5686Z" fill="#192232"/>
<path d="M31.5494 52.5673C31.1802 52.5673 30.8367 52.3354 30.7165 51.9662C28.6128 45.6637 27.591 41.0441 27.5051 37.4206C27.5051 37.1974 27.5824 36.9741 27.737 36.811L34.6148 29.2291C34.9411 28.8684 35.4992 28.8427 35.8598 29.169C36.2204 29.4953 36.2462 30.0534 35.9199 30.414L29.2825 37.7297C29.4199 41.1214 30.416 45.4834 32.3909 51.4081C32.5454 51.8718 32.2964 52.3698 31.8327 52.5243C31.7383 52.5587 31.6438 52.5673 31.5494 52.5673Z" fill="#192232"/>
<path d="M32.7172 52.5669C32.245 52.5669 31.85 52.1891 31.8328 51.7168L31.3949 38.5193L28.7932 39.1547C28.3209 39.2664 27.8401 38.983 27.7285 38.5022C27.6168 38.0299 27.9002 37.5491 28.381 37.4374L32.0389 36.5444C32.2965 36.4843 32.5713 36.5444 32.7773 36.699C32.992 36.8621 33.1208 37.1112 33.1294 37.3687L33.6017 51.6481C33.6188 52.1376 33.2324 52.5411 32.7516 52.5583C32.743 52.5583 32.7344 52.5583 32.7258 52.5583L32.7172 52.5669Z" fill="#192232"/>
<path d="M37.9725 31.8997H34.1687C33.6792 31.8997 33.2842 31.5046 33.2842 31.0152C33.2842 30.5258 33.6792 30.1309 34.1687 30.1309H37.9725C38.4619 30.1309 38.8569 30.5258 38.8569 31.0152C38.8569 31.5046 38.4619 31.8997 37.9725 31.8997Z" fill="#192232"/>
<path d="M20.8509 52.5664C20.5246 52.5664 20.2155 52.3861 20.061 52.077C18.9018 49.75 18.1118 46.9851 17.6138 43.4818L15.4071 47.4231C15.2611 47.6807 14.9949 47.8524 14.703 47.8696C14.4024 47.8867 14.1191 47.7579 13.9388 47.5261L7.69638 39.326C7.40444 38.9396 7.47313 38.3815 7.86811 38.0895C8.25451 37.7976 8.81263 37.8663 9.10457 38.2612L14.5312 45.3881L17.4077 40.2447C17.5966 39.9099 17.983 39.7295 18.3608 39.8154C18.7386 39.8927 19.022 40.2104 19.0563 40.5968C19.4771 45.1992 20.3014 48.5994 21.6409 51.2956C21.8556 51.7335 21.6838 52.2659 21.2459 52.4805C21.1171 52.5406 20.9883 52.575 20.8509 52.575V52.5664Z" fill="#192232"/>
<path d="M7.67899 39.0941C6.20211 39.0941 5 37.892 5 36.4151C5 34.9382 6.20211 33.7361 7.67899 33.7361C9.15588 33.7361 10.358 34.9382 10.358 36.4151C10.358 37.892 9.15588 39.0941 7.67899 39.0941ZM7.67899 35.5049C7.18098 35.5049 6.76882 35.9171 6.76882 36.4151C6.76882 36.9131 7.18098 37.3253 7.67899 37.3253C8.17701 37.3253 8.58917 36.9131 8.58917 36.4151C8.58917 35.9171 8.17701 35.5049 7.67899 35.5049Z" fill="#192232"/>
<path d="M67.3211 49.9139C65.8442 49.9139 64.6421 48.7118 64.6421 47.2349C64.6421 45.758 65.8442 44.5559 67.3211 44.5559C68.798 44.5559 70.0001 45.758 70.0001 47.2349C70.0001 48.7118 68.798 49.9139 67.3211 49.9139ZM67.3211 46.3247C66.8231 46.3247 66.4109 46.7369 66.4109 47.2349C66.4109 47.7329 66.8231 48.1451 67.3211 48.1451C67.8191 48.1451 68.2313 47.7329 68.2313 47.2349C68.2313 46.7369 67.8191 46.3247 67.3211 46.3247Z" fill="#192232"/>
<path d="M41.0721 44.4521C39.8099 44.4521 38.7795 43.4218 38.7795 42.1595C38.7795 40.8973 39.8099 39.8669 41.0721 39.8669C42.3344 39.8669 43.3647 40.8973 43.3647 42.1595C43.3647 43.4218 42.3344 44.4521 41.0721 44.4521ZM41.0721 41.6272C40.7802 41.6272 40.5398 41.8676 40.5398 42.1595C40.5398 42.4515 40.7802 42.6919 41.0721 42.6919C41.3641 42.6919 41.6045 42.4515 41.6045 42.1595C41.6045 41.8676 41.3641 41.6272 41.0721 41.6272Z" fill="#192232"/>
<path d="M43.2788 52.5666C43.2788 52.5666 43.2531 52.5666 43.2359 52.5666C42.7464 52.5409 42.3686 52.1287 42.3944 51.6479L42.7464 44.0574C42.5232 44.1003 42.2914 44.0574 42.0939 43.9457C41.8534 43.7912 41.6989 43.5336 41.6817 43.2416L41.5959 41.6789C41.5787 41.3698 41.7332 41.0693 41.9908 40.8975L42.9182 40.2879L43.15 35.2648C43.1672 34.887 43.4248 34.5607 43.7854 34.4576C44.146 34.3546 44.541 34.492 44.7557 34.8011L47.2801 38.4418C47.4175 38.6393 47.469 38.8797 47.4175 39.1115C47.3746 39.3434 47.2372 39.5494 47.0397 39.6782L44.6355 41.2582V41.3526L49.796 39.163L44.6011 31.6928L41.6044 31.564C41.115 31.5468 40.7372 31.1346 40.763 30.6452C40.7801 30.1558 41.2009 29.778 41.6817 29.8037L45.1163 29.9583C45.3911 29.9669 45.6487 30.1128 45.8033 30.3361L51.8653 39.06C52.0199 39.2747 52.0628 39.5494 51.9856 39.807C51.9083 40.0646 51.728 40.2707 51.4789 40.3737L44.5324 43.3189L44.1375 51.7337C44.1117 52.206 43.7253 52.5752 43.2531 52.5752L43.2788 52.5666ZM44.7986 37.9438L44.7471 39.0772L45.3224 38.6994L44.7986 37.9438Z" fill="#192232"/>
<path d="M52.2344 31.8389L48.2846 30.2761H43.9742V28.5073H48.4563C48.568 28.5073 48.6796 28.5245 48.7826 28.5674L52.887 30.1903L52.243 31.8303L52.2344 31.8389Z" fill="#192232"/>
<path d="M56.1412 52.0433L54.527 51.322C55.6175 48.8748 56.4589 46.1185 57.1029 42.8728C57.1802 42.4864 57.4979 42.1945 57.8929 42.1602C58.2793 42.1258 58.6485 42.3576 58.7945 42.7269L60.8381 48.0934L64.5217 47.8015L64.4187 47.0888L63.1307 46.711C62.813 46.6166 62.5811 46.359 62.5125 46.0413L60.7007 37.1456L58.348 35.0677L59.5158 33.7454L62.0917 36.0208C62.2377 36.1496 62.3321 36.3213 62.3751 36.5016L64.1439 45.1654L65.4662 45.5518C65.8011 45.6463 66.0415 45.9296 66.093 46.2731L66.4107 48.4798C66.4451 48.7203 66.3764 48.9693 66.2304 49.1582C66.0844 49.3471 65.8526 49.4673 65.6122 49.4845L60.3401 49.9052C59.9451 49.9396 59.5844 49.7077 59.4471 49.3385L58.202 46.0842C57.6439 48.2652 56.9656 50.2315 56.1584 52.0347L56.1412 52.0433Z" fill="#192232"/>
<path d="M44.8329 52.5326L43.1156 52.1118L43.2702 51.4764C44.1803 47.7241 45.1248 43.843 45.0819 42.1858L46.8422 42.1343C46.8937 44.0319 45.9663 47.8443 44.9789 51.8886L44.8243 52.524L44.8329 52.5326Z" fill="#192232"/>
</g>
</svg>
