<svg width="400" height="296" viewBox="0 0 400 296" fill="none" xmlns="http://www.w3.org/2000/svg">
<path d="M304.714 258.784H292.028C291.84 258.443 291.665 258.094 291.504 257.74C290.044 254.614 289.427 251.126 288.837 247.708L287.88 242.156C290.94 244.381 293.998 246.605 297.055 248.827C298.052 249.552 299.07 250.309 300.027 251.126C302.043 252.835 303.782 254.811 304.464 257.32C304.499 257.46 304.534 257.6 304.561 257.74C304.633 258.084 304.684 258.433 304.714 258.784Z" fill="#F0F0F0"/>
<path d="M306.493 257.739C306.493 257.761 306.492 257.783 306.488 257.805C306.446 258.139 306.367 258.467 306.252 258.784H300.557C300.377 258.448 300.226 258.099 300.102 257.739C299.929 257.259 299.805 256.763 299.731 256.257C299.541 254.542 299.642 252.807 300.028 251.126C300.137 250.579 300.255 250.028 300.373 249.486L301.046 246.392L304.416 251.808C305.544 253.622 306.716 255.619 306.493 257.739Z" fill="#F0F0F0"/>
<path d="M349.566 52.978H50.4341C50.3181 52.9754 50.2077 52.9275 50.1266 52.8446C50.0454 52.7616 50 52.6502 50 52.5342C50 52.4181 50.0454 52.3067 50.1266 52.2238C50.2077 52.1408 50.3181 52.0929 50.4341 52.0903H349.566C349.682 52.0929 349.792 52.1408 349.873 52.2238C349.955 52.3067 350 52.4181 350 52.5342C350 52.6502 349.955 52.7616 349.873 52.8446C349.792 52.9275 349.682 52.9754 349.566 52.978Z" fill="#CACACA"/>
<path d="M60.2064 46.7642C62.8439 46.7642 64.982 44.5784 64.982 41.8821C64.982 39.1858 62.8439 37 60.2064 37C57.5688 37 55.4307 39.1858 55.4307 41.8821C55.4307 44.5784 57.5688 46.7642 60.2064 46.7642Z" fill="#3F3D56"/>
<path d="M76.7034 46.7642C79.341 46.7642 81.4791 44.5784 81.4791 41.8821C81.4791 39.1858 79.341 37 76.7034 37C74.0659 37 71.9277 39.1858 71.9277 41.8821C71.9277 44.5784 74.0659 46.7642 76.7034 46.7642Z" fill="#3F3D56"/>
<path d="M93.2015 46.7642C95.839 46.7642 97.9772 44.5784 97.9772 41.8821C97.9772 39.1858 95.839 37 93.2015 37C90.5639 37 88.4258 39.1858 88.4258 41.8821C88.4258 44.5784 90.5639 46.7642 93.2015 46.7642Z" fill="#3F3D56"/>
<path d="M339.681 39.9863H327.959C327.727 39.9811 327.506 39.8854 327.344 39.7195C327.182 39.5535 327.091 39.3307 327.091 39.0986C327.091 38.8665 327.182 38.6437 327.344 38.4777C327.506 38.3118 327.727 38.2161 327.959 38.2109H339.681C339.913 38.2161 340.134 38.3118 340.296 38.4777C340.459 38.6437 340.55 38.8665 340.55 39.0986C340.55 39.3307 340.459 39.5535 340.296 39.7195C340.134 39.8854 339.913 39.9811 339.681 39.9863Z" fill="#3F3D56"/>
<path d="M339.681 43.3154H327.959C327.727 43.3102 327.506 43.2145 327.344 43.0486C327.182 42.8826 327.091 42.6598 327.091 42.4277C327.091 42.1956 327.182 41.9728 327.344 41.8068C327.506 41.6409 327.727 41.5452 327.959 41.54H339.681C339.913 41.5452 340.134 41.6409 340.296 41.8068C340.459 41.9728 340.55 42.1956 340.55 42.4277C340.55 42.6598 340.459 42.8826 340.296 43.0486C340.134 43.2145 339.913 43.3102 339.681 43.3154Z" fill="#3F3D56"/>
<path d="M339.681 46.644H327.959C327.727 46.6388 327.506 46.5431 327.344 46.3772C327.182 46.2113 327.091 45.9884 327.091 45.7563C327.091 45.5242 327.182 45.3014 327.344 45.1355C327.506 44.9695 327.727 44.8738 327.959 44.8687H339.681C339.913 44.8738 340.134 44.9695 340.296 45.1355C340.459 45.3014 340.55 45.5242 340.55 45.7563C340.55 45.9884 340.459 46.2113 340.296 46.3772C340.134 46.5431 339.913 46.6388 339.681 46.644Z" fill="#3F3D56"/>
<path d="M305.462 203.969H78.339C75.9394 203.966 73.6388 203.012 71.942 201.315C70.2452 199.618 69.2908 197.318 69.2881 194.918V81.8838C69.2908 79.4842 70.2453 77.1837 71.9421 75.4869C73.6389 73.7901 75.9394 72.8357 78.339 72.833H305.462C307.861 72.8357 310.162 73.7901 311.859 75.4869C313.556 77.1837 314.51 79.4842 314.513 81.8838V194.918C314.51 197.318 313.556 199.618 311.859 201.315C310.162 203.012 307.861 203.966 305.462 203.969Z" fill="#F0F0F0"/>
<path d="M330.393 234.81H103.271C100.871 234.807 98.5705 233.853 96.8737 232.156C95.1769 230.459 94.2224 228.159 94.2197 225.759V112.725C94.2225 110.325 95.1769 108.025 96.8737 106.328C98.5705 104.631 100.871 103.677 103.271 103.674H330.393C332.793 103.677 335.094 104.631 336.79 106.328C338.487 108.024 339.442 110.325 339.444 112.725V225.759C339.442 228.159 338.487 230.459 336.79 232.156C335.094 233.853 332.793 234.807 330.393 234.81Z" fill="white"/>
<path d="M330.393 234.81H103.271C100.871 234.807 98.5705 233.853 96.8737 232.156C95.1769 230.459 94.2224 228.159 94.2197 225.759V112.725C94.2225 110.325 95.1769 108.025 96.8737 106.328C98.5705 104.631 100.871 103.677 103.271 103.674H330.393C332.793 103.677 335.094 104.631 336.79 106.328C338.487 108.024 339.442 110.325 339.444 112.725V225.759C339.442 228.159 338.487 230.459 336.79 232.156C335.094 233.853 332.793 234.807 330.393 234.81ZM103.271 104.985C101.219 104.988 99.2515 105.804 97.8006 107.255C96.3496 108.706 95.5334 110.673 95.5311 112.725V225.759C95.5334 227.811 96.3496 229.778 97.8005 231.229C99.2515 232.68 101.219 233.496 103.271 233.499H330.393C332.445 233.496 334.413 232.68 335.864 231.229C337.315 229.778 338.131 227.811 338.133 225.759V112.725C338.131 110.673 337.314 108.706 335.864 107.255C334.413 105.804 332.445 104.988 330.393 104.985H103.271Z" fill="#E4E4E4"/>
<path d="M120.712 215.02H302.327V183.892C302.299 180.609 301.616 177.366 300.318 174.351C299.02 171.336 297.133 168.611 294.767 166.335L294.718 166.287C291.474 163.032 280.633 154.772 269.417 155.473C263.492 155.841 258.42 158.697 254.341 163.96C241.644 180.347 224.965 174.815 216.153 170.06C208.387 165.867 200.456 163.9 192.579 164.213C181.547 164.644 166.019 168.709 154.695 185.621C150.37 192.075 140.964 200.836 120.712 205.985L120.712 215.02Z" fill="#3DAF5B"/>
<path d="M312.604 215.744H121.062C120.903 215.744 120.751 215.681 120.638 215.569C120.526 215.456 120.463 215.304 120.463 215.145V123.339C120.463 123.18 120.526 123.028 120.638 122.915C120.751 122.803 120.903 122.74 121.062 122.74C121.221 122.74 121.374 122.803 121.486 122.915C121.599 123.028 121.662 123.18 121.662 123.339V214.545H312.604C312.762 214.545 312.915 214.609 313.027 214.721C313.14 214.833 313.203 214.986 313.203 215.145C313.203 215.304 313.14 215.456 313.027 215.569C312.915 215.681 312.762 215.744 312.604 215.744Z" fill="#3F3D56"/>
<path d="M192.178 168.753C194.164 168.753 195.774 167.143 195.774 165.156C195.774 163.17 194.164 161.56 192.178 161.56C190.191 161.56 188.581 163.17 188.581 165.156C188.581 167.143 190.191 168.753 192.178 168.753Z" fill="#3F3D56"/>
<path d="M262.72 159.347C264.706 159.347 266.316 157.737 266.316 155.75C266.316 153.764 264.706 152.154 262.72 152.154C260.733 152.154 259.123 153.764 259.123 155.75C259.123 157.737 260.733 159.347 262.72 159.347Z" fill="#3F3D56"/>
<path d="M227.449 178.746C229.436 178.746 231.046 177.136 231.046 175.149C231.046 173.163 229.436 171.553 227.449 171.553C225.463 171.553 223.853 173.163 223.853 175.149C223.853 177.136 225.463 178.746 227.449 178.746Z" fill="#3F3D56"/>
<path d="M156.908 184.037C158.895 184.037 160.505 182.426 160.505 180.44C160.505 178.454 158.895 176.843 156.908 176.843C154.922 176.843 153.312 178.454 153.312 180.44C153.312 182.426 154.922 184.037 156.908 184.037Z" fill="#3F3D56"/>
<path d="M297.99 172.28C299.977 172.28 301.587 170.669 301.587 168.683C301.587 166.697 299.977 165.086 297.99 165.086C296.004 165.086 294.394 166.697 294.394 168.683C294.394 170.669 296.004 172.28 297.99 172.28Z" fill="#3F3D56"/>
</svg>
