<svg width="75" height="75" viewBox="0 0 75 75" fill="none" xmlns="http://www.w3.org/2000/svg">
<mask id="mask0_209_138" style="mask-type:luminance" maskUnits="userSpaceOnUse" x="8" y="10" width="60" height="56">
<path d="M68 10H8V65.492H68V10Z" fill="white"/>
</mask>
<g mask="url(#mask0_209_138)">
<path d="M63.5742 23.3389C63.1532 29.7004 56.5915 32.0006 55.4979 39.9742C55.426 40.5133 55.3849 40.9908 55.349 41.4478C54.9587 46.4589 55.8932 48.2354 55.7956 52.0862C55.7443 54.1604 55.6981 56.1064 54.6866 58.3809C54.2399 59.3923 52.8639 62.3292 49.4958 64.1313C48.7513 64.5267 45.3524 66.2364 41.286 65.1171C37.9486 64.1981 36.0438 61.8979 35.2069 60.8916C33.8155 59.2126 34.3392 59.3256 32.9221 57.1897C30.3087 53.2517 25.9651 51.7422 25.046 51.4238C20.7999 49.9503 18.5459 51.5727 14.8081 49.2571C13.8737 48.6821 13.2832 48.0916 12.8519 47.6295C8.82661 43.3167 9.86375 36.7653 10.1615 34.8707C10.3104 33.9208 10.942 30.373 13.54 26.3887C14.4641 24.9768 20.4046 15.8582 28.5579 15.7042C36.6702 15.5501 41.2654 24.3709 45.5321 22.1426C47.9452 20.8796 47.3856 17.5166 51.2928 15.5604C53.6957 14.359 55.8829 14.5233 56.3245 14.5644C56.9663 14.626 59.5078 14.8519 61.387 16.7208C63.7539 19.0723 63.6204 22.5585 63.5691 23.3492L63.5742 23.3389Z" fill="#3DAF5B"/>
<path d="M15.3011 58.3349C13.35 58.6121 11.3939 58.8894 9.44281 59.1718C9.5763 51.5216 9.70466 43.8766 9.83815 36.2264C11.5684 35.9851 13.3038 35.7489 15.0341 35.5076C15.3473 35.7129 15.6605 35.9132 15.9737 36.1186C16.0969 37.3559 16.2202 38.5933 16.3434 39.8307C18.546 39.6561 20.7486 39.4764 22.9513 39.3019C26.5145 39.9282 30.0778 40.5546 33.641 41.181C35.0683 42.2028 36.4957 43.2194 37.923 44.2411L47.4267 44.1179C47.8477 44.7289 48.2688 45.3398 48.6898 45.956C48.7719 47.0188 48.8541 48.0765 48.9362 49.1393C53.3158 47.7941 57.6954 46.4489 62.0699 45.0985C62.9684 45.4528 63.8669 45.8071 64.7603 46.1613C65.4945 46.911 66.2287 47.6554 66.9629 48.4051C65.9309 49.0314 64.8938 49.6578 63.8618 50.2842C52.3198 56.5943 43.1293 60.4913 39.3042 60.8918C37.6817 61.0612 36.4084 60.9329 36.4084 60.9329C33.872 60.6761 32.5474 59.7674 29.1895 58.4427C27.336 57.7136 27.8084 58.0166 24.9485 56.9743C18.926 54.7768 17.3086 53.601 16.1534 54.3968C15.6656 54.7357 14.9982 55.6085 15.3011 58.3452V58.3349Z" fill="white"/>
<path d="M39.5762 34.6654C45.9224 34.6654 51.0669 29.5209 51.0669 23.1747C51.0669 16.8286 45.9224 11.6841 39.5762 11.6841C33.2301 11.6841 28.0856 16.8286 28.0856 23.1747C28.0856 29.5209 33.2301 34.6654 39.5762 34.6654Z" fill="white"/>
<path d="M15.301 60.173H9.91511C8.85744 60.173 8 59.3156 8 58.2579V36.2264C8 35.1687 8.85744 34.3113 9.91511 34.3113H15.301C16.3587 34.3113 17.2162 35.1687 17.2162 36.2264V58.2579C17.2162 59.3156 16.3587 60.173 15.301 60.173ZM9.91511 36.1494C9.87404 36.1494 9.8381 36.1853 9.8381 36.2264V58.2579C9.8381 58.299 9.87404 58.3349 9.91511 58.3349H15.301C15.3421 58.3349 15.3781 58.299 15.3781 58.2579V36.2264C15.3781 36.1853 15.3421 36.1494 15.301 36.1494H9.91511Z" fill="#172233"/>
<path d="M26.9303 38.3672H17.0262V40.2053H26.9303V38.3672Z" fill="#172233"/>
<path d="M30.4114 50.8284C29.9082 50.8284 29.4975 50.4228 29.4924 49.9196C29.4872 49.4113 29.8928 48.9955 30.4011 48.9903L48.3406 48.7644H48.3508C48.854 48.7644 49.2647 49.17 49.2699 49.6732C49.275 50.1815 48.8694 50.5974 48.3611 50.6025L30.4217 50.8284H30.4114Z" fill="#172233"/>
<path d="M34.6627 61.4666C34.5651 61.4666 34.4676 61.4512 34.37 61.4204L16.7335 55.5518C16.2509 55.3927 15.989 54.869 16.1533 54.3915C16.3125 53.9089 16.8311 53.647 17.3137 53.8113L34.9502 59.6799C35.4328 59.839 35.6947 60.3627 35.5304 60.8402C35.402 61.2253 35.0426 61.4717 34.6575 61.4717L34.6627 61.4666Z" fill="#172233"/>
<path d="M40.8444 61.2563C40.4902 61.2563 40.1564 61.0509 40.0024 60.7069C39.797 60.2448 40.0075 59.7005 40.4748 59.4952L66.7113 47.9583C67.1785 47.7529 67.7176 47.9634 67.923 48.4306C68.1284 48.8927 67.9179 49.437 67.4506 49.6424L41.2141 61.1792C41.096 61.2306 40.9677 61.2563 40.8444 61.2563Z" fill="#172233"/>
<path d="M48.3457 50.6025C47.9658 50.6025 47.6115 50.3663 47.478 49.9915C47.3086 49.514 47.555 48.9851 48.0377 48.8157L61.0738 44.1742C61.5513 44.0048 62.0801 44.2513 62.2495 44.7339C62.419 45.2114 62.1725 45.7402 61.6899 45.9097L48.6538 50.5511C48.5511 50.5871 48.4484 50.6025 48.3457 50.6025Z" fill="#172233"/>
<path d="M67.081 49.709C66.5727 49.709 66.162 49.2982 66.162 48.7899C66.162 47.2599 63.9747 45.966 61.3819 45.966C60.8736 45.966 60.4628 45.5553 60.4628 45.047C60.4628 44.5387 60.8736 44.1279 61.3819 44.1279C65.094 44.1279 68.0001 46.1765 68.0001 48.7899C68.0001 49.2982 67.5893 49.709 67.081 49.709Z" fill="#172233"/>
<path d="M38.2362 45.0418H36.3981C36.3981 44.6054 35.5253 43.4297 33.184 42.1307C31.0378 40.9395 28.6401 40.2053 26.9304 40.2053V38.3672C28.9687 38.3672 31.6386 39.1733 34.0774 40.5236C35.6331 41.3862 38.2362 43.1165 38.2362 45.0418Z" fill="#172233"/>
<path d="M46.3331 43.2039H36.3981V45.042H46.3331V43.2039Z" fill="#172233"/>
<path d="M50.0349 49.858H48.1968C48.1968 45.0471 47.4164 45.0471 46.3331 45.0471V43.209C49.7577 43.209 50.0349 46.2228 50.0349 49.8631V49.858Z" fill="#172233"/>
<path d="M34.4008 61.405C37.0707 62.3087 40.023 61.9852 42.472 60.6195C43.504 60.0444 42.5799 58.4528 41.5427 59.033C39.4993 60.1728 37.1015 60.3833 34.8886 59.6337C34.4163 59.4745 33.8823 59.8185 33.7591 60.2755C33.6204 60.7786 33.9285 61.2459 34.4008 61.405Z" fill="#172233"/>
<path d="M39.5763 23.6472C36.968 23.6472 34.8475 21.5267 34.8475 18.9184C34.8475 16.3102 36.968 14.1897 39.5763 14.1897C42.1845 14.1897 44.305 16.3102 44.305 18.9184C44.305 21.5267 42.1845 23.6472 39.5763 23.6472ZM39.5763 16.0329C37.9846 16.0329 36.6856 17.3268 36.6856 18.9236C36.6856 20.5203 37.9795 21.8142 39.5763 21.8142C41.1731 21.8142 42.4669 20.5203 42.4669 18.9236C42.4669 17.3268 41.1731 16.0329 39.5763 16.0329Z" fill="#172233"/>
<path d="M33.0762 33.3511C32.5679 33.3511 32.1572 32.9403 32.1572 32.432C32.1572 27.1436 35.4175 22.8411 39.4274 22.8411C39.9357 22.8411 40.3465 23.2518 40.3465 23.7601C40.3465 24.2684 39.9357 24.6792 39.4274 24.6792C36.4289 24.6792 33.9953 28.1551 33.9953 32.4269C33.9953 32.9352 33.5845 33.3459 33.0762 33.3459V33.3511Z" fill="#172233"/>
<path d="M46.3638 33.3511C45.8555 33.3511 45.4448 32.9403 45.4448 32.432C45.4448 28.1602 43.0522 24.6843 40.1102 24.6843C39.6019 24.6843 39.1912 24.2735 39.1912 23.7652C39.1912 23.2569 39.6019 22.8462 40.1102 22.8462C44.0637 22.8462 47.2829 27.1488 47.2829 32.4372C47.2829 32.9455 46.8721 33.3562 46.3638 33.3562V33.3511Z" fill="#172233"/>
<path d="M39.5762 36.3546C32.3111 36.3546 26.4015 30.445 26.4015 23.1799C26.4015 15.9148 32.3111 10 39.5762 10C46.8413 10 52.751 15.9096 52.751 23.1747C52.751 30.4398 46.8413 36.3495 39.5762 36.3495V36.3546ZM39.5762 11.8432C33.3226 11.8432 28.2396 16.9314 28.2396 23.1799C28.2396 29.4284 33.3277 34.5165 39.5762 34.5165C45.8247 34.5165 50.9129 29.4284 50.9129 23.1799C50.9129 16.9314 45.8299 11.8381 39.5762 11.8381V11.8432Z" fill="#172233"/>
</g>
</svg>
