<svg width="168" height="48" viewBox="0 0 168 48" fill="none" xmlns="http://www.w3.org/2000/svg">
<path d="M24.5 12.75C24.5 18.9632 19.4632 24 13.25 24H2V12.75C2 6.53679 7.03679 1.5 13.25 1.5C19.4632 1.5 24.5 6.53679 24.5 12.75Z" fill="#3DAF5B"/>
<path d="M24.5 35.25C24.5 29.0368 29.5368 24 35.75 24H47V35.25C47 41.4632 41.9632 46.5 35.75 46.5C29.5368 46.5 24.5 41.4632 24.5 35.25Z" fill="#3DAF5B"/>
<path d="M2 35.25C2 41.4632 7.03679 46.5 13.25 46.5H24.5V35.25C24.5 29.0368 19.4632 24 13.25 24C7.03679 24 2 29.0368 2 35.25Z" fill="#3DAF5B"/>
<path d="M47 12.75C47 6.53679 41.9632 1.5 35.75 1.5H24.5V12.75C24.5 18.9632 29.5368 24 35.75 24C41.9632 24 47 18.9632 47 12.75Z" fill="#3DAF5B"/>
<path d="M65.002 34V15.852H77.352V19.362H68.954V23.08H76.156V26.564H68.954V30.49H77.352V34H65.002ZM85.215 34.312C83.8976 34.312 82.7883 34.104 81.887 33.688C80.9856 33.2547 80.1796 32.648 79.469 31.868L81.731 29.58C82.2163 30.1173 82.7536 30.542 83.343 30.854C83.9323 31.166 84.5996 31.322 85.345 31.322C86.1076 31.322 86.6363 31.2093 86.931 30.984C87.2256 30.7413 87.373 30.4207 87.373 30.022C87.373 29.3807 86.9136 28.9993 85.995 28.878L84.513 28.696C81.445 28.3147 79.911 26.9107 79.911 24.484C79.911 23.8253 80.0323 23.2273 80.275 22.69C80.535 22.1353 80.8903 21.6673 81.341 21.286C81.809 20.8873 82.3636 20.584 83.005 20.376C83.6636 20.1507 84.4003 20.038 85.215 20.038C85.9256 20.038 86.5496 20.09 87.087 20.194C87.6416 20.2807 88.127 20.4193 88.543 20.61C88.9763 20.7833 89.3663 21.0087 89.713 21.286C90.077 21.546 90.4323 21.8407 90.779 22.17L88.569 24.432C88.1356 23.9987 87.6416 23.6607 87.087 23.418C86.5496 23.158 85.995 23.028 85.423 23.028C84.7643 23.028 84.2963 23.132 84.019 23.34C83.7416 23.548 83.603 23.8253 83.603 24.172C83.603 24.536 83.6983 24.822 83.889 25.03C84.097 25.2207 84.4783 25.3593 85.033 25.446L86.567 25.654C89.5656 26.0527 91.065 27.422 91.065 29.762C91.065 30.4207 90.9263 31.0273 90.649 31.582C90.3716 32.1367 89.973 32.622 89.453 33.038C88.9503 33.4367 88.335 33.7487 87.607 33.974C86.8963 34.1993 86.099 34.312 85.215 34.312ZM98.1388 34.312C96.8215 34.312 95.7121 34.104 94.8108 33.688C93.9095 33.2547 93.1035 32.648 92.3928 31.868L94.6548 29.58C95.1401 30.1173 95.6775 30.542 96.2668 30.854C96.8561 31.166 97.5235 31.322 98.2688 31.322C99.0315 31.322 99.5601 31.2093 99.8548 30.984C100.149 30.7413 100.297 30.4207 100.297 30.022C100.297 29.3807 99.8375 28.9993 98.9188 28.878L97.4368 28.696C94.3688 28.3147 92.8348 26.9107 92.8348 24.484C92.8348 23.8253 92.9561 23.2273 93.1988 22.69C93.4588 22.1353 93.8141 21.6673 94.2648 21.286C94.7328 20.8873 95.2875 20.584 95.9288 20.376C96.5875 20.1507 97.3241 20.038 98.1388 20.038C98.8495 20.038 99.4735 20.09 100.011 20.194C100.565 20.2807 101.051 20.4193 101.467 20.61C101.9 20.7833 102.29 21.0087 102.637 21.286C103.001 21.546 103.356 21.8407 103.703 22.17L101.493 24.432C101.059 23.9987 100.565 23.6607 100.011 23.418C99.4735 23.158 98.9188 23.028 98.3468 23.028C97.6881 23.028 97.2201 23.132 96.9428 23.34C96.6655 23.548 96.5268 23.8253 96.5268 24.172C96.5268 24.536 96.6221 24.822 96.8128 25.03C97.0208 25.2207 97.4021 25.3593 97.9568 25.446L99.4908 25.654C102.489 26.0527 103.989 27.422 103.989 29.762C103.989 30.4207 103.85 31.0273 103.573 31.582C103.295 32.1367 102.897 32.622 102.377 33.038C101.874 33.4367 101.259 33.7487 100.531 33.974C99.8201 34.1993 99.0228 34.312 98.1388 34.312ZM112.306 34.312C111.266 34.312 110.339 34.1473 109.524 33.818C108.71 33.4713 108.016 32.9947 107.444 32.388C106.89 31.764 106.465 31.01 106.17 30.126C105.893 29.242 105.754 28.254 105.754 27.162C105.754 26.0873 105.893 25.1167 106.17 24.25C106.448 23.366 106.855 22.612 107.392 21.988C107.947 21.364 108.623 20.8873 109.42 20.558C110.218 20.2113 111.128 20.038 112.15 20.038C113.277 20.038 114.239 20.2287 115.036 20.61C115.851 20.9913 116.51 21.5027 117.012 22.144C117.532 22.7853 117.905 23.5307 118.13 24.38C118.373 25.212 118.494 26.0873 118.494 27.006V28.15H109.732V28.358C109.732 29.2593 109.975 29.9787 110.46 30.516C110.946 31.036 111.708 31.296 112.748 31.296C113.546 31.296 114.196 31.14 114.698 30.828C115.201 30.4987 115.669 30.1087 116.102 29.658L118.026 32.05C117.42 32.7607 116.622 33.3153 115.634 33.714C114.664 34.1127 113.554 34.312 112.306 34.312ZM112.228 22.872C111.448 22.872 110.833 23.132 110.382 23.652C109.949 24.1547 109.732 24.8307 109.732 25.68V25.888H114.516V25.654C114.516 24.822 114.326 24.1547 113.944 23.652C113.58 23.132 113.008 22.872 112.228 22.872ZM121.212 34V20.35H125.06V22.664H125.216C125.459 21.9533 125.883 21.338 126.49 20.818C127.097 20.298 127.937 20.038 129.012 20.038C130.416 20.038 131.473 20.506 132.184 21.442C132.912 22.378 133.276 23.7127 133.276 25.446V34H129.428V25.758C129.428 24.874 129.289 24.224 129.012 23.808C128.735 23.3747 128.241 23.158 127.53 23.158C127.218 23.158 126.915 23.2013 126.62 23.288C126.325 23.3573 126.057 23.4787 125.814 23.652C125.589 23.8253 125.407 24.042 125.268 24.302C125.129 24.5447 125.06 24.8307 125.06 25.16V34H121.212ZM141.484 34C140.15 34 139.136 33.662 138.442 32.986C137.766 32.31 137.428 31.322 137.428 30.022V23.34H135.504V20.35H136.466C136.986 20.35 137.342 20.2287 137.532 19.986C137.723 19.726 137.818 19.362 137.818 18.894V16.658H141.276V20.35H143.98V23.34H141.276V31.01H143.772V34H141.484ZM148.577 18.894C147.797 18.894 147.225 18.7207 146.861 18.374C146.515 18.01 146.341 17.5507 146.341 16.996V16.424C146.341 15.8693 146.515 15.4187 146.861 15.072C147.225 14.708 147.797 14.526 148.577 14.526C149.357 14.526 149.921 14.708 150.267 15.072C150.631 15.4187 150.813 15.8693 150.813 16.424V16.996C150.813 17.5507 150.631 18.01 150.267 18.374C149.921 18.7207 149.357 18.894 148.577 18.894ZM146.653 20.35H150.501V34H146.653V20.35ZM164.181 34C163.487 34 162.907 33.7833 162.439 33.35C161.988 32.9167 161.702 32.336 161.581 31.608H161.425C161.217 32.492 160.757 33.168 160.047 33.636C159.336 34.0867 158.461 34.312 157.421 34.312C156.051 34.312 155.003 33.948 154.275 33.22C153.547 32.492 153.183 31.53 153.183 30.334C153.183 28.8953 153.703 27.8293 154.743 27.136C155.8 26.4253 157.23 26.07 159.033 26.07H161.191V25.212C161.191 24.5533 161.017 24.0333 160.671 23.652C160.324 23.2533 159.743 23.054 158.929 23.054C158.166 23.054 157.559 23.2187 157.109 23.548C156.658 23.8773 156.285 24.25 155.991 24.666L153.703 22.638C154.257 21.8233 154.951 21.1907 155.783 20.74C156.632 20.272 157.776 20.038 159.215 20.038C161.156 20.038 162.612 20.4627 163.583 21.312C164.553 22.1613 165.039 23.4007 165.039 25.03V31.01H166.313V34H164.181ZM158.851 31.634C159.492 31.634 160.038 31.4953 160.489 31.218C160.957 30.9407 161.191 30.49 161.191 29.866V28.254H159.319C157.811 28.254 157.057 28.7653 157.057 29.788V30.178C157.057 30.6807 157.213 31.0533 157.525 31.296C157.837 31.5213 158.279 31.634 158.851 31.634Z" fill="#3DAF5B"/>
</svg>
