<svg width="180" height="180" viewBox="0 0 180 180" fill="none" xmlns="http://www.w3.org/2000/svg">
<path d="M89.5714 62.7597C89.5714 77.5387 77.579 89.5194 62.7857 89.5194H36V62.7597C36 47.9807 47.9924 36 62.7857 36C77.579 36 89.5714 47.9807 89.5714 62.7597Z" fill="#3DAF5B"/>
<path d="M89.5713 116.279C89.5713 101.5 101.564 89.5195 116.357 89.5195H143.143V116.279C143.143 131.058 131.15 143.039 116.357 143.039C101.564 143.039 89.5713 131.058 89.5713 116.279Z" fill="#3DAF5B"/>
<path d="M36 116.279C36 131.058 47.9924 143.039 62.7857 143.039H89.5714V116.279C89.5714 101.5 77.579 89.5195 62.7857 89.5195C47.9924 89.5195 36 101.5 36 116.279Z" fill="#3DAF5B"/>
<path d="M143.143 62.7597C143.143 47.9807 131.15 36 116.357 36H89.5713V62.7597C89.5713 77.5387 101.564 89.5194 116.357 89.5194C131.15 89.5194 143.143 77.5387 143.143 62.7597Z" fill="#3DAF5B"/>
</svg>
