<svg width="75" height="75" viewBox="0 0 75 75" fill="none" xmlns="http://www.w3.org/2000/svg">
<mask id="mask0_209_104" style="mask-type:luminance" maskUnits="userSpaceOnUse" x="7" y="7" width="62" height="61">
<path d="M68.9 7H7V67.8H68.9V7Z" fill="white"/>
</mask>
<g mask="url(#mask0_209_104)">
<path d="M10.83 17.33C13.42 15.94 17.19 16.25 17.19 16.25C17.19 16.25 25.22 17.01 34.58 15.65C36.46 15.38 38.93 15.02 42.09 14.08C43.45 13.68 44.26 13.36 45.67 12.92C46.48 12.66 47.18 12.46 47.46 12.38C49.45 11.8 51.96 11.07 54.08 11.05C58.34 11.01 61.4 13.82 61.61 14.01C63.79 16.04 64.53 18.46 64.73 19.24C64.97 20.16 65.05 20.96 65.08 21.62C65.26 26.02 63.38 29.14 62.66 32.41C61.7 36.8 63.01 40.62 63.95 43.26C65.62 47.96 68.27 50.6 68.82 55.85C68.9 56.62 68.96 57.68 68.73 58.95C68.57 59.84 67.93 62.8 65.31 65.11C63.38 66.81 61.33 67.33 60.49 67.52C54.85 68.79 49.66 65.45 48.54 64.73C46.92 63.69 46.49 63.04 44.14 61.69C43.28 61.19 41.53 60.2 39.18 59.37C34.22 57.62 32.23 58.46 29.05 56.41C28.64 56.15 27.71 55.43 26.78 54.27C22.94 49.48 25.48 44.56 21.29 39.34C20.97 38.94 20.68 38.65 20.11 38.05C17.55 35.4 14.87 33.45 12.66 31.85C11.59 31.08 10.93 30.63 10.05 29.75C9.31001 29.01 8.52001 28.22 7.90001 26.96C7.63001 26.42 6.68001 24.48 7.10001 22.47C7.24001 21.8 7.60001 20.81 8.14001 19.86C8.21001 19.73 8.28001 19.63 8.32001 19.56C8.32001 19.56 9.19001 18.21 10.82 17.34L10.83 17.33Z" fill="#3DAF5B"/>
<path d="M57.81 12.1201H16.73V62.4401H57.81V12.1201Z" fill="white"/>
<path d="M56.49 10.96H47.25V9.64C47.25 8.94 46.97 8.27 46.48 7.77C45.99 7.27 45.31 7 44.61 7H31.41C30.71 7 30.04 7.28 29.54 7.77C29.04 8.26 28.77 8.94 28.77 9.64V10.96H19.53C18.48 10.96 17.47 11.38 16.73 12.12C15.99 12.86 15.57 13.87 15.57 14.92V61.12C15.57 62.17 15.99 63.18 16.73 63.92C17.47 64.66 18.48 65.08 19.53 65.08H56.49C57.54 65.08 58.55 64.66 59.29 63.92C60.03 63.18 60.45 62.17 60.45 61.12V14.92C60.45 13.87 60.03 12.86 59.29 12.12C58.55 11.38 57.54 10.96 56.49 10.96ZM31.41 12.28V9.64H44.61V13.6H31.41V12.28ZM57.81 61.12C57.81 61.47 57.67 61.81 57.42 62.05C57.17 62.3 56.84 62.44 56.49 62.44H19.53C18.8 62.44 18.21 61.85 18.21 61.12V14.92C18.21 14.19 18.8 13.6 19.53 13.6H28.77C28.77 14.3 29.05 14.97 29.54 15.47C30.04 15.97 30.71 16.24 31.41 16.24H44.61C45.31 16.24 45.98 15.96 46.48 15.47C46.98 14.97 47.25 14.3 47.25 13.6H56.49C56.84 13.6 57.18 13.74 57.42 13.99C57.67 14.24 57.81 14.57 57.81 14.92V61.12Z" fill="#192232"/>
<path d="M51.54 25.48H36.06C35.33 25.48 34.74 26.07 34.74 26.8C34.74 27.53 35.33 28.12 36.06 28.12H51.54C52.27 28.12 52.86 27.53 52.86 26.8C52.86 26.07 52.27 25.48 51.54 25.48Z" fill="#192232"/>
<path d="M29.93 21.8999L26.3 25.4799L25.42 24.5999C25.17 24.3499 24.83 24.2099 24.48 24.2099C24.13 24.2099 23.79 24.3499 23.54 24.5999C23.03 25.1099 23.03 25.9499 23.54 26.4599L25.37 28.2799C25.88 28.7899 26.72 28.7899 27.23 28.2799L31.8 23.7299C32.32 23.2099 32.32 22.3699 31.8 21.8599C31.28 21.3499 30.44 21.3399 29.93 21.8599V21.9099V21.8999Z" fill="#192232"/>
<path d="M51.54 38.3701H36.06C35.33 38.3701 34.74 38.9601 34.74 39.6901C34.74 40.4201 35.33 41.0101 36.06 41.0101H51.54C52.27 41.0101 52.86 40.4201 52.86 39.6901C52.86 38.9601 52.27 38.3701 51.54 38.3701Z" fill="#192232"/>
<path d="M29.93 34.81L26.3 38.43L25.42 37.55C25.17 37.3 24.83 37.16 24.48 37.16C24.13 37.16 23.79 37.3 23.54 37.55C23.03 38.06 23.03 38.9 23.54 39.41L25.37 41.23C25.88 41.74 26.72 41.74 27.23 41.23L31.8 36.68C32.31 36.16 32.31 35.33 31.8 34.81C31.28 34.3 30.45 34.3 29.93 34.81Z" fill="#192232"/>
<path d="M51.54 51.28H36.06C35.33 51.28 34.74 51.87 34.74 52.6C34.74 53.33 35.33 53.92 36.06 53.92H51.54C52.27 53.92 52.86 53.33 52.86 52.6C52.86 51.87 52.27 51.28 51.54 51.28Z" fill="#192232"/>
<path d="M29.93 47.71L26.3 51.34L25.42 50.44C24.9 49.91 24.05 49.9 23.52 50.41C22.99 50.93 22.98 51.78 23.49 52.31L25.32 54.13C25.83 54.64 26.67 54.64 27.18 54.13L31.75 49.56C32.26 49.05 32.26 48.21 31.75 47.7C31.24 47.21 30.44 47.21 29.93 47.7V47.71Z" fill="#192232"/>
</g>
</svg>
