<svg width="909" height="453" viewBox="0 0 909 453" fill="none" xmlns="http://www.w3.org/2000/svg">
<path d="M278.932 348.884C299.905 348.884 316.907 331.883 316.907 310.91C316.907 289.937 299.905 272.935 278.932 272.935C257.959 272.935 240.957 289.937 240.957 310.91C240.957 331.883 257.959 348.884 278.932 348.884Z" fill="#F6F6F6"/>
<path opacity="0.2" d="M250.893 285.546C247.351 293.832 246.87 303.107 249.537 311.715C252.204 320.322 257.845 327.701 265.452 332.532C273.058 337.364 282.135 339.333 291.06 338.088C299.985 336.844 308.176 332.466 314.17 325.737C312.007 330.8 308.768 335.331 304.679 339.018C300.59 342.704 295.749 345.457 290.49 347.087C285.231 348.716 279.681 349.183 274.224 348.455C268.767 347.726 263.534 345.82 258.887 342.869C254.239 339.917 250.289 335.99 247.311 331.36C244.332 326.73 242.395 321.508 241.634 316.056C240.874 310.603 241.308 305.05 242.907 299.782C244.506 294.514 247.231 289.656 250.893 285.546Z" fill="black"/>
<path d="M279.036 310.91H279.139L281.017 418.575H277.053L279.036 310.91Z" fill="#242424"/>
<path d="M202.097 278.067C244.382 278.067 278.661 243.788 278.661 201.503C278.661 159.218 244.382 124.938 202.097 124.938C159.811 124.938 125.532 159.218 125.532 201.503C125.532 243.788 159.811 278.067 202.097 278.067Z" fill="#F6F6F6"/>
<path opacity="0.2" d="M145.565 150.364C138.423 167.07 137.454 185.77 142.832 203.125C148.209 220.479 159.582 235.356 174.918 245.097C190.254 254.838 208.554 258.809 226.548 256.299C244.543 253.789 261.058 244.963 273.144 231.397C268.781 241.604 262.251 250.74 254.007 258.172C245.763 265.605 236.002 271.156 225.399 274.442C214.797 277.727 203.607 278.668 192.605 277.2C181.602 275.731 171.051 271.888 161.681 265.937C152.312 259.986 144.348 252.068 138.342 242.734C132.336 233.399 128.431 222.871 126.898 211.877C125.365 200.884 126.24 189.688 129.464 179.067C132.687 168.445 138.181 158.651 145.565 150.364Z" fill="black"/>
<path d="M202.308 201.502H202.518L206.305 418.575H198.312L202.308 201.502Z" fill="#242424"/>
<path d="M706.888 306.219H355.95V410.252H706.888V306.219Z" fill="#F0F0F0"/>
<path d="M551.879 327.719H510.959V410.252H551.879V327.719Z" fill="#CACACA"/>
<path d="M686.428 183.46H376.41V279.171H686.428V183.46Z" fill="#F0F0F0"/>
<path d="M717.858 189.356H344.979C344.357 189.356 343.749 189.17 343.233 188.821C342.717 188.473 342.317 187.978 342.084 187.401C341.852 186.823 341.797 186.189 341.928 185.581C342.058 184.972 342.368 184.416 342.817 183.985L444.725 86.03V43.363C444.726 42.5355 445.055 41.7422 445.64 41.1571C446.225 40.572 447.018 40.2429 447.846 40.242H467.959C468.786 40.2429 469.579 40.572 470.165 41.1571C470.75 41.7422 471.079 42.5355 471.08 43.363V60.6977L478.777 53.2989C491.373 41.1915 508.084 34.3001 525.553 34.0096C543.022 33.7191 559.954 40.0511 572.945 51.733L719.945 183.914C720.414 184.336 720.745 184.891 720.892 185.504C721.04 186.118 720.998 186.763 720.772 187.352C720.546 187.942 720.147 188.449 719.626 188.806C719.106 189.164 718.49 189.356 717.858 189.356Z" fill="#CACACA"/>
<path d="M458.249 207.735C460.844 207.735 463.415 208.246 465.813 209.239C468.211 210.233 470.39 211.689 472.226 213.524C474.061 215.36 475.517 217.539 476.51 219.937C477.504 222.335 478.015 224.905 478.015 227.501V254.203H438.482V227.501C438.482 224.905 438.994 222.335 439.987 219.937C440.98 217.539 442.436 215.36 444.272 213.524C446.107 211.689 448.286 210.233 450.684 209.239C453.083 208.246 455.653 207.735 458.249 207.735Z" fill="white"/>
<path d="M531.42 208.082C536.662 208.082 541.689 210.164 545.396 213.871C549.103 217.578 551.186 222.605 551.186 227.848V254.55H511.653V227.848C511.653 222.605 513.736 217.578 517.443 213.871C521.15 210.164 526.177 208.082 531.42 208.082Z" fill="white"/>
<path d="M604.59 208.429C609.832 208.429 614.859 210.511 618.566 214.218C622.273 217.925 624.356 222.953 624.356 228.195V254.897H584.823V228.195C584.823 222.953 586.906 217.925 590.613 214.218C594.32 210.511 599.347 208.429 604.59 208.429Z" fill="white"/>
<path d="M633.718 326.68C638.961 326.68 643.988 328.762 647.695 332.469C651.402 336.176 653.485 341.204 653.485 346.446V373.148H613.952V346.446C613.952 341.204 616.035 336.176 619.742 332.469C623.448 328.762 628.476 326.68 633.718 326.68Z" fill="white"/>
<path d="M438.136 326.68C443.379 326.68 448.406 328.762 452.113 332.469C455.82 336.176 457.903 341.204 457.903 346.446V373.148H418.37V346.446C418.37 343.85 418.881 341.28 419.875 338.882C420.868 336.484 422.324 334.305 424.16 332.469C425.995 330.634 428.174 329.178 430.572 328.184C432.97 327.191 435.541 326.68 438.136 326.68Z" fill="white"/>
<path d="M758.158 307.843L692.326 278.714C691.973 278.558 691.59 278.477 691.204 278.477H377.46C377.101 278.477 376.747 278.546 376.415 278.681L304.757 307.81C304.161 308.053 303.668 308.495 303.361 309.061C303.055 309.627 302.955 310.281 303.079 310.913C303.202 311.544 303.541 312.113 304.038 312.522C304.535 312.931 305.158 313.155 305.802 313.155H324.393V408.865H322.313V418.575H740.525V408.865H737.057V313.155H757.036C757.672 313.155 758.289 312.936 758.783 312.535C759.277 312.135 759.618 311.576 759.75 310.954C759.882 310.332 759.795 309.683 759.505 309.117C759.216 308.55 758.74 308.101 758.158 307.843ZM731.509 408.865H329.942V313.155H731.509V408.865Z" fill="#CACACA"/>
<path d="M482.871 250.388H432.241V258.711H482.871V250.388Z" fill="#CACACA"/>
<path d="M557.081 250.388H506.451V258.711H557.081V250.388Z" fill="#CACACA"/>
<path d="M631.291 250.388H580.661V258.711H631.291V250.388Z" fill="#CACACA"/>
<path d="M659.033 370.374H608.403V378.696H659.033V370.374Z" fill="#CACACA"/>
<path d="M462.758 370.374H412.129V378.696H462.758V370.374Z" fill="#CACACA"/>
<path d="M839.7 419H68.8499C68.6245 419 68.4083 418.911 68.2489 418.751C68.0895 418.592 68 418.376 68 418.15C68 417.925 68.0895 417.709 68.2489 417.549C68.4083 417.39 68.6245 417.3 68.8499 417.3H839.7C839.925 417.3 840.141 417.39 840.301 417.549C840.46 417.709 840.55 417.925 840.55 418.15C840.55 418.376 840.46 418.592 840.301 418.751C840.141 418.911 839.925 419 839.7 419Z" fill="#3F3D56"/>
<path d="M645.812 182.034C645.812 182.578 645.804 183.13 645.795 183.674C645.787 184.329 645.77 184.975 645.744 185.629C645.719 186.198 645.693 186.759 645.659 187.32C645.557 189.199 645.396 191.068 645.175 192.947C645.124 193.422 645.065 193.89 644.996 194.366C644.945 194.731 644.894 195.105 644.835 195.479C644.775 195.896 644.716 196.312 644.648 196.729C644.512 197.612 644.359 198.496 644.189 199.38C644.104 199.822 644.019 200.264 643.926 200.706C643.747 201.581 643.552 202.465 643.348 203.341C643.331 203.409 643.314 203.485 643.297 203.553C643.195 203.987 643.093 204.412 642.982 204.845C642.948 204.972 642.923 205.092 642.88 205.219C642.804 205.542 642.719 205.865 642.634 206.188C642.515 206.638 642.396 207.08 642.268 207.531C642.064 208.228 641.86 208.916 641.648 209.613C641.621 209.685 641.599 209.759 641.58 209.834C641.172 211.151 640.739 212.452 640.263 213.743C640.016 214.423 639.753 215.112 639.489 215.792C639.226 216.471 638.954 217.151 638.673 217.823C638.401 218.477 638.121 219.132 637.841 219.778C637.772 219.931 637.704 220.084 637.628 220.236C637.331 220.908 637.024 221.562 636.71 222.217C636.702 222.225 636.702 222.242 636.693 222.251C636.447 222.778 636.183 223.305 635.92 223.823C635.919 223.839 635.913 223.854 635.903 223.865C635.648 224.375 635.384 224.885 635.112 225.387L634.679 226.211L634.628 226.305C634.084 227.316 633.523 228.319 632.928 229.313C632.801 229.534 632.673 229.755 632.546 229.968C632.418 230.189 632.282 230.41 632.146 230.622C632.061 230.775 631.968 230.928 631.866 231.081C631.687 231.37 631.509 231.667 631.322 231.956C631.288 232.016 631.245 232.075 631.211 232.135C630.888 232.636 630.565 233.129 630.242 233.631C629.843 234.234 629.435 234.829 629.019 235.424L619.789 250.195L619.389 249.864L619.279 249.762H619.27L618.905 249.456L617.902 248.606C617.596 248.903 617.299 249.201 616.992 249.49C616.874 249.609 616.746 249.719 616.627 249.838C616.534 249.923 616.449 250.008 616.355 250.093C600.398 265.676 579.173 274.699 556.88 275.377H556.855C539.979 275.841 523.273 271.898 508.385 263.938C508.054 263.768 507.731 263.598 507.408 263.402C505.47 262.348 503.575 261.235 501.714 260.045C501.705 260.037 501.697 260.037 501.688 260.028C499.529 258.498 497.422 256.866 495.365 255.133C484.331 245.832 475.602 234.102 469.861 220.862C464.121 207.622 461.525 193.232 462.279 178.821C462.304 178.252 462.338 177.691 462.381 177.121C462.517 175.065 462.726 173.016 463.01 170.977C463.086 170.407 463.171 169.838 463.256 169.277H644.945C645.302 171.878 645.549 174.492 645.685 177.121C645.77 178.762 645.812 180.394 645.812 182.034Z" fill="#F0F0F0"/>
<path d="M644.945 169.277C641.674 147.525 630.706 127.668 614.035 113.317C597.364 98.9653 576.097 91.0723 554.1 91.0723C532.103 91.0723 510.836 98.9653 494.165 113.317C477.494 127.668 466.526 147.525 463.255 169.277C463.17 169.838 463.085 170.408 463.009 170.977C462.729 173.017 462.519 175.065 462.38 177.122H645.684C645.548 174.496 645.302 171.881 644.945 169.277Z" fill="#3DAF5B"/>
<path d="M560.05 263.935H507.41V221.826C508.381 202.582 524.829 201.028 540.284 202.061C542.88 202.06 545.45 202.571 547.848 203.565C550.247 204.558 552.426 206.014 554.261 207.849C556.097 209.685 557.552 211.864 558.546 214.262C559.539 216.66 560.05 219.23 560.05 221.826V263.935Z" fill="#3DAF5B"/>
<path d="M507.408 233.997V234.005C507.408 234.013 507.416 234.013 507.425 234.013L507.408 233.997ZM486.237 169.277C486.203 169.49 486.161 169.702 486.127 169.915C486.161 169.702 486.203 169.49 486.246 169.277H486.237ZM485.183 177.122C485.158 177.445 485.132 177.768 485.115 178.091C485.132 177.768 485.158 177.445 485.192 177.122C485.19 177.062 485.193 177.003 485.2 176.943C485.192 177.003 485.192 177.062 485.183 177.122ZM507.408 234.005C507.408 234.013 507.416 234.013 507.425 234.013L507.408 233.997V234.005ZM486.237 169.277C486.203 169.49 486.161 169.702 486.127 169.915C486.161 169.702 486.203 169.49 486.246 169.277H486.237ZM485.115 178.091C485.132 177.768 485.158 177.445 485.192 177.122C485.19 177.062 485.193 177.003 485.2 176.943C485.192 177.003 485.192 177.062 485.183 177.122C485.158 177.445 485.132 177.768 485.115 178.091ZM747.68 334.436C747.515 334.261 747.339 334.097 747.153 333.943L747.145 333.935L705.058 298.418L703.97 297.5L699.831 294.007L698.794 293.132L692.896 288.151L691.281 286.792L687.941 283.97L686.233 282.525L670.119 268.935L660.881 261.142L659.64 260.097L632.418 237.124C632.835 236.529 633.243 235.934 633.642 235.331C633.965 234.829 634.288 234.336 634.611 233.835C634.645 233.776 634.687 233.716 634.721 233.656C634.908 233.367 635.087 233.07 635.265 232.781C635.367 232.628 635.461 232.475 635.546 232.322C635.682 232.11 635.818 231.889 635.945 231.668C636.073 231.455 636.2 231.234 636.327 231.013C636.923 230.019 637.483 229.016 638.027 228.005L638.078 227.911L638.512 227.087C638.784 226.585 639.047 226.076 639.302 225.566C639.313 225.554 639.319 225.539 639.319 225.523C639.583 225.005 639.846 224.478 640.093 223.951C640.101 223.942 640.101 223.925 640.11 223.917C640.424 223.262 640.73 222.608 641.028 221.937C641.104 221.784 641.172 221.631 641.24 221.478C641.52 220.832 641.801 220.177 642.073 219.523C642.353 218.852 642.625 218.172 642.889 217.492C643.152 216.812 643.416 216.123 643.662 215.443C644.13 214.143 644.569 212.84 644.98 211.534C644.998 211.459 645.021 211.385 645.048 211.313C645.26 210.616 645.464 209.928 645.668 209.231C645.795 208.78 645.914 208.338 646.033 207.888C646.118 207.565 646.203 207.242 646.28 206.919C646.322 206.792 646.348 206.673 646.382 206.545C646.492 206.112 646.594 205.687 646.696 205.253C646.713 205.185 646.73 205.109 646.747 205.041C646.951 204.165 647.147 203.282 647.325 202.406C647.419 201.964 647.504 201.522 647.588 201.08C647.75 200.197 647.912 199.313 648.047 198.429C648.115 198.012 648.175 197.596 648.235 197.179C648.294 196.805 648.345 196.431 648.396 196.066C648.464 195.59 648.523 195.123 648.574 194.647C648.795 192.768 648.957 190.899 649.059 189.02C649.093 188.459 649.119 187.899 649.144 187.329C649.169 186.675 649.186 186.029 649.195 185.374C649.203 184.83 649.212 184.278 649.212 183.734C649.212 182.094 649.169 180.462 649.084 178.822C648.948 176.196 648.702 173.581 648.345 170.977C645.3 148.723 634.348 128.307 617.49 113.462C600.633 98.6173 578.996 90.3347 556.535 90.1285C534.074 89.9222 512.289 97.8059 495.162 112.339C478.035 126.871 466.709 147.082 463.256 169.277C463.171 169.838 463.086 170.408 463.01 170.977C462.729 173.017 462.52 175.065 462.381 177.122C462.338 177.691 462.304 178.252 462.279 178.822C461.525 193.233 464.121 207.623 469.861 220.863C475.602 234.102 484.331 245.833 495.365 255.133C497.422 256.867 499.529 258.499 501.688 260.029C501.697 260.037 501.705 260.037 501.714 260.046C502.436 260.556 503.158 261.057 503.889 261.55C505.054 262.315 506.226 263.063 507.408 263.777C507.501 263.828 507.595 263.887 507.688 263.938C508.708 264.55 509.737 265.136 510.765 265.706H510.773C514.602 267.811 518.575 269.64 522.663 271.179C534.659 275.692 547.453 277.7 560.254 277.077H560.279C575.221 276.355 589.769 272.049 602.697 264.525C604.576 263.437 606.428 262.272 608.239 261.031C608.689 260.726 609.148 260.411 609.59 260.097C610.134 259.714 610.678 259.315 611.222 258.915C611.23 258.915 611.23 258.907 611.239 258.907C611.279 258.873 611.322 258.842 611.366 258.813C611.732 258.533 612.106 258.252 612.463 257.98C612.556 257.912 612.65 257.844 612.743 257.768C612.768 257.751 612.791 257.731 612.811 257.708C613.024 257.555 613.227 257.385 613.44 257.224C613.652 257.062 613.856 256.893 614.069 256.723C614.105 256.7 614.139 256.674 614.171 256.646C614.409 256.451 614.647 256.264 614.885 256.068C615.131 255.873 615.369 255.669 615.599 255.473C615.837 255.278 616.066 255.082 616.304 254.878C616.508 254.708 616.721 254.53 616.925 254.343C616.992 254.292 617.052 254.232 617.12 254.173C617.146 254.148 617.175 254.125 617.205 254.105C617.485 253.867 617.757 253.62 618.029 253.374C618.098 253.314 618.157 253.255 618.225 253.195C618.641 252.821 619.058 252.448 619.466 252.057C619.559 251.972 619.661 251.878 619.755 251.793C619.848 251.708 619.933 251.623 620.027 251.538C620.146 251.419 620.273 251.309 620.392 251.19C620.698 250.901 620.996 250.603 621.301 250.306L622.304 251.156L622.67 251.462H622.678L622.789 251.564L623.188 251.895L629.12 256.91L629.248 257.02L629.35 257.096L630.021 257.666L631.364 258.805L632.707 259.935L632.903 260.097L639.149 265.366L640.016 266.097L646.042 271.179L677.233 297.5L678.321 298.418L721.011 334.437L731.957 343.675L736.028 347.108C736.892 347.84 737.892 348.393 738.97 348.738C740.048 349.082 741.184 349.211 742.312 349.116C743.44 349.021 744.538 348.705 745.544 348.186C746.55 347.666 747.443 346.954 748.173 346.089C748.784 345.371 749.27 344.555 749.609 343.675C750.226 342.115 750.373 340.408 750.03 338.766C749.687 337.124 748.87 335.619 747.68 334.436ZM501.493 137.424C510.019 127.32 521.23 119.834 533.83 115.831C546.43 111.829 559.906 111.472 572.7 114.803C585.494 118.135 597.085 125.017 606.133 134.657C615.181 144.296 621.318 156.298 623.834 169.277C623.945 169.847 624.047 170.408 624.14 170.977C624.489 173.008 624.744 175.065 624.897 177.122C624.939 177.691 624.982 178.252 625.007 178.822C625.083 180.096 625.117 181.38 625.117 182.655C625.122 190.388 623.841 198.068 621.327 205.381V205.389C618.517 213.589 614.202 221.192 608.604 227.809C608.485 227.945 608.366 228.09 608.239 228.226C607.117 229.552 605.936 230.826 604.72 232.042C604.712 232.05 604.703 232.067 604.695 232.076C604.278 232.492 603.853 232.917 603.428 233.308C602.561 234.15 601.678 234.948 600.777 235.713C599.425 236.895 598.04 238.002 596.621 239.036C596.145 239.385 595.669 239.725 595.184 240.065C594.709 240.405 594.224 240.728 593.74 241.051C592.771 241.697 591.785 242.317 590.79 242.903C590.297 243.201 589.788 243.49 589.286 243.77C588.785 244.059 588.275 244.331 587.765 244.595C587.255 244.867 586.745 245.13 586.227 245.385C585.198 245.903 584.161 246.388 583.107 246.838C582.581 247.076 582.054 247.297 581.527 247.501C581.195 247.637 580.872 247.773 580.541 247.892C580.411 247.952 580.278 248.003 580.141 248.045C579.963 248.122 579.784 248.19 579.606 248.249C579.548 248.276 579.488 248.298 579.428 248.317C579.062 248.462 578.705 248.589 578.331 248.717C577.796 248.912 577.26 249.091 576.716 249.261C576.172 249.439 575.637 249.609 575.093 249.762C574.549 249.932 573.997 250.085 573.453 250.229C572.9 250.382 572.356 250.527 571.804 250.654C571.217 250.807 570.631 250.943 570.036 251.071C569.518 251.19 569.008 251.292 568.489 251.385C568.005 251.487 567.512 251.572 567.028 251.657C566.348 251.776 565.668 251.887 564.979 251.98C564.605 252.04 564.24 252.091 563.866 252.125C563.705 252.15 563.551 252.167 563.399 252.184C562.923 252.252 562.447 252.303 561.979 252.346C561.852 252.354 561.733 252.371 561.614 252.38C561.095 252.431 560.568 252.473 560.05 252.516C558.937 252.592 557.832 252.643 556.718 252.669C556.157 252.677 555.588 252.686 555.027 252.686C554.466 252.686 553.905 252.677 553.344 252.66C553.344 252.66 553.344 252.669 553.336 252.66C553.327 252.669 553.327 252.669 553.319 252.66C553.318 252.661 553.316 252.662 553.315 252.663C553.313 252.663 553.312 252.664 553.31 252.664C553.309 252.664 553.307 252.663 553.306 252.663C553.304 252.662 553.303 252.661 553.302 252.66C553.274 252.669 553.245 252.669 553.217 252.66C552.817 252.66 552.418 252.643 552.027 252.618C551.738 252.609 551.441 252.601 551.143 252.575C550.744 252.558 550.344 252.533 549.945 252.499C549.817 252.499 549.69 252.482 549.562 252.473C549.503 252.472 549.443 252.466 549.384 252.456C548.976 252.422 548.56 252.388 548.151 252.346C547.948 252.329 547.735 252.312 547.531 252.286C546.911 252.218 546.29 252.142 545.678 252.057C544.981 251.972 544.285 251.87 543.596 251.742C543.273 251.7 542.959 251.64 542.644 251.581C542.228 251.513 541.811 251.436 541.395 251.351C540.961 251.266 540.528 251.181 540.094 251.079C539.746 251.003 539.389 250.926 539.041 250.841C538.871 250.807 538.701 250.765 538.539 250.722C537.647 250.51 536.763 250.281 535.887 250.026C535.335 249.873 534.783 249.711 534.239 249.541C533.491 249.312 532.751 249.065 532.012 248.802C531.723 248.708 531.443 248.606 531.154 248.496C530.865 248.402 530.584 248.292 530.295 248.181C530.032 248.088 529.768 247.986 529.513 247.884C529.088 247.722 528.672 247.552 528.255 247.382C527.397 247.034 526.556 246.668 525.714 246.278C525.238 246.048 524.763 245.827 524.295 245.598C522.451 244.705 520.635 243.714 518.847 242.623C518.405 242.36 517.963 242.079 517.521 241.799C516.969 241.459 516.434 241.102 515.898 240.745C515.601 240.541 515.312 240.345 515.023 240.141C514.487 239.767 513.96 239.385 513.442 239.002C513.17 238.807 512.898 238.603 512.635 238.399C511.691 237.685 510.765 236.937 509.855 236.172C509.422 235.807 508.989 235.433 508.564 235.051C508.385 234.898 508.206 234.736 508.028 234.575C507.824 234.388 507.62 234.209 507.425 234.013L507.408 233.997C507.11 233.733 506.813 233.453 506.524 233.172C506.073 232.747 505.631 232.314 505.207 231.872C504.765 231.439 504.34 230.988 503.923 230.546C503.498 230.104 503.09 229.654 502.691 229.195C502.283 228.744 501.883 228.285 501.492 227.818C501.11 227.376 500.736 226.917 500.379 226.467C499.512 225.396 498.685 224.305 497.897 223.195C497.532 222.685 497.184 222.175 496.844 221.656C496.478 221.129 496.13 220.594 495.798 220.058C495.45 219.523 495.118 218.979 494.795 218.427C494.787 218.408 494.776 218.391 494.761 218.376C494.124 217.296 493.512 216.208 492.942 215.104C492.356 213.982 491.804 212.849 491.285 211.704C491.022 211.135 490.767 210.557 490.529 209.979C490.036 208.814 489.577 207.65 489.152 206.469C488.94 205.899 488.744 205.33 488.549 204.752C488.542 204.714 488.531 204.676 488.515 204.641C488.124 203.468 487.767 202.287 487.452 201.097C487.444 201.08 487.444 201.063 487.435 201.046C487.274 200.46 487.121 199.874 486.985 199.279C486.849 198.76 486.73 198.242 486.619 197.715C486.492 197.128 486.365 196.542 486.254 195.947C486.194 195.641 486.135 195.335 486.084 195.029C486.033 194.774 485.99 194.511 485.948 194.256C485.906 194.001 485.863 193.737 485.82 193.474C485.735 192.955 485.659 192.437 485.591 191.919C485.506 191.307 485.438 190.695 485.37 190.074C485.293 189.335 485.226 188.595 485.166 187.848C485.124 187.346 485.098 186.836 485.073 186.326C485.047 185.859 485.022 185.391 485.013 184.924C485.005 184.899 485.005 184.872 485.013 184.848C485.012 184.846 485.011 184.845 485.01 184.844C485.01 184.842 485.01 184.841 485.01 184.839C485.01 184.837 485.01 184.836 485.01 184.834C485.011 184.833 485.012 184.832 485.013 184.831C485.005 184.822 485.005 184.822 485.013 184.814C485.012 184.812 485.011 184.811 485.01 184.81C485.01 184.808 485.01 184.807 485.01 184.805C485.01 184.803 485.01 184.802 485.01 184.8C485.011 184.799 485.012 184.798 485.013 184.797C485.005 184.61 484.996 184.423 484.996 184.236C484.979 183.683 484.971 183.131 484.971 182.578C484.971 182.077 484.979 181.584 484.988 181.083C485.005 180.386 485.03 179.689 485.064 178.992C485.064 178.839 485.081 178.694 485.09 178.541C485.098 178.388 485.107 178.244 485.115 178.091C485.132 177.768 485.158 177.445 485.192 177.122C485.19 177.062 485.193 177.003 485.2 176.943C485.226 176.578 485.259 176.213 485.293 175.847C485.362 175.116 485.447 174.377 485.54 173.646C485.591 173.281 485.634 172.915 485.693 172.55C485.727 172.295 485.769 172.031 485.812 171.768C485.846 171.504 485.889 171.241 485.94 170.977C485.999 170.629 486.059 170.272 486.127 169.915C486.161 169.702 486.203 169.49 486.246 169.277C486.407 168.428 486.585 167.578 486.781 166.728C486.976 165.869 487.197 165.02 487.435 164.17C487.665 163.311 487.92 162.453 488.192 161.595C488.319 161.161 488.455 160.736 488.608 160.311C488.888 159.453 489.186 158.603 489.518 157.762C489.67 157.345 489.832 156.92 490.01 156.504C490.35 155.662 490.707 154.821 491.073 153.997C491.26 153.58 491.447 153.164 491.651 152.747C492.033 151.923 492.433 151.098 492.866 150.291C493.283 149.467 493.733 148.659 494.192 147.86C494.651 147.061 495.127 146.263 495.628 145.472C495.858 145.081 496.113 144.682 496.376 144.299C496.886 143.517 497.421 142.735 497.965 141.971C499.062 140.424 500.243 138.902 501.493 137.424ZM485.183 177.122C485.158 177.445 485.132 177.768 485.115 178.091C485.132 177.768 485.158 177.445 485.192 177.122C485.19 177.062 485.193 177.003 485.2 176.943C485.192 177.003 485.192 177.062 485.183 177.122ZM486.237 169.277C486.203 169.49 486.161 169.702 486.127 169.915C486.161 169.702 486.203 169.49 486.246 169.277H486.237ZM507.408 233.997V234.005C507.408 234.013 507.416 234.013 507.425 234.013L507.408 233.997Z" fill="#242424"/>
<path opacity="0.3" d="M509.854 236.171C496.411 224.827 487.726 208.842 485.523 191.391C483.321 173.939 487.761 156.298 497.963 141.969C496.624 143.318 495.328 144.731 494.078 146.208C488.143 153.241 483.652 161.374 480.861 170.143C478.07 178.911 477.033 188.144 477.81 197.313C478.587 206.483 481.162 215.409 485.388 223.583C489.615 231.758 495.41 239.019 502.443 244.954C516.647 256.939 535.03 262.791 553.549 261.222C572.067 259.653 589.204 250.792 601.189 236.588C602.437 235.109 603.612 233.595 604.714 232.044C592.306 244.512 575.663 251.857 558.09 252.621C540.516 253.386 523.298 247.514 509.854 236.171Z" fill="black"/>
</svg>
