<svg width="600" height="508" viewBox="0 0 600 508" fill="none" xmlns="http://www.w3.org/2000/svg">
<path d="M432.407 431.897H208.645C207.258 431.896 205.928 431.344 204.947 430.363C203.966 429.382 203.415 428.052 203.413 426.665V273.871C203.415 272.484 203.966 271.154 204.947 270.173C205.928 269.192 207.258 268.64 208.645 268.639H432.407C433.794 268.64 435.124 269.192 436.105 270.173C437.086 271.154 437.638 272.484 437.639 273.871V426.665C437.638 428.052 437.086 429.382 436.105 430.363C435.124 431.344 433.794 431.896 432.407 431.897Z" fill="white"/>
<path d="M432.407 431.897H208.645C207.258 431.896 205.928 431.344 204.947 430.363C203.966 429.382 203.415 428.052 203.413 426.665V273.871C203.415 272.484 203.966 271.154 204.947 270.173C205.928 269.192 207.258 268.64 208.645 268.639H432.407C433.794 268.64 435.124 269.192 436.105 270.173C437.086 271.154 437.638 272.484 437.639 273.871V426.665C437.638 428.052 437.086 429.382 436.105 430.363C435.124 431.344 433.794 431.896 432.407 431.897ZM208.645 269.801C207.566 269.803 206.532 270.232 205.769 270.995C205.006 271.758 204.577 272.792 204.576 273.871V426.665C204.577 427.744 205.006 428.778 205.769 429.541C206.532 430.304 207.566 430.733 208.645 430.735H432.407C433.486 430.733 434.52 430.304 435.283 429.541C436.046 428.778 436.475 427.744 436.477 426.665V273.871C436.475 272.792 436.046 271.758 435.283 270.995C434.52 270.232 433.486 269.803 432.407 269.801H208.645Z" fill="#3F3D56"/>
<path d="M346.429 430.978H294.625V345.216C294.627 343.182 295.436 341.232 296.875 339.794C298.313 338.355 300.263 337.546 302.297 337.544H338.757C340.791 337.546 342.741 338.355 344.179 339.794C345.618 341.232 346.427 343.182 346.429 345.216V430.978Z" fill="#E6E6E6"/>
<path d="M420.204 236.069H390.62V186.628C390.622 185.241 391.173 183.911 392.154 182.93C393.135 181.949 394.465 181.398 395.852 181.396H414.972C416.359 181.398 417.689 181.949 418.67 182.93C419.651 183.911 420.203 185.241 420.204 186.628V236.069Z" fill="white"/>
<path d="M420.204 236.069H390.62V186.628C390.622 185.241 391.173 183.911 392.154 182.93C393.135 181.949 394.465 181.398 395.852 181.396H414.972C416.359 181.398 417.689 181.949 418.67 182.93C419.651 183.911 420.203 185.241 420.204 186.628V236.069ZM391.783 234.907H419.042V186.628C419.04 185.549 418.611 184.515 417.848 183.752C417.085 182.989 416.051 182.56 414.972 182.559H395.852C394.773 182.56 393.739 182.989 392.976 183.752C392.213 184.515 391.784 185.549 391.783 186.628V234.907Z" fill="#3F3D56"/>
<path d="M253.408 256.888C284.871 256.888 310.376 231.383 310.376 199.92C310.376 168.457 284.871 142.952 253.408 142.952C221.945 142.952 196.439 168.457 196.439 199.92C196.439 231.383 221.945 256.888 253.408 256.888Z" fill="#F2F2F2"/>
<path d="M406.299 172.728C401.168 172.567 396.601 167.888 396.565 162.755C396.528 157.622 401.028 152.877 406.155 152.643C417.573 152.121 426.921 139.868 424.409 128.718C421.896 117.568 408.196 110.509 397.658 114.934C389.574 118.329 381.405 107.633 383.454 99.1076C385.503 90.5826 393.256 84.858 400.43 79.817C407.603 74.7759 415.277 68.8572 417.009 60.2621C418.741 51.6671 409.877 41.3711 402.066 45.3553" fill="#E6E6E6"/>
<path d="M272.744 362.456H228.985C227.239 362.454 225.566 361.76 224.332 360.525C223.098 359.291 222.403 357.618 222.401 355.872V319.796C222.403 318.051 223.098 316.377 224.332 315.143C225.566 313.909 227.24 313.215 228.985 313.213H272.744C274.49 313.215 276.163 313.909 277.397 315.143C278.631 316.378 279.326 318.051 279.328 319.796V355.872C279.326 357.618 278.632 359.291 277.397 360.525C276.163 361.76 274.49 362.454 272.744 362.456Z" fill="#E6E6E6"/>
<path d="M413.081 362.456H369.322C367.576 362.454 365.903 361.76 364.669 360.525C363.434 359.291 362.74 357.618 362.738 355.872V319.796C362.74 318.051 363.435 316.377 364.669 315.143C365.903 313.909 367.576 313.215 369.322 313.213H413.081C414.827 313.215 416.5 313.909 417.734 315.143C418.968 316.377 419.663 318.051 419.665 319.796V355.872C419.663 357.618 418.969 359.291 417.734 360.525C416.5 361.76 414.827 362.454 413.081 362.456Z" fill="#E6E6E6"/>
<path d="M186.707 271.781V248.273C186.707 246.467 187.184 244.693 188.091 243.131C188.997 241.569 190.3 240.274 191.868 239.378L322.486 164.724C324.107 163.797 325.951 163.331 327.818 163.377C329.685 163.422 331.504 163.977 333.078 164.981L449.61 239.308C451.062 240.234 452.257 241.51 453.084 243.02C453.912 244.529 454.346 246.223 454.346 247.945V271.781C454.346 274.498 453.267 277.104 451.345 279.025C449.424 280.946 446.818 282.026 444.101 282.026H196.952C194.235 282.026 191.629 280.946 189.708 279.025C187.786 277.104 186.707 274.498 186.707 271.781Z" fill="#3DAF5B"/>
<path opacity="0.2" d="M444.101 271.559H196.952C194.235 271.559 191.629 270.48 189.708 268.559C187.786 266.638 186.707 264.032 186.707 261.315V270.617C186.707 273.334 187.786 275.939 189.708 277.861C191.629 279.782 194.235 280.861 196.952 280.861H444.101C446.818 280.861 449.424 279.782 451.345 277.861C453.267 275.939 454.346 273.334 454.346 270.617V261.315C454.346 264.032 453.267 266.638 451.345 268.559C449.424 270.48 446.818 271.559 444.101 271.559Z" fill="black"/>
<path d="M464.169 352.006C464.169 333.978 478.783 291.199 496.811 291.199C514.839 291.199 529.453 333.978 529.453 352.006C529.453 360.663 526.014 368.965 519.892 375.087C513.771 381.209 505.468 384.648 496.811 384.648C488.154 384.648 479.851 381.209 473.73 375.087C467.608 368.965 464.169 360.663 464.169 352.006Z" fill="#F2F2F2"/>
<path d="M496.811 431.204C496.657 431.204 496.509 431.142 496.4 431.033C496.291 430.924 496.23 430.777 496.229 430.622V313.414C496.229 313.26 496.291 313.112 496.4 313.003C496.509 312.894 496.657 312.833 496.811 312.833C496.965 312.833 497.113 312.894 497.222 313.003C497.331 313.112 497.392 313.26 497.392 313.414V430.622C497.392 430.777 497.331 430.924 497.222 431.033C497.113 431.142 496.965 431.204 496.811 431.204Z" fill="#3F3D56"/>
<path d="M496.81 365.391C496.696 365.391 496.585 365.357 496.49 365.295C496.395 365.232 496.32 365.143 496.275 365.038C496.231 364.934 496.218 364.818 496.238 364.706C496.258 364.594 496.311 364.491 496.389 364.408L512.982 346.996C513.035 346.94 513.098 346.896 513.168 346.865C513.238 346.834 513.313 346.817 513.389 346.816C513.466 346.814 513.542 346.827 513.613 346.854C513.684 346.882 513.749 346.923 513.804 346.976C513.86 347.029 513.904 347.092 513.935 347.161C513.966 347.231 513.983 347.307 513.984 347.383C513.986 347.459 513.973 347.535 513.946 347.606C513.918 347.678 513.877 347.743 513.824 347.798L497.231 365.211C497.177 365.268 497.111 365.313 497.039 365.344C496.966 365.375 496.889 365.391 496.81 365.391Z" fill="#3F3D56"/>
<path d="M496.811 336.033C496.666 336.033 496.526 335.979 496.419 335.881L482.079 322.77C482.022 322.719 481.976 322.657 481.944 322.587C481.911 322.518 481.893 322.443 481.889 322.367C481.886 322.29 481.897 322.214 481.923 322.142C481.949 322.07 481.989 322.004 482.041 321.948C482.093 321.891 482.155 321.846 482.224 321.813C482.293 321.781 482.368 321.763 482.445 321.759C482.521 321.756 482.598 321.768 482.669 321.794C482.741 321.82 482.807 321.86 482.863 321.912L497.203 335.023C497.29 335.102 497.35 335.205 497.377 335.32C497.404 335.434 497.395 335.553 497.353 335.662C497.31 335.772 497.236 335.866 497.139 335.932C497.043 335.998 496.928 336.033 496.811 336.033Z" fill="#3F3D56"/>
<path d="M65.75 316.137C65.75 289.618 87.2482 226.688 113.768 226.688C140.287 226.688 161.785 289.618 161.785 316.137C161.785 328.872 156.726 341.086 147.721 350.091C138.716 359.096 126.503 364.155 113.768 364.155C101.033 364.155 88.8191 359.096 79.814 350.091C70.809 341.086 65.75 328.872 65.75 316.137Z" fill="#3DAF5B"/>
<path d="M113.767 432.366C113.613 432.366 113.465 432.305 113.356 432.196C113.247 432.087 113.186 431.939 113.186 431.785V259.366C113.186 259.212 113.247 259.064 113.356 258.955C113.465 258.846 113.613 258.785 113.767 258.785C113.921 258.785 114.069 258.846 114.178 258.955C114.287 259.064 114.348 259.212 114.348 259.366V431.785C114.348 431.939 114.287 432.087 114.178 432.196C114.069 432.305 113.921 432.366 113.767 432.366Z" fill="#3F3D56"/>
<path d="M113.767 335.552C113.653 335.552 113.542 335.519 113.447 335.456C113.352 335.394 113.277 335.305 113.232 335.2C113.188 335.095 113.175 334.98 113.195 334.868C113.215 334.756 113.268 334.652 113.346 334.57L137.755 308.955C137.862 308.844 138.008 308.779 138.162 308.775C138.317 308.771 138.466 308.829 138.577 308.935C138.689 309.042 138.754 309.188 138.758 309.342C138.761 309.496 138.704 309.646 138.597 309.757L114.188 335.372C114.134 335.429 114.068 335.475 113.996 335.506C113.924 335.537 113.846 335.553 113.767 335.552Z" fill="#3F3D56"/>
<path d="M113.768 292.367C113.622 292.367 113.483 292.313 113.375 292.215L92.2809 272.928C92.1671 272.824 92.0993 272.679 92.0924 272.525C92.0855 272.371 92.1401 272.22 92.2441 272.107C92.3482 271.993 92.4931 271.925 92.6472 271.918C92.8012 271.911 92.9517 271.966 93.0655 272.07L114.16 291.357C114.247 291.436 114.307 291.539 114.334 291.653C114.361 291.767 114.352 291.887 114.31 291.996C114.267 292.105 114.193 292.199 114.096 292.265C113.999 292.332 113.885 292.367 113.768 292.367Z" fill="#3F3D56"/>
<path d="M474.008 431.146C474.063 431.189 474.121 431.227 474.177 431.269H521.448C522.374 427.516 522.701 423.759 521.317 420.497C519.346 415.848 513.512 412.946 508.874 414.942C507.775 415.428 506.818 416.185 506.092 417.143C504.28 413.899 501.028 411.452 497.275 411.455C492.574 411.458 488.664 415.303 487.388 419.745C485.334 416.277 481.276 413.854 477.31 414.896C470.677 416.64 468.581 426.952 474.008 431.146Z" fill="#E6E6E6"/>
<path d="M67.9076 432.184C68.0186 432.27 68.1358 432.348 68.2483 432.432H163.674C165.544 424.856 166.204 417.272 163.411 410.686C159.432 401.301 147.655 395.443 138.292 399.473C136.073 400.453 134.141 401.982 132.676 403.916C129.017 397.366 122.454 392.428 114.877 392.433C105.386 392.44 97.494 400.202 94.9184 409.168C90.7714 402.168 82.5799 397.276 74.5731 399.38C61.1817 402.9 56.9518 423.717 67.9076 432.184Z" fill="#E6E6E6"/>
<path d="M547.078 430.738L52.9434 431.673L52.9456 432.836L547.08 431.901L547.078 430.738Z" fill="#3F3D56"/>
<path d="M219.685 407.077C219.803 406.618 219.819 406.138 219.732 405.671C219.644 405.205 219.455 404.764 219.179 404.378C218.902 403.993 218.544 403.673 218.131 403.44C217.717 403.208 217.257 403.069 216.784 403.034L198.322 379.952L193.754 384.209L213.257 406.259C213.25 407.057 213.537 407.831 214.062 408.432C214.588 409.034 215.315 409.422 216.108 409.523C216.9 409.624 217.702 409.431 218.361 408.98C219.021 408.529 219.492 407.852 219.685 407.077Z" fill="#FFB8B8"/>
<path d="M201.863 383.618L196.029 388.087C195.863 388.214 195.671 388.304 195.467 388.35C195.264 388.397 195.052 388.399 194.847 388.356C194.643 388.313 194.45 388.227 194.281 388.103C194.113 387.979 193.973 387.82 193.872 387.637L190.317 381.23C189.672 380.377 189.391 379.303 189.536 378.243C189.682 377.183 190.241 376.224 191.093 375.577C191.944 374.929 193.017 374.645 194.077 374.787C195.138 374.929 196.098 375.486 196.749 376.335L201.992 381.419C202.142 381.564 202.259 381.741 202.335 381.935C202.411 382.13 202.444 382.339 202.431 382.548C202.419 382.757 202.362 382.96 202.264 383.145C202.166 383.33 202.03 383.491 201.863 383.618Z" fill="#3F3D56"/>
<path d="M192.065 369.683C196.163 369.683 199.485 366.362 199.485 362.264C199.485 358.166 196.163 354.844 192.065 354.844C187.967 354.844 184.646 358.166 184.646 362.264C184.646 366.362 187.967 369.683 192.065 369.683Z" fill="#FFB8B8"/>
<path d="M207.903 458.506H211.607L211.254 451.575H205.788L207.903 458.506Z" fill="#FFB8B8"/>
<path d="M206.958 457.297L214.252 457.297C214.862 457.297 215.467 457.417 216.031 457.651C216.594 457.884 217.107 458.227 217.539 458.658C217.97 459.09 218.312 459.602 218.546 460.166C218.78 460.73 218.9 461.334 218.9 461.945V462.096L206.958 462.096L206.958 457.297Z" fill="#2F2E41"/>
<path d="M168.417 453.263L171.568 455.21L174.911 449.127L171.098 446.742L168.417 453.263Z" fill="#FFB8B8"/>
<path d="M168.249 451.738L174.454 455.571C174.973 455.892 175.424 456.312 175.781 456.807C176.138 457.302 176.394 457.862 176.535 458.456C176.675 459.051 176.697 459.666 176.599 460.269C176.502 460.871 176.286 461.449 175.966 461.968L175.886 462.097L165.727 455.821L168.249 451.738Z" fill="#2F2E41"/>
<path d="M207.635 456.474C207.36 456.474 207.091 456.39 206.865 456.233C206.638 456.077 206.465 455.855 206.367 455.598L192.971 423.568C192.942 423.49 192.892 423.421 192.827 423.37C192.761 423.318 192.683 423.285 192.6 423.275C192.517 423.265 192.434 423.278 192.358 423.313C192.282 423.347 192.217 423.402 192.17 423.471L173.766 452.463C173.586 452.733 173.315 452.929 173.002 453.016C172.69 453.103 172.356 453.075 172.063 452.937L169.545 451.762C169.222 451.61 168.972 451.337 168.847 451.003C168.723 450.669 168.734 450.299 168.879 449.973L183.957 416.363C183.628 415.562 180.417 407.338 185.35 403.275L185.385 403.254L198.764 397.286L199.102 407.549L212.437 453.818C212.487 453.992 212.502 454.175 212.481 454.355C212.46 454.535 212.402 454.708 212.313 454.866C212.224 455.024 212.103 455.162 211.96 455.272C211.816 455.383 211.652 455.463 211.477 455.509L207.984 456.429C207.87 456.459 207.753 456.474 207.635 456.474Z" fill="#2F2E41"/>
<path d="M198.967 382.273C198.457 380.228 197.735 378.167 196.767 377.216C196.411 376.869 196.077 376.501 195.766 376.113C195.115 375.293 194.296 374.622 193.364 374.145C193.705 373.955 193.905 373.729 193.905 373.485C193.905 372.818 192.417 372.277 190.582 372.277C188.747 372.277 187.259 372.818 187.259 373.485C187.264 373.563 187.283 373.639 187.317 373.708C187.351 373.778 187.398 373.841 187.456 373.892C186.258 374.381 185.217 375.189 184.446 376.228C183.675 377.268 183.204 378.499 183.085 379.788C182.656 384.384 182.53 390.26 184.034 393.976C185.296 397.049 185.396 400.477 184.317 403.618C184.243 403.837 184.234 404.072 184.291 404.296C184.347 404.52 184.467 404.723 184.635 404.88C184.803 405.038 185.013 405.145 185.239 405.187C185.466 405.23 185.7 405.206 185.914 405.119L199.19 399.77C199.413 399.68 199.605 399.525 199.74 399.325C199.875 399.125 199.947 398.89 199.947 398.649V390.524C199.957 387.744 199.628 384.973 198.967 382.273Z" fill="#3F3D56"/>
<path d="M173.566 415.738C174.028 415.631 174.461 415.424 174.835 415.131C175.208 414.838 175.513 414.467 175.727 414.044C175.942 413.621 176.061 413.156 176.076 412.681C176.091 412.207 176.002 411.736 175.815 411.299L186.202 383.907L180.935 382.547L171.327 409.657C170.615 410.02 170.061 410.631 169.77 411.374C169.478 412.118 169.47 412.943 169.746 413.692C170.022 414.442 170.563 415.064 171.267 415.441C171.971 415.818 172.789 415.924 173.566 415.738Z" fill="#FFB8B8"/>
<path d="M186.158 389.105L179.502 385.989C179.313 385.9 179.145 385.772 179.01 385.613C178.874 385.453 178.775 385.266 178.718 385.065C178.662 384.864 178.649 384.653 178.682 384.446C178.714 384.24 178.79 384.042 178.906 383.868L182.951 377.759C183.411 376.794 184.234 376.051 185.241 375.691C186.248 375.332 187.356 375.387 188.323 375.843C189.29 376.299 190.036 377.119 190.4 378.124C190.763 379.13 190.713 380.238 190.261 381.207L188.169 388.204C188.109 388.404 188.007 388.589 187.869 388.747C187.731 388.904 187.561 389.029 187.37 389.115C187.179 389.2 186.972 389.244 186.763 389.242C186.554 389.24 186.348 389.193 186.158 389.105Z" fill="#3F3D56"/>
<path d="M198.881 360.437C199.216 360.477 199.554 360.416 199.854 360.262C200.401 359.903 200.348 359.089 200.162 358.462C199.701 356.958 198.868 355.595 197.741 354.498C196.613 353.401 195.228 352.605 193.712 352.185C192.656 351.904 191.319 351.915 190.715 352.826C189.196 351.814 187.366 351.38 185.555 351.603C183.744 351.825 182.072 352.689 180.844 354.038C179.643 355.447 178.843 357.152 178.526 358.976C177.892 362.082 175.177 368.489 176.681 371.28C177.682 373.137 182.288 371.69 184.236 372.499C185.207 372.921 186.266 373.097 187.321 373.012C188.376 372.927 189.393 372.583 190.283 372.011C191.154 371.41 191.809 370.544 192.151 369.543C192.493 368.541 192.503 367.456 192.181 366.448C191.84 365.707 191.447 364.991 191.004 364.306C190.56 363.612 190.379 362.782 190.493 361.967C190.766 360.726 196.622 360.391 198.881 360.437Z" fill="#2F2E41"/>
</svg>
