<svg width="75" height="75" viewBox="0 0 75 75" fill="none" xmlns="http://www.w3.org/2000/svg">
<path d="M60.6759 61.8133C53.8885 63.4596 49.3268 57.362 40.6356 58.8335C40.047 58.9347 39.5412 59.0542 39.0445 59.1645C33.6827 60.4062 32.1283 61.9605 28.0725 63.1285C25.8836 63.7539 23.8326 64.3424 21.1287 64.039C19.9238 63.901 16.4014 63.432 13.4124 60.4982C12.7502 59.8543 9.85311 56.8561 9.68756 52.2392C9.55881 48.6248 11.2327 45.9208 12.1064 44.4953C12.8146 43.3365 13.2744 42.9318 14.1297 41.8373C15.077 40.6417 18.1213 36.779 18.995 33.0909C20.3469 27.3888 15.822 25.0804 17.5694 19.3506C18.25 17.1341 19.4916 15.681 20.1262 14.9544C23.382 11.2296 27.8057 10.5122 29.4244 10.2363C36.8556 9.0039 42.8245 12.9586 43.8545 13.6668C50.8167 18.4493 53.7229 27.0577 55.0198 30.9021C55.2772 31.6654 55.6728 32.9346 56.4453 34.6912C57.1535 36.2915 58.7906 39.6852 61.7428 43.3365C64.3088 46.022 67.4909 48.0546 67.9508 52.0369C68.006 52.5519 68.2359 54.9614 66.8747 57.3619C64.9894 60.6452 61.3657 61.6477 60.6667 61.8225L60.6759 61.8133Z" fill="#3DAF5B"/>
<path d="M47.3771 49.0846C45.602 50.694 43.4039 51.8989 40.9207 52.4967C40.8103 52.5335 40.6908 52.5519 40.5805 52.5795C32.6342 54.2901 24.8075 49.2318 23.1061 41.2947C21.3954 33.3485 26.4538 25.5218 34.3908 23.8204C34.5196 23.7928 34.6392 23.7651 34.7587 23.7467C38.6766 23.011 42.5394 23.894 45.6388 25.9541C48.7198 27.9958 51.0375 31.2056 51.8744 35.1051C53.0149 40.421 51.1386 45.6817 47.3863 49.0938L47.3771 49.0846Z" fill="white"/>
<path d="M37.4812 53.9039C30.2523 53.9039 23.7224 48.8547 22.1313 41.4971C20.3103 33.0266 25.7181 24.6573 34.1886 22.8271C34.3266 22.7996 34.4645 22.772 34.5841 22.7444C38.6308 21.981 42.7603 22.8179 46.1908 25.108C49.6212 27.3889 51.9849 30.8561 52.8494 34.8844C54.0266 40.3475 52.1872 46.0681 48.0485 49.8205C46.0988 51.5863 43.7168 52.8463 41.1508 53.4625C41.0496 53.4901 40.9116 53.5268 40.7645 53.5544C39.6609 53.7936 38.5572 53.9039 37.472 53.9039H37.4812ZM37.5088 24.4733C36.6534 24.4733 35.7981 24.5561 34.9428 24.7125C34.8324 24.7309 34.722 24.7585 34.6116 24.7769C27.208 26.368 22.49 33.6797 24.081 41.074C25.6721 48.4685 32.9746 53.1866 40.369 51.5955C40.4794 51.5771 40.5622 51.5587 40.645 51.5311C42.9258 50.9884 45.0043 49.8848 46.7058 48.3397C50.311 45.0656 51.9205 40.0715 50.8904 35.2983C50.1362 31.785 48.0761 28.7592 45.0779 26.7726C42.797 25.2551 40.1759 24.4733 37.4996 24.4733H37.5088Z" fill="#192232"/>
<path d="M42.2451 31.5366L33.1032 33.5047C31.6869 33.8082 30.7948 35.1969 31.0983 36.6133C31.4018 38.0297 32.7906 38.9217 34.2069 38.6183L40.5621 37.2479C41.9784 36.9444 43.3671 37.8457 43.6707 39.2529L43.8454 40.0806C44.1489 41.4969 43.2476 42.8857 41.8404 43.1892L32.6986 45.1574" fill="white"/>
<path d="M32.6987 46.1692C32.2389 46.1692 31.825 45.8473 31.7239 45.3783C31.6043 44.8357 31.9538 44.3114 32.4872 44.1918L41.6291 42.2237C42.5028 42.0397 43.0546 41.1752 42.8707 40.3015L42.6959 39.4738C42.604 39.0507 42.3557 38.692 41.9877 38.4528C41.6199 38.2229 41.1876 38.1402 40.7738 38.2321L34.4186 39.6025C32.4689 40.0255 30.5374 38.7748 30.1236 36.825C29.9212 35.8777 30.096 34.912 30.6202 34.1026C31.1444 33.2933 31.9538 32.7323 32.9011 32.53L42.0429 30.5618C42.5763 30.4422 43.1098 30.7917 43.2294 31.3252C43.349 31.8678 42.9994 32.3921 42.466 32.5116L33.3242 34.4798C32.9011 34.5717 32.5424 34.82 32.3033 35.1879C32.0733 35.5466 31.9906 35.9881 32.0825 36.4019C32.2665 37.2756 33.131 37.8274 34.0048 37.6435L40.3599 36.2731C41.3072 36.0709 42.2729 36.2456 43.0822 36.7698C43.8916 37.294 44.4526 38.1034 44.6549 39.0507L44.8297 39.8783C45.0319 40.8257 44.8573 41.7914 44.333 42.6007C43.8088 43.4101 42.9994 43.9711 42.0521 44.1734L32.9103 46.1416C32.8367 46.16 32.7723 46.16 32.6987 46.16V46.1692Z" fill="#192232"/>
<path d="M39.532 49.3883C39.0721 49.3883 38.6583 49.0664 38.5571 48.5974L34.2346 28.5203C34.115 27.9776 34.4644 27.4534 34.9979 27.3338C35.5405 27.2142 36.0647 27.5637 36.1843 28.0971L40.5069 48.1743C40.6264 48.7169 40.277 49.2412 39.7436 49.3607C39.67 49.3791 39.6056 49.3791 39.532 49.3791V49.3883Z" fill="#192232"/>
<path d="M13.7896 39.0875C13.2377 39.0875 12.7871 38.6368 12.7963 38.085C12.8331 26.5703 21.0368 16.4628 32.3032 14.0348C32.5147 13.9888 32.7263 13.9428 32.9286 13.906C39.2929 12.7104 45.7861 14.0256 51.1847 17.6216C56.5742 21.1993 60.299 26.6623 61.6509 32.9898C61.7705 33.5325 61.421 34.0567 60.8784 34.1763C60.345 34.2958 59.8115 33.9463 59.692 33.4037C58.4411 27.5912 55.0291 22.5696 50.0719 19.2863C45.1055 15.9845 39.1458 14.7705 33.2873 15.8742C33.1033 15.911 32.9102 15.9477 32.7263 15.9937C22.3704 18.2194 14.8288 27.5176 14.792 38.0942C14.792 38.6461 14.3414 39.0875 13.7896 39.0875Z" fill="#192232"/>
<path d="M37.4811 62.8986C26.1044 62.8986 15.8405 54.9615 13.3481 43.3917C13.2285 42.849 13.578 42.3248 14.1114 42.2053C14.6449 42.0857 15.1783 42.4352 15.2978 42.9686C17.9282 55.2099 30.0315 63.0182 42.2728 60.3878C42.4475 60.351 42.6039 60.3142 42.751 60.2774C46.4942 59.3854 49.9431 57.5643 52.7573 55.0075C57.4846 50.7217 60.1978 44.6149 60.207 38.2505C60.207 37.6988 60.6576 37.248 61.2094 37.248C61.7613 37.248 62.2119 37.6988 62.2119 38.2505C62.2119 45.1667 59.2505 51.8161 54.1093 56.479C51.0467 59.2658 47.3035 61.2431 43.2661 62.1996C43.1005 62.2455 42.8889 62.3008 42.6774 62.3376C40.9392 62.7146 39.2009 62.8894 37.4903 62.8894L37.4811 62.8986Z" fill="#192232"/>
<path d="M13.6792 40.1909C13.4217 40.1909 13.1641 40.0897 12.971 39.8967L8.28971 35.2154C7.90343 34.829 7.90343 34.1945 8.28971 33.799C8.67598 33.4127 9.31057 33.4127 9.70605 33.799L13.6884 37.7813L17.6706 33.799C18.057 33.4127 18.6915 33.4127 19.0871 33.799C19.4825 34.1853 19.4733 34.8199 19.0871 35.2154L14.3965 39.9059C14.2034 40.0989 13.9459 40.2001 13.6884 40.2001L13.6792 40.1909Z" fill="#192232"/>
<path d="M56.7121 43.6125C56.4546 43.6125 56.1971 43.5113 56.004 43.3181C55.6177 42.9319 55.6177 42.2972 56.004 41.9018L60.6945 37.2113C61.0807 36.8251 61.7154 36.8251 62.1108 37.2113L66.7921 41.8926C67.1783 42.2788 67.1783 42.9135 66.7921 43.3089C66.4058 43.7044 65.7712 43.6953 65.3758 43.3089L61.3934 39.3266L57.4111 43.3089C57.2179 43.5021 56.9605 43.6033 56.7029 43.6033L56.7121 43.6125Z" fill="#192232"/>
</svg>
