<svg width="600" height="488" viewBox="0 0 600 488" fill="none" xmlns="http://www.w3.org/2000/svg">
<path d="M299.823 415.377V414.072C302.419 414.072 305.052 414.018 307.654 413.914L307.706 415.219C305.087 415.323 302.436 415.377 299.823 415.377ZM291.944 415.227C289.334 415.125 286.687 414.966 284.076 414.763L284.178 413.462C286.773 413.666 289.403 413.822 291.995 413.923L291.944 415.227ZM315.573 414.746L315.469 413.445C318.059 413.238 320.68 412.974 323.259 412.661L323.416 413.957C320.819 414.271 318.181 414.536 315.573 414.744V414.746ZM276.232 413.985C273.63 413.673 271.004 413.306 268.426 412.892L268.633 411.603C271.193 412.014 273.802 412.379 276.387 412.688L276.232 413.985ZM331.22 412.857L331.012 411.568C333.571 411.154 336.163 410.681 338.712 410.162L338.973 411.441C336.405 411.963 333.795 412.44 331.219 412.857H331.22ZM260.671 411.486C258.102 410.964 255.515 410.387 252.978 409.766L253.288 408.498C255.808 409.115 258.378 409.69 260.929 410.207L260.671 411.486ZM346.665 409.713L346.353 408.447C348.88 407.825 351.424 407.141 353.916 406.424L354.279 407.678C351.77 408.404 349.208 409.09 346.665 409.716V409.713ZM245.361 407.736C242.845 407.01 240.311 406.223 237.833 405.398L238.245 404.159C240.708 404.978 243.223 405.759 245.723 406.481L245.361 407.736ZM361.804 405.329L361.39 404.089C363.854 403.265 366.335 402.38 368.764 401.457L369.228 402.677C366.782 403.607 364.284 404.498 361.803 405.327L361.804 405.329ZM230.385 402.75C227.937 401.822 225.471 400.831 223.055 399.801L223.567 398.6C225.966 399.622 228.417 400.607 230.849 401.528L230.385 402.75ZM376.519 399.74L376.007 398.539C378.393 397.52 380.788 396.44 383.126 395.328L383.687 396.507C381.333 397.627 378.923 398.714 376.519 399.74ZM215.853 396.556C213.482 395.431 211.106 394.243 208.789 393.025L209.397 391.87C211.697 393.08 214.058 394.259 216.412 395.377L215.853 396.556ZM390.723 392.984L390.115 391.829C392.413 390.619 394.716 389.349 396.958 388.051L397.61 389.18C395.353 390.485 393.035 391.765 390.721 392.983L390.723 392.984ZM201.875 389.213C199.601 387.898 197.329 386.523 195.123 385.125L195.821 384.023C198.012 385.411 200.269 386.777 202.528 388.084L201.875 389.213ZM404.343 385.101L403.645 383.999C405.833 382.613 408.027 381.161 410.166 379.682L410.908 380.755C408.755 382.245 406.546 383.706 404.343 385.101ZM188.543 380.77C186.385 379.279 184.232 377.726 182.144 376.156L182.928 375.111C185.001 376.672 187.14 378.214 189.283 379.695L188.543 380.77ZM417.297 376.148L416.514 375.104C418.583 373.548 420.655 371.924 422.672 370.275L423.499 371.286C421.468 372.945 419.382 374.58 417.299 376.146L417.297 376.148ZM175.94 371.289C173.914 369.634 171.894 367.914 169.936 366.179L170.802 365.2C172.748 366.924 174.755 368.632 176.767 370.276L175.94 371.289ZM429.496 366.182L428.631 365.203C430.575 363.48 432.511 361.694 434.385 359.894L435.288 360.836C433.402 362.646 431.454 364.444 429.496 366.179V366.182ZM164.14 360.831C162.257 359.023 160.382 357.147 158.565 355.259L159.505 354.354C161.31 356.23 163.173 358.093 165.044 359.889L164.14 360.831ZM440.864 355.264L439.923 354.359C441.723 352.488 443.512 350.552 445.237 348.606L446.216 349.472C444.478 351.43 442.678 353.38 440.865 355.264H440.864ZM153.217 349.47C151.476 347.508 149.758 345.489 148.106 343.472L149.117 342.645C150.757 344.651 152.464 346.656 154.193 348.603L153.217 349.47ZM451.326 343.47L450.315 342.644C451.964 340.628 453.591 338.554 455.153 336.481L456.197 337.264C454.626 339.353 452.986 341.441 451.327 343.468L451.326 343.47ZM143.243 337.276C141.67 335.188 140.119 333.04 138.632 330.892L139.705 330.149C141.182 332.283 142.724 334.417 144.286 336.491L143.243 337.276ZM460.814 330.87L459.74 330.128C461.222 327.984 462.677 325.786 464.069 323.593L465.171 324.292C463.772 326.501 462.305 328.714 460.813 330.872L460.814 330.87ZM134.283 324.331C132.885 322.126 131.511 319.862 130.202 317.602L131.331 316.949C132.632 319.194 133.996 321.444 135.385 323.634L134.283 324.331ZM469.266 317.545L468.137 316.892C469.442 314.634 470.718 312.324 471.927 310.027L473.082 310.635C471.866 312.948 470.582 315.273 469.266 317.546L469.266 317.545ZM126.395 310.713C125.18 308.404 123.993 306.038 122.871 303.68L124.05 303.119C125.165 305.461 126.344 307.811 127.551 310.105L126.395 310.713ZM476.615 303.572L475.436 303.012C476.553 300.662 477.638 298.255 478.66 295.859L479.861 296.371C478.833 298.78 477.738 301.206 476.615 303.572ZM119.631 296.515C118.603 294.111 117.612 291.659 116.687 289.226L117.907 288.762C118.826 291.176 119.81 293.614 120.831 296.001L119.631 296.515ZM482.814 289.041L481.594 288.578C482.519 286.137 483.406 283.648 484.229 281.183L485.469 281.596C484.638 284.079 483.745 286.584 482.814 289.041ZM114.034 281.802C113.204 279.323 112.413 276.789 111.685 274.278L112.939 273.915C113.663 276.409 114.448 278.924 115.274 281.388L114.034 281.802ZM487.808 274.068L486.554 273.706C487.272 271.216 487.954 268.671 488.577 266.142L489.843 266.453C489.217 269 488.532 271.562 487.808 274.068ZM109.64 266.665C109.013 264.123 108.43 261.537 107.907 258.976L109.186 258.715C109.708 261.26 110.284 263.829 110.907 266.353L109.64 266.665ZM491.567 258.762L490.287 258.501C490.803 255.956 491.275 253.368 491.689 250.801L492.978 251.009C492.561 253.595 492.086 256.204 491.567 258.764V258.762ZM106.484 251.222C106.066 248.646 105.694 246.02 105.378 243.418L106.674 243.262C106.987 245.846 107.357 248.454 107.773 251.013L106.484 251.222ZM494.073 243.2L492.777 243.045C493.087 240.462 493.349 237.84 493.554 235.255L494.855 235.358C494.648 237.961 494.385 240.6 494.073 243.2ZM104.592 235.577C104.381 232.97 104.221 230.323 104.115 227.709L105.42 227.656C105.526 230.252 105.685 232.882 105.895 235.472L104.592 235.577ZM495.329 227.491L494.024 227.44C494.125 224.839 494.178 222.206 494.178 219.609V219.176H495.483V219.606C495.482 222.222 495.43 224.873 495.327 227.491H495.329ZM105.252 219.828H103.947V219.608C103.947 217.063 103.997 214.484 104.095 211.948L105.4 211.998C105.303 214.518 105.254 217.079 105.254 219.611L105.252 219.828ZM494.004 211.352C493.896 208.761 493.735 206.132 493.522 203.537L494.823 203.43C495.036 206.04 495.2 208.689 495.308 211.298L494.004 211.352ZM105.856 204.182L104.555 204.08C104.76 201.47 105.021 198.828 105.329 196.236L106.625 196.39C106.319 198.965 106.06 201.586 105.856 204.182ZM492.728 195.748C492.413 193.174 492.041 190.566 491.618 187.997L492.907 187.786C493.329 190.373 493.705 192.998 494.021 195.59L492.728 195.748ZM107.706 188.635L106.417 188.429C106.831 185.844 107.303 183.235 107.82 180.672L109.099 180.933C108.585 183.478 108.116 186.071 107.705 188.638L107.706 188.635ZM490.2 180.296C489.678 177.746 489.095 175.176 488.471 172.661L489.738 172.347C490.366 174.881 490.951 177.468 491.479 180.035L490.2 180.296ZM110.804 173.288L109.536 172.978C110.156 170.438 110.841 167.875 111.562 165.359L112.816 165.72C112.096 168.221 111.42 170.766 110.804 173.289L110.804 173.288ZM486.434 165.1C485.707 162.607 484.92 160.093 484.091 157.629L485.331 157.213C486.164 159.693 486.958 162.224 487.689 164.734L486.434 165.1ZM115.134 158.244L113.894 157.832C114.72 155.347 115.61 152.841 116.538 150.384L117.759 150.845C116.838 153.286 115.954 155.775 115.134 158.244ZM481.444 150.259C480.516 147.831 479.53 145.396 478.512 143.022L479.711 142.507C480.736 144.898 481.73 147.349 482.663 149.793L481.444 150.259ZM120.685 143.561L119.484 143.05C120.51 140.639 121.6 138.215 122.723 135.846L123.902 136.405C122.787 138.759 121.704 141.166 120.685 143.561ZM475.291 135.908C474.174 133.569 472.993 131.22 471.783 128.926L472.936 128.316C474.156 130.625 475.344 132.99 476.469 135.345L475.291 135.908ZM127.405 129.386L126.25 128.78C127.466 126.461 128.748 124.134 130.058 121.863L131.188 122.515C129.887 124.772 128.614 127.084 127.406 129.387L127.405 129.386ZM467.993 122.09C466.688 119.843 465.322 117.595 463.931 115.409L465.033 114.709C466.433 116.91 467.808 119.173 469.122 121.434L467.993 122.09ZM135.245 115.808L134.142 115.111C135.542 112.897 137.006 110.682 138.493 108.528L139.567 109.269C138.091 111.41 136.637 113.61 135.245 115.809L135.245 115.808ZM459.603 108.895C458.122 106.762 456.579 104.629 455.016 102.559L456.06 101.772C457.634 103.86 459.188 106.003 460.677 108.152L459.603 108.895ZM144.148 102.911L143.103 102.128C144.676 100.035 146.312 97.9457 147.966 95.9182L148.978 96.7437C147.335 98.7568 145.709 100.833 144.149 102.912L144.148 102.911ZM450.177 96.4089C448.531 94.4003 446.82 92.3983 445.094 90.4569L446.069 89.5897C447.807 91.5441 449.528 93.5598 451.186 95.5821L450.177 96.4089ZM154.056 90.7741L153.077 89.9094C154.81 87.9518 156.607 86.0013 158.42 84.1115L159.361 85.0153C157.561 86.892 155.772 88.8301 154.054 90.7741H154.056ZM439.781 84.7105C437.975 82.8364 436.11 80.9766 434.235 79.1814L435.138 78.2391C437.024 80.0467 438.902 81.9189 440.719 83.8054L439.781 84.7105ZM164.896 79.4737L163.991 78.5334C165.874 76.7213 167.821 74.9215 169.777 73.1824L170.644 74.1613C168.697 75.886 166.763 77.674 164.892 79.4744L164.896 79.4737ZM428.474 73.8768C426.525 72.1527 424.515 70.4469 422.504 68.8064L423.328 67.7949C425.351 69.4459 427.374 71.1634 429.339 72.8992L428.474 73.8768ZM176.596 69.0805L175.768 68.071C177.791 66.4122 179.88 64.7749 181.962 63.2035L182.745 64.2476C180.677 65.8066 178.607 67.4334 176.596 69.0805ZM416.328 63.9794C414.247 62.4166 412.106 60.8772 409.968 59.4024L410.709 58.3283C412.862 59.8129 415.015 61.3627 417.112 62.936L416.328 63.9794ZM189.088 59.6608L188.344 58.588C190.497 57.0969 192.702 55.6326 194.904 54.2341L195.604 55.3357C193.417 56.7243 191.224 58.1789 189.087 59.6602L189.088 59.6608ZM403.427 55.0831C401.226 53.6932 398.968 52.33 396.715 51.0307L397.368 49.9005C399.635 51.2056 401.908 52.5806 404.124 53.9796L403.427 55.0831ZM202.287 51.2787L201.635 50.1498C203.891 48.8414 206.208 47.5591 208.519 46.3395L209.129 47.4939C206.829 48.705 204.529 49.9782 202.287 51.2787ZM389.844 47.2518C387.54 46.0439 385.178 44.8667 382.824 43.7528L383.382 42.573C385.752 43.6947 388.129 44.8797 390.449 46.0968L389.844 47.2518ZM216.109 43.989L215.547 42.8105C217.9 41.6887 220.311 40.5983 222.711 39.5699L223.225 40.7693C220.841 41.7905 218.446 42.8738 216.109 43.989ZM375.664 40.5396C373.266 39.5209 370.815 38.5388 368.379 37.6187L368.841 36.3978C371.292 37.3231 373.76 38.3131 376.174 39.3382L375.664 40.5396ZM230.465 37.8413L230 36.6216C232.442 35.6904 234.938 34.7945 237.421 33.9638L237.836 35.2036C235.37 36.0278 232.89 36.9166 230.465 37.8413ZM360.982 34.9961C358.516 34.1785 355.999 33.4 353.502 32.6828L353.862 31.4286C356.377 32.1503 358.909 32.934 361.392 33.7576L360.982 34.9961ZM245.308 32.8636L244.943 31.6106C247.453 30.8804 250.014 30.1913 252.556 29.5629L252.869 30.8295C250.345 31.4527 247.801 32.1373 245.308 32.8636ZM345.933 30.6762C343.413 30.0615 340.843 29.4898 338.29 28.9763L338.548 27.6966C341.117 28.2134 343.703 28.7896 346.242 29.4083L345.933 30.6762ZM260.506 29.1048L260.245 27.8265C262.804 27.3044 265.412 26.8235 267.998 26.4019L268.208 27.6901C265.638 28.1071 263.047 28.5834 260.506 29.1035L260.506 29.1048ZM330.584 27.587C328.018 27.1778 325.408 26.815 322.829 26.5103L322.982 25.2143C325.579 25.5216 328.203 25.8864 330.789 26.2988L330.584 27.587ZM275.958 26.5866L275.8 25.2913C278.397 24.9754 281.034 24.704 283.642 24.4958L283.748 25.7964C281.157 26.0052 278.536 26.2727 275.958 26.5853V26.5866ZM315.037 25.7448C312.45 25.5432 309.817 25.3911 307.22 25.2926L307.27 23.9875C309.887 24.0867 312.533 24.24 315.138 24.4443L315.037 25.7448ZM291.563 25.3174L291.51 24.0123C294.12 23.9046 296.771 23.8478 299.39 23.8433V25.1484C296.79 25.1529 294.155 25.2097 291.563 25.3161L291.563 25.3174Z" fill="#CCCCCC"/>
<path d="M421.264 463.201H178.507C166.373 463.187 156.492 453.888 156.479 442.47V111.462C156.492 100.043 166.374 90.7437 178.507 90.731H421.264C433.397 90.7437 443.279 100.043 443.292 111.462V442.47C443.279 453.888 433.397 463.188 421.264 463.201Z" fill="#3F3D56"/>
<path d="M423.675 443.276H176.095C172.171 443.272 168.975 440.435 168.97 436.951V119.173C168.975 115.689 172.171 112.852 176.095 112.848H423.675C427.599 112.852 430.795 115.689 430.8 119.172V436.951C430.795 440.435 427.599 443.272 423.675 443.276Z" fill="white"/>
<path d="M299.883 214.385C294.744 214.387 289.654 213.377 284.905 211.413C280.156 209.448 275.84 206.567 272.205 202.935C268.569 199.303 265.684 194.99 263.715 190.242C261.746 185.495 260.732 180.406 260.729 175.267V175.232C260.729 175.15 260.73 175.063 260.734 174.981C260.783 167.248 263.122 159.703 267.454 153.297C271.786 146.891 277.918 141.912 285.076 138.987C292.235 136.062 300.1 135.322 307.678 136.861C315.256 138.4 322.21 142.148 327.66 147.634C333.111 153.119 336.815 160.096 338.306 167.684C339.796 175.272 339.007 183.132 336.036 190.272C333.065 197.411 328.047 203.512 321.614 207.803C315.181 212.094 307.621 214.384 299.887 214.384H299.883V214.385ZM299.883 136.902C289.764 136.925 280.063 140.94 272.887 148.075C265.711 155.21 261.641 164.888 261.561 175.007C261.556 175.094 261.556 175.166 261.556 175.231C261.556 182.812 263.803 190.224 268.015 196.528C272.226 202.831 278.213 207.745 285.217 210.647C292.221 213.548 299.928 214.308 307.364 212.83C314.799 211.351 321.63 207.701 326.991 202.34C332.352 196.98 336.003 190.15 337.483 182.714C338.962 175.279 338.204 167.572 335.303 160.567C332.402 153.563 327.49 147.576 321.186 143.363C314.883 139.151 307.472 136.902 299.891 136.902H299.883Z" fill="#E4E4E4"/>
<path d="M222.824 253.666V241.268C222.824 240.57 222.547 239.9 222.053 239.406C221.559 238.912 220.89 238.635 220.191 238.635C219.493 238.635 218.823 238.912 218.329 239.406C217.836 239.9 217.558 240.57 217.558 241.268V253.666C216.519 254.249 215.703 255.159 215.237 256.255C214.771 257.351 214.681 258.571 214.982 259.723C215.283 260.875 215.958 261.895 216.901 262.623C217.843 263.351 219 263.746 220.191 263.746C221.382 263.746 222.539 263.351 223.482 262.623C224.424 261.895 225.099 260.875 225.4 259.723C225.701 258.571 225.611 257.351 225.145 256.255C224.679 255.159 223.863 254.249 222.824 253.666Z" fill="#3DAF5B"/>
<path d="M219.28 241.268C219.299 241.043 219.402 240.834 219.568 240.681C219.735 240.529 219.952 240.444 220.178 240.444C220.403 240.444 220.62 240.529 220.787 240.681C220.953 240.834 221.056 241.043 221.075 241.268V249.268H219.28V241.268Z" fill="white"/>
<path opacity="0.999" d="M390.658 250.316H243.13V252.058H390.658V250.316Z" fill="#E6E6E6"/>
<path d="M291.49 255.321C293.771 255.321 295.621 253.472 295.621 251.19C295.621 248.909 293.771 247.06 291.49 247.06C289.209 247.06 287.359 248.909 287.359 251.19C287.359 253.472 289.209 255.321 291.49 255.321Z" fill="#3DAF5B"/>
<path d="M291.491 250.316H243.13V252.058H291.491V250.316Z" fill="#3DAF5B"/>
<path d="M390.658 299.26H243.13V301.003H390.658V299.26Z" fill="#E6E6E6"/>
<path d="M328.033 304.267C330.314 304.267 332.164 302.417 332.164 300.136C332.164 297.855 330.314 296.005 328.033 296.005C325.752 296.005 323.902 297.855 323.902 300.136C323.902 302.417 325.752 304.267 328.033 304.267Z" fill="#3DAF5B"/>
<path d="M328.432 299.26H243.13V301.003H328.432V299.26Z" fill="#3DAF5B"/>
<path d="M390.658 344.95H243.13V346.692H390.658V344.95Z" fill="#E6E6E6"/>
<path d="M368.492 349.948C370.773 349.948 372.623 348.099 372.623 345.818C372.623 343.536 370.773 341.687 368.492 341.687C366.211 341.687 364.361 343.536 364.361 345.818C364.361 348.099 366.211 349.948 368.492 349.948Z" fill="#3DAF5B"/>
<path d="M368.891 344.95H243.13V346.692H368.891V344.95Z" fill="#3DAF5B"/>
<path d="M390.658 390.387H243.13V392.129H390.658V390.387Z" fill="#E6E6E6"/>
<path d="M291.49 395.385C293.771 395.385 295.621 393.536 295.621 391.254C295.621 388.973 293.771 387.124 291.49 387.124C289.209 387.124 287.359 388.973 287.359 391.254C287.359 393.536 289.209 395.385 291.49 395.385Z" fill="#3DAF5B"/>
<path d="M291.491 390.387H243.13V392.129H291.491V390.387Z" fill="#3DAF5B"/>
<path d="M536.631 362.817C536.03 363.249 535.34 363.543 534.612 363.677C533.884 363.811 533.136 363.782 532.42 363.592C531.784 363.423 531.188 363.13 530.665 362.731C530.142 362.331 529.703 361.833 529.373 361.263C529.043 360.694 528.828 360.066 528.741 359.414C528.654 358.761 528.696 358.098 528.865 357.463C528.883 357.397 528.902 357.331 528.922 357.266C528.996 357.03 529.088 356.801 529.197 356.58L519.347 312.358C519.199 311.852 519.152 311.322 519.209 310.797C519.266 310.273 519.426 309.765 519.679 309.302C519.933 308.84 520.275 308.432 520.687 308.102C521.098 307.772 521.571 307.526 522.077 307.379C522.584 307.231 523.115 307.186 523.639 307.244C524.163 307.302 524.671 307.463 525.133 307.717C525.595 307.972 526.002 308.315 526.331 308.727C526.66 309.14 526.905 309.613 527.051 310.12L527.059 310.146L536.357 354.502C537.055 354.937 537.636 355.537 538.047 356.249C538.459 356.962 538.688 357.765 538.715 358.587C538.742 359.409 538.566 360.225 538.203 360.963C537.84 361.701 537.3 362.338 536.632 362.818L536.631 362.817Z" fill="#FEB8B8"/>
<path d="M549.711 457.696H544.368L541.823 437.089H549.709L549.711 457.696Z" fill="#A0616A"/>
<path d="M551.073 462.877H533.846V462.659C533.846 460.881 534.552 459.175 535.81 457.918C537.067 456.661 538.772 455.954 540.55 455.954H551.073L551.073 462.877Z" fill="#A0616A"/>
<path d="M549.711 457.696H544.368L541.823 437.089H549.709L549.711 457.696Z" fill="#FEB8B8"/>
<path d="M551.073 462.877H533.846V462.659C533.846 460.881 534.552 459.175 535.81 457.918C537.067 456.661 538.772 455.954 540.55 455.954H551.073L551.073 462.877Z" fill="#2F2E41"/>
<path d="M496.15 457.528L491.066 455.883L494.99 435.495L502.495 437.921L496.15 457.528Z" fill="#A0616A"/>
<path d="M495.852 462.874L479.464 457.572L479.529 457.364C480.077 455.673 481.274 454.267 482.857 453.458C484.44 452.649 486.28 452.501 487.972 453.048L497.982 456.287L495.852 462.874Z" fill="#A0616A"/>
<path d="M496.15 457.528L491.066 455.883L494.99 435.495L502.495 437.921L496.15 457.528Z" fill="#FEB8B8"/>
<path d="M495.852 462.874L479.464 457.572L479.529 457.364C480.077 455.673 481.274 454.267 482.857 453.458C484.44 452.649 486.28 452.501 487.972 453.048L497.982 456.287L495.852 462.874Z" fill="#2F2E41"/>
<path d="M519.312 300.423C524.29 300.423 528.325 296.387 528.325 291.41C528.325 286.432 524.29 282.396 519.312 282.396C514.334 282.396 510.299 286.432 510.299 291.41C510.299 296.387 514.334 300.423 519.312 300.423Z" fill="#FEB8B8"/>
<path d="M532.234 326.449C533.488 321.794 527.748 307.193 527.279 305.341C525.041 304.825 519.856 305.815 516.668 305.158C512.136 308.943 508.531 314.354 506.04 316.92C503.449 319.589 501.779 321.398 504.456 327.644C506.432 332.562 507.294 337.856 506.979 343.147L509.143 362.255C509.143 362.255 500.13 387.492 500.851 404.438L492.559 445.899C493.325 447.136 494.526 448.044 495.925 448.444C497.325 448.844 498.823 448.708 500.128 448.062C500.128 448.062 512.026 426.789 510.944 411.288L523.924 382.445C523.924 382.445 532.937 409.845 535.461 412.369L541.951 451.307C541.951 451.307 548.079 453.109 550.964 451.307C550.964 451.307 552.045 413.812 545.916 407.682C545.916 407.682 539.787 381.724 541.23 374.873C542.672 368.023 543.033 357.568 532.216 348.194C532.216 348.194 532.325 348.244 528.972 342.066L532.234 326.449Z" fill="#2F2E41"/>
<path d="M524.014 277.479C523.509 277.48 523.005 277.53 522.509 277.629C521.614 277.194 520.632 276.968 519.638 276.966H519.377C514.347 276.966 510.27 281.518 510.27 287.132H511.955L512.227 285.06L512.626 287.132H514.03C513.593 288.793 513.374 290.504 513.377 292.222V302.572H515.922L517.397 298.738L517.029 302.572H533.408L534.749 299.087L534.414 302.572H536.258V294.448C536.258 285.076 530.775 277.479 524.014 277.479Z" fill="#2F2E41"/>
<path d="M506.025 367.939C505.292 368.049 504.545 367.995 503.836 367.782C503.127 367.569 502.475 367.201 501.925 366.706C501.436 366.265 501.039 365.733 500.756 365.138C500.473 364.544 500.31 363.9 500.276 363.243C500.242 362.586 500.338 361.929 500.558 361.309C500.778 360.689 501.118 360.118 501.559 359.629C501.605 359.579 501.652 359.529 501.699 359.48C501.873 359.304 502.06 359.142 502.258 358.994L513.678 315.153C513.883 314.109 514.494 313.189 515.377 312.596C516.26 312.003 517.342 311.784 518.386 311.989C519.43 312.194 520.35 312.805 520.943 313.688C521.537 314.571 521.755 315.654 521.55 316.698L521.549 316.704L509.576 360.414C509.999 361.119 510.241 361.918 510.282 362.74C510.323 363.561 510.161 364.38 509.81 365.124C509.458 365.868 508.929 366.514 508.269 367.005C507.609 367.495 506.838 367.816 506.025 367.938V367.939Z" fill="#FEB8B8"/>
<path d="M84.121 463.736C85.8721 463.736 87.2917 461.877 87.2917 459.584C87.2917 457.291 85.8721 455.433 84.121 455.433C82.3698 455.433 80.9502 457.291 80.9502 459.584C80.9502 461.877 82.3698 463.736 84.121 463.736Z" fill="#F0F0F0"/>
<path d="M95.9944 413.186C98.0991 410.507 99.2432 407.199 99.2432 403.792C99.2432 400.385 98.0991 397.077 95.9944 394.399L95.993 394.395C96.4257 393.841 96.8208 393.26 97.1755 392.654L88.8359 391.279L97.8535 391.347C98.717 389.465 99.1879 387.426 99.2375 385.356C99.2871 383.285 98.9143 381.226 98.1419 379.305L86.054 385.582L97.2067 377.381C96.162 375.573 94.7564 374.001 93.0773 372.761C91.3982 371.521 89.4816 370.64 87.4472 370.173C85.4127 369.706 83.3039 369.663 81.2521 370.047C79.2004 370.431 77.2497 371.234 75.5217 372.405C73.7937 373.576 72.3254 375.09 71.2084 376.853C70.0913 378.617 69.3494 380.591 69.0289 382.654C68.7084 384.716 68.8161 386.823 69.3455 388.842C69.8748 390.861 70.8144 392.749 72.1056 394.389C71.4337 395.243 70.8532 396.164 70.3738 397.139L81.1971 402.761L69.6559 398.917C68.8459 401.311 68.6455 403.87 69.0727 406.361C69.5 408.852 70.5415 411.198 72.103 413.186C70.4881 415.24 69.4301 417.675 69.0313 420.258C68.6325 422.84 68.9065 425.481 69.8266 427.927C70.7467 430.372 72.282 432.539 74.284 434.218C76.2861 435.897 78.6873 437.031 81.2557 437.511C81.052 438.079 80.9485 438.678 80.9498 439.281C80.9416 440.172 81.1713 441.048 81.6154 441.82C81.179 442.595 80.9498 443.47 80.9498 444.359C80.9499 445.249 81.1793 446.123 81.6158 446.898C81.1796 447.672 80.9502 448.546 80.9498 449.435C80.9494 450.324 81.178 451.198 81.6135 451.973C81.1708 452.744 80.9416 453.619 80.9498 454.508C80.9498 456.801 82.3693 458.66 84.1205 458.66C85.8717 458.66 87.2912 456.801 87.2912 454.508C86.8561 453.734 86.6275 452.861 86.6275 451.973C86.6275 451.084 86.8561 450.211 87.2912 449.437C87.2994 448.547 87.0695 447.67 86.6253 446.898C87.0618 446.123 87.2912 445.249 87.2912 444.359C87.2913 443.47 87.062 442.595 86.6256 441.82C87.0697 441.048 87.2995 440.172 87.2912 439.281C87.2926 438.668 87.1855 438.059 86.9748 437.482C89.5276 436.982 91.9092 435.835 93.8914 434.151C95.8736 432.466 97.39 430.301 98.2953 427.862C99.2006 425.424 99.4645 422.793 99.0616 420.223C98.6587 417.654 97.6025 415.23 95.9944 413.186Z" fill="#F0F0F0"/>
<path opacity="0.05" d="M68.8565 403.788C68.85 407.196 69.995 410.506 72.1056 413.181C70.3435 415.423 69.2477 418.115 68.9433 420.95C68.6389 423.785 69.1383 426.648 70.3844 429.212C71.6304 431.777 73.5729 433.939 75.9897 435.452C78.4065 436.964 81.2001 437.767 84.0513 437.767C86.9024 437.767 89.6961 436.964 92.1129 435.452C94.5297 433.939 96.4721 431.777 97.7182 429.212C98.9642 426.648 99.4636 423.785 99.1592 420.95C98.8549 418.115 97.759 415.423 95.997 413.181C98.0317 410.597 68.8565 402.083 68.8565 403.788Z" fill="black"/>
<path d="M58.2852 424.245L58.281 424.241C58.522 423.932 58.742 423.608 58.9396 423.27L54.2933 422.504L59.3182 422.543C59.7991 421.494 60.0614 420.358 60.0889 419.205C60.1165 418.051 59.9088 416.904 59.4784 415.834L52.7442 419.332L58.9578 414.764C58.3758 413.757 57.5926 412.881 56.6571 412.19C55.7216 411.499 54.6538 411.008 53.5203 410.748C52.3868 410.488 51.2119 410.464 50.0688 410.678C48.9257 410.892 47.8389 411.339 46.8761 411.992C45.9134 412.644 45.0953 413.488 44.4729 414.47C43.8506 415.452 43.4372 416.552 43.2586 417.702C43.0801 418.851 43.1401 420.024 43.435 421.149C43.7299 422.274 44.2534 423.326 44.9728 424.24C44.5984 424.716 44.2749 425.229 44.0076 425.772L50.038 428.904L43.6097 426.762C43.1583 428.096 43.0465 429.522 43.2845 430.91C43.5225 432.298 44.1028 433.605 44.9728 434.712C44.0723 435.856 43.4824 437.214 43.26 438.652C43.0377 440.091 43.1904 441.563 43.7035 442.926C44.2166 444.288 45.0727 445.495 46.1889 446.43C47.305 447.365 48.6436 447.996 50.075 448.261C49.9593 448.578 49.9 448.912 49.8998 449.249C50.1476 449.68 50.278 450.168 50.278 450.664C50.278 451.161 50.1476 451.649 49.8998 452.079C50.1473 452.509 50.2777 452.997 50.2777 453.493C50.2777 453.989 50.1473 454.477 49.8998 454.907C50.1467 455.337 50.2767 455.824 50.2767 456.32C50.2767 456.816 50.1467 457.303 49.8998 457.733C50.1473 458.163 50.2777 458.651 50.2777 459.147C50.2777 459.643 50.1473 460.131 49.8998 460.561C49.8998 461.838 50.6906 462.874 51.6662 462.874C52.6416 462.874 53.4327 461.838 53.4327 460.561C53.1849 460.131 53.0545 459.643 53.0545 459.147C53.0545 458.65 53.1849 458.163 53.4327 457.733C53.1855 457.303 53.0554 456.816 53.0554 456.32C53.0554 455.824 53.1855 455.337 53.4327 454.907C53.1849 454.477 53.0545 453.989 53.0545 453.493C53.0545 452.997 53.1849 452.509 53.4327 452.079C53.1847 451.649 53.0542 451.161 53.0542 450.664C53.0542 450.168 53.1847 449.68 53.4327 449.249C53.4322 448.907 53.3706 448.567 53.2508 448.245C54.6741 447.969 56.0025 447.332 57.1085 446.394C58.2145 445.457 59.0609 444.251 59.5665 442.892C60.072 441.533 60.2196 440.067 59.9952 438.635C59.7709 437.202 59.182 435.852 58.2851 434.712C59.4577 433.22 60.0951 431.377 60.0951 429.479C60.0951 427.581 59.4578 425.738 58.2852 424.245Z" fill="#F0F0F0"/>
<path d="M119.646 435.527L119.642 435.523C119.827 435.285 119.997 435.036 120.149 434.776L116.573 434.189L120.44 434.218C120.81 433.411 121.012 432.537 121.033 431.649C121.055 430.761 120.895 429.878 120.564 429.054L115.38 431.746L120.163 428.229C119.716 427.453 119.113 426.778 118.393 426.245C117.673 425.712 116.851 425.333 115.978 425.133C115.105 424.932 114.2 424.913 113.319 425.078C112.439 425.242 111.602 425.587 110.86 426.089C110.119 426.592 109.489 427.242 109.01 427.998C108.531 428.755 108.213 429.603 108.076 430.488C107.939 431.373 107.986 432.277 108.214 433.143C108.442 434.01 108.846 434.82 109.401 435.523C109.112 435.889 108.864 436.284 108.658 436.702L113.299 439.113L108.351 437.465C108.004 438.491 107.918 439.589 108.101 440.657C108.284 441.725 108.731 442.731 109.401 443.584C108.708 444.464 108.253 445.509 108.082 446.616C107.911 447.724 108.028 448.857 108.423 449.906C108.818 450.954 109.477 451.883 110.336 452.603C111.195 453.323 112.226 453.808 113.328 454.013C113.238 454.257 113.193 454.514 113.192 454.774C113.383 455.105 113.484 455.481 113.484 455.863C113.484 456.245 113.383 456.621 113.192 456.952C113.383 457.283 113.484 457.658 113.484 458.04C113.484 458.423 113.383 458.798 113.192 459.129C113.383 459.46 113.483 459.835 113.483 460.216C113.483 460.598 113.383 460.972 113.192 461.303C113.192 462.286 113.801 463.083 114.552 463.083C115.304 463.083 115.912 462.286 115.912 461.303C115.722 460.972 115.622 460.598 115.622 460.216C115.622 459.835 115.722 459.46 115.912 459.129C115.722 458.798 115.621 458.422 115.621 458.04C115.621 457.658 115.722 457.283 115.912 456.952C115.722 456.621 115.621 456.245 115.621 455.863C115.621 455.481 115.722 455.105 115.912 454.774C115.912 454.51 115.865 454.248 115.772 454C116.868 453.787 117.89 453.297 118.741 452.575C119.592 451.853 120.244 450.925 120.633 449.879C121.022 448.833 121.135 447.705 120.962 446.602C120.789 445.5 120.336 444.46 119.646 443.584C120.548 442.435 121.039 441.016 121.039 439.555C121.039 438.094 120.548 436.676 119.646 435.527Z" fill="#F0F0F0"/>
<path d="M299.559 106.604C298.379 106.598 297.237 106.184 296.329 105.431C295.42 104.678 294.8 103.633 294.575 102.475C294.35 101.316 294.534 100.115 295.095 99.0771C295.656 98.0387 296.559 97.227 297.652 96.7802C298.744 96.3333 299.957 96.2791 301.085 96.6265C302.213 96.974 303.186 97.7018 303.837 98.6859C304.489 99.67 304.779 100.849 304.658 102.023C304.538 103.197 304.014 104.293 303.176 105.124C302.7 105.597 302.135 105.97 301.515 106.224C300.894 106.478 300.23 106.607 299.559 106.604Z" fill="white"/>
<path d="M570.069 463.737H29.6294C29.5377 463.747 29.4449 463.738 29.3571 463.71C29.2693 463.682 29.1884 463.635 29.1197 463.574C29.051 463.512 28.996 463.437 28.9584 463.352C28.9208 463.268 28.9014 463.177 28.9014 463.085C28.9014 462.992 28.9208 462.901 28.9584 462.817C28.996 462.733 29.051 462.657 29.1197 462.596C29.1884 462.534 29.2693 462.488 29.3571 462.46C29.4449 462.431 29.5377 462.422 29.6294 462.432H570.069C570.16 462.422 570.253 462.431 570.341 462.46C570.429 462.488 570.51 462.534 570.578 462.596C570.647 462.657 570.702 462.733 570.74 462.817C570.777 462.901 570.797 462.992 570.797 463.085C570.797 463.177 570.777 463.268 570.74 463.352C570.702 463.437 570.647 463.512 570.578 463.574C570.51 463.635 570.429 463.682 570.341 463.71C570.253 463.738 570.16 463.747 570.069 463.737Z" fill="#E6E6E6"/>
<path d="M220.191 260.945C221.633 260.945 222.802 259.776 222.802 258.334C222.802 256.893 221.633 255.724 220.191 255.724C218.75 255.724 217.581 256.893 217.581 258.334C217.581 259.776 218.75 260.945 220.191 260.945Z" fill="white"/>
<path d="M226.413 297.488C226.456 298.243 226.345 298.999 226.086 299.709C225.826 300.42 225.425 301.07 224.905 301.62C224.386 302.169 223.76 302.608 223.066 302.907C222.371 303.206 221.623 303.361 220.866 303.361C220.11 303.361 219.362 303.206 218.667 302.907C217.973 302.608 217.346 302.169 216.827 301.62C216.308 301.07 215.906 300.42 215.647 299.709C215.388 298.999 215.276 298.243 215.32 297.488C215.32 294.244 220.54 290.962 220.54 285.089C220.54 282.026 226.413 294.244 226.413 297.488Z" fill="#3DAF5B"/>
<path d="M224.195 297.39C224.22 297.844 224.154 298.297 223.998 298.724C223.842 299.15 223.601 299.54 223.29 299.87C222.978 300.2 222.603 300.463 222.186 300.642C221.769 300.822 221.32 300.915 220.866 300.915C220.412 300.915 219.963 300.822 219.546 300.642C219.13 300.463 218.754 300.2 218.442 299.87C218.131 299.54 217.89 299.15 217.734 298.724C217.579 298.297 217.512 297.844 217.538 297.39C217.538 295.444 220.67 293.475 220.67 289.95C220.67 288.112 224.195 295.444 224.195 297.39Z" fill="white"/>
<path d="M220.187 335.05C215.717 335.05 212.115 338.41 212.115 342.567C212.125 343.806 212.445 345.023 213.047 346.107C213.649 347.19 214.513 348.104 215.561 348.767V351.201C215.571 351.496 215.698 351.776 215.915 351.978C216.131 352.18 216.419 352.288 216.714 352.277L216.716 352.277H223.659C223.955 352.288 224.243 352.181 224.459 351.979C224.676 351.777 224.803 351.498 224.814 351.202L224.814 351.201V348.767C225.863 348.106 226.73 347.192 227.333 346.109C227.936 345.025 228.257 343.807 228.266 342.567C228.266 338.41 224.657 335.05 220.187 335.05Z" fill="#3DAF5B"/>
<path d="M220.189 337.027C216.745 337.027 213.97 339.616 213.97 342.819C213.977 343.774 214.224 344.711 214.688 345.546C215.151 346.38 215.817 347.085 216.624 347.595V349.47C216.628 349.583 216.654 349.694 216.701 349.797C216.748 349.9 216.814 349.992 216.897 350.069C216.979 350.146 217.076 350.206 217.182 350.246C217.288 350.286 217.4 350.304 217.513 350.3H217.514H222.864C223.092 350.308 223.313 350.225 223.48 350.07C223.647 349.915 223.745 349.699 223.754 349.471V349.47V347.595C224.562 347.086 225.23 346.382 225.694 345.547C226.159 344.712 226.406 343.774 226.413 342.819C226.413 339.616 223.633 337.027 220.189 337.027Z" fill="white"/>
<path d="M216.95 353.281C216.777 353.281 216.611 353.35 216.489 353.472C216.367 353.595 216.298 353.761 216.298 353.934C216.298 354.107 216.367 354.273 216.489 354.395C216.611 354.518 216.777 354.586 216.95 354.586H223.476C223.649 354.586 223.815 354.518 223.937 354.395C224.06 354.273 224.129 354.107 224.129 353.934C224.129 353.761 224.06 353.595 223.937 353.472C223.815 353.35 223.649 353.281 223.476 353.281H216.95Z" fill="#3DAF5B"/>
<path d="M216.95 355.892C216.777 355.892 216.611 355.96 216.489 356.083C216.367 356.205 216.298 356.371 216.298 356.544C216.298 356.717 216.367 356.883 216.489 357.006C216.611 357.128 216.777 357.197 216.95 357.197H223.476C223.649 357.197 223.815 357.128 223.937 357.006C224.06 356.883 224.129 356.717 224.129 356.544C224.129 356.371 224.06 356.205 223.937 356.083C223.815 355.96 223.649 355.892 223.476 355.892H216.95Z" fill="#3DAF5B"/>
<path d="M224.745 381.668L224.938 381.184C225.009 381.008 225.035 380.818 225.015 380.629C224.994 380.441 224.928 380.26 224.822 380.103C224.716 379.946 224.573 379.818 224.405 379.729C224.238 379.64 224.051 379.594 223.862 379.594H215.967C215.66 379.594 215.365 379.716 215.147 379.933C214.93 380.151 214.808 380.446 214.808 380.753V381.668H224.745Z" fill="#3DAF5B"/>
<path d="M223.699 388.56C223.509 388.56 223.323 388.513 223.155 388.424C222.988 388.335 222.845 388.207 222.739 388.05C222.632 387.893 222.566 387.713 222.546 387.524C222.526 387.336 222.552 387.145 222.622 386.969L223.961 383.625H214.808V390.989C214.808 391.141 214.838 391.292 214.896 391.433C214.954 391.574 215.04 391.701 215.147 391.809C215.255 391.917 215.383 392.002 215.523 392.06C215.664 392.119 215.815 392.149 215.967 392.149H217.237C217.545 392.149 217.84 392.271 218.057 392.488C218.275 392.706 218.397 393.001 218.397 393.308V398.004C218.397 398.265 218.485 398.519 218.647 398.724C218.809 398.929 219.036 399.073 219.29 399.133C219.544 399.193 219.811 399.165 220.048 399.054C220.284 398.944 220.476 398.756 220.593 398.523L224.736 390.238C224.824 390.061 224.866 389.864 224.857 389.667C224.848 389.469 224.789 389.278 224.685 389.109C224.581 388.941 224.436 388.803 224.263 388.706C224.091 388.61 223.896 388.56 223.699 388.56Z" fill="#3DAF5B"/>
<path d="M215.972 304.339C215.712 304.339 215.463 304.443 215.28 304.626C215.096 304.81 214.993 305.059 214.993 305.318C214.993 305.578 215.096 305.827 215.28 306.01C215.463 306.194 215.712 306.297 215.972 306.297H225.108C225.367 306.297 225.616 306.194 225.8 306.01C225.984 305.827 226.087 305.578 226.087 305.318C226.087 305.059 225.984 304.81 225.8 304.626C225.616 304.443 225.367 304.339 225.108 304.339H215.972Z" fill="#3DAF5B"/>
<path d="M215.972 308.255C215.712 308.255 215.463 308.358 215.28 308.542C215.096 308.725 214.993 308.974 214.993 309.234C214.993 309.493 215.096 309.742 215.28 309.926C215.463 310.109 215.712 310.213 215.972 310.213H225.108C225.367 310.213 225.616 310.109 225.8 309.926C225.984 309.742 226.087 309.493 226.087 309.234C226.087 308.974 225.984 308.725 225.8 308.542C225.616 308.358 225.367 308.255 225.108 308.255H215.972Z" fill="#3DAF5B"/>
<path d="M302.762 186.553C303.122 186.553 303.414 186.261 303.414 185.901C303.414 185.54 303.122 185.248 302.762 185.248C302.402 185.248 302.109 185.54 302.109 185.901C302.109 186.261 302.402 186.553 302.762 186.553Z" fill="#3DAF5B"/>
<path d="M317.319 174.103L300.325 158.417C300.204 158.305 300.046 158.244 299.882 158.244C299.718 158.244 299.56 158.305 299.439 158.417L291.669 165.592V162.408C291.669 162.235 291.6 162.069 291.478 161.947C291.356 161.824 291.19 161.756 291.016 161.756H289.711C289.538 161.756 289.372 161.824 289.25 161.947C289.128 162.069 289.059 162.235 289.059 162.408V168.002L282.451 174.104C282.355 174.193 282.287 174.309 282.258 174.437C282.228 174.565 282.238 174.698 282.286 174.821C282.334 174.943 282.417 175.048 282.526 175.122C282.634 175.196 282.763 175.236 282.894 175.236H286.165C286.338 175.236 286.504 175.304 286.627 175.427C286.749 175.549 286.818 175.715 286.818 175.888V191.804C286.818 191.977 286.886 192.143 287.009 192.265C287.131 192.388 287.297 192.457 287.47 192.457H312.293C312.467 192.457 312.632 192.388 312.755 192.265C312.877 192.143 312.946 191.977 312.946 191.804V175.888C312.946 175.715 313.015 175.549 313.137 175.427C313.26 175.304 313.426 175.236 313.599 175.236H316.876C317.007 175.236 317.135 175.196 317.244 175.122C317.352 175.048 317.436 174.943 317.484 174.821C317.532 174.698 317.541 174.564 317.512 174.437C317.482 174.309 317.415 174.193 317.319 174.103ZM296.228 180.972H303.536C303.709 180.972 303.875 181.04 303.998 181.163C304.12 181.285 304.189 181.451 304.189 181.624V191.151H295.575V181.624C295.575 181.451 295.644 181.285 295.766 181.163C295.888 181.04 296.054 180.972 296.228 180.972Z" fill="#3DAF5B"/>
</svg>
