<svg width="75" height="75" viewBox="0 0 75 75" fill="none" xmlns="http://www.w3.org/2000/svg">
<path d="M56.6762 65.9598C49.5862 65.7498 46.7662 58.5398 37.8462 57.6398C37.2462 57.5798 36.7162 57.5598 36.1962 57.5398C30.6062 57.3098 28.6662 58.4198 24.3862 58.4598C22.0762 58.4898 19.9062 58.5098 17.3362 57.4798C16.1962 57.0198 12.8762 55.6098 10.7362 51.9298C10.2662 51.1198 8.22623 47.4098 9.31623 42.8398C10.1662 39.2598 12.5362 37.0698 13.7762 35.9098C14.7862 34.9698 15.3362 34.6898 16.4762 33.8498C17.7262 32.9298 21.7462 29.9698 23.5962 26.5898C26.4562 21.3698 22.6462 17.8898 25.8962 12.7498C27.1562 10.7598 28.7662 9.66978 29.5862 9.12978C33.7762 6.35978 38.2962 6.83979 39.9562 7.0198C47.6062 7.8198 52.3762 13.3198 53.1662 14.2598C58.6162 20.7498 59.1162 29.7098 59.2662 32.4998C59.3162 33.4598 59.4362 36.8798 60.5062 41.3698C60.6562 41.9898 60.7862 42.5398 61.0062 43.2998C62.2962 47.6698 64.6362 52.1098 65.3862 53.5298C65.5662 53.8798 66.0062 54.6898 66.2662 55.8598C66.3062 56.0598 66.5662 57.1698 66.4462 58.3298C66.1762 61.0498 64.3962 62.8098 63.9562 63.2498C61.2262 65.9598 57.4062 65.9598 56.6762 65.9398V65.9598Z" fill="#3DAF5B"/>
<path d="M44.5762 71.76L49.3762 57.99H29.1062L33.9162 71.76H44.5762Z" fill="white"/>
<path d="M44.5762 72.8199H33.9263C33.4763 72.8199 33.0763 72.5299 32.9263 72.1099L28.1163 58.3399C28.0063 58.0199 28.0563 57.6599 28.2563 57.3699C28.4563 57.0799 28.7763 56.9199 29.1263 56.9199H49.3963C49.7363 56.9199 50.0663 57.0899 50.2663 57.3699C50.4663 57.6499 50.5163 58.0099 50.4063 58.3399L45.5963 72.1099C45.4463 72.5399 45.0463 72.8199 44.5963 72.8199H44.5762ZM34.6763 70.6899H43.8262L47.8963 59.0399H30.6163L34.6863 70.6899H34.6763Z" fill="#192232"/>
<path d="M50.6062 53.6099H27.8762V57.9899H50.6062V53.6099Z" fill="white"/>
<path d="M50.6162 59.0498H27.8762C27.2862 59.0498 26.8162 58.5698 26.8162 57.9898V53.6098C26.8162 53.0198 27.2962 52.5498 27.8762 52.5498H50.6062C51.1962 52.5498 51.6662 53.0298 51.6662 53.6098V57.9898C51.6662 58.5798 51.1862 59.0498 50.6062 59.0498H50.6162ZM28.9462 56.9198H49.5562V54.6698H28.9362V56.9198H28.9462Z" fill="#192232"/>
<path d="M40.2462 54.2398C40.1062 54.2398 39.9662 54.2098 39.8262 54.1498C39.2862 53.9198 39.0362 53.2998 39.2662 52.7598C42.2762 45.6898 39.7762 41.5698 37.3562 37.5798C34.5762 32.9998 31.7062 28.2598 40.1362 20.6598C40.5762 20.2698 41.2462 20.2998 41.6362 20.7398C42.0262 21.1798 41.9962 21.8498 41.5562 22.2398C34.4362 28.6598 36.4262 31.9398 39.1762 36.4798C41.6162 40.5098 44.6662 45.5298 41.2262 53.5998C41.0562 53.9998 40.6662 54.2499 40.2462 54.2499V54.2398Z" fill="#192232"/>
<path d="M58.7162 21.32C52.0762 26.04 41.0062 21.86 41.0062 21.86C41.0062 21.86 40.7062 10.0301 47.3462 5.31006C53.9862 0.590062 65.0562 4.77002 65.0562 4.77002C65.0562 4.77002 65.3562 16.6 58.7162 21.32Z" fill="white"/>
<path d="M50.5062 24.6398C45.4462 24.6398 40.9262 22.9698 40.6262 22.8598C40.2262 22.7098 39.9462 22.3298 39.9362 21.8898C39.9262 21.3798 39.6962 9.43975 46.7262 4.44975C53.7462 -0.540248 64.9562 3.60977 65.4262 3.77977C65.8262 3.92977 66.1062 4.3098 66.1162 4.7498C66.1262 5.2598 66.3562 17.1998 59.3262 22.1898C56.7062 24.0498 53.5062 24.6398 50.4962 24.6398H50.5062ZM42.0762 21.0998C44.5262 21.8798 52.9162 24.1398 58.1062 20.4598C63.2962 16.7798 63.9262 8.10978 63.9962 5.53978C61.5462 4.75978 53.1562 2.49981 47.9662 6.1898C42.7762 9.8698 42.1462 18.5398 42.0762 21.1098V21.0998Z" fill="#192232"/>
<path d="M65.0562 4.78003C55.5262 7.02003 46.9262 12.43 41.0062 21.87L65.0562 4.78003Z" fill="white"/>
<path d="M40.9962 22.92C40.8062 22.92 40.6062 22.87 40.4362 22.76C39.9362 22.45 39.7862 21.79 40.0962 21.3C45.7562 12.28 54.2962 6.20998 64.8062 3.73998C65.3762 3.60998 65.9462 3.95996 66.0862 4.52996C66.2162 5.09996 65.8662 5.66999 65.2962 5.80999C55.3462 8.14999 47.2562 13.89 41.8962 22.43C41.6962 22.75 41.3462 22.93 40.9962 22.93V22.92Z" fill="#192232"/>
<path d="M51.2662 46.42C46.8162 47.73 41.6262 43.43 41.6262 43.43C41.6262 43.43 43.6562 37 48.1062 35.69C52.5562 34.38 57.7462 38.68 57.7462 38.68C57.7462 38.68 55.7162 45.11 51.2662 46.42Z" fill="white"/>
<path d="M49.4762 47.7298C45.2062 47.7298 41.1362 44.4098 40.9462 44.2498C40.6162 43.9698 40.4762 43.5198 40.6062 43.1098C40.6962 42.8298 42.8662 36.1198 47.7962 34.6698C52.7362 33.2198 58.1862 37.6698 58.4162 37.8598C58.7462 38.1398 58.8862 38.5898 58.7562 38.9998C58.6662 39.2798 56.4962 45.9898 51.5662 47.4398C50.8762 47.6398 50.1762 47.7298 49.4762 47.7298ZM42.8862 43.0498C44.2862 44.0398 47.9062 46.2998 50.9562 45.3998C54.0162 44.4998 55.8362 40.6498 56.4662 39.0498C55.0662 38.0598 51.4462 35.7998 48.3962 36.6998C45.3362 37.5998 43.5162 41.4498 42.8862 43.0498Z" fill="#192232"/>
<path d="M57.7462 38.67C52.1962 38.11 46.5562 39.43 41.6262 43.42L57.7462 38.67Z" fill="white"/>
<path d="M41.6262 44.4898C41.3162 44.4898 41.0062 44.3598 40.7962 44.0998C40.4262 43.6398 40.4962 42.9698 40.9562 42.6098C45.7662 38.7198 51.6162 36.9998 57.8562 37.6298C58.4362 37.6898 58.8662 38.2098 58.8062 38.7898C58.7462 39.3698 58.2262 39.7998 57.6462 39.7398C51.9762 39.1698 46.6662 40.7298 42.2962 44.2598C42.0962 44.4198 41.8662 44.4999 41.6262 44.4999V44.4898Z" fill="#192232"/>
<path d="M21.5862 33.93C15.3263 32.07 12.4863 23.02 12.4863 23.02C12.4863 23.02 19.8062 16.98 26.0662 18.83C32.3262 20.69 35.1662 29.74 35.1662 29.74C35.1662 29.74 27.8462 35.78 21.5862 33.93Z" fill="white"/>
<path d="M24.1262 35.3499C23.1762 35.3499 22.2162 35.2299 21.2762 34.9499C14.5462 32.9599 11.5862 23.7299 11.4662 23.3399C11.3362 22.9299 11.4662 22.4799 11.8062 22.1999C12.1262 21.9399 19.6362 15.8199 26.3662 17.8099C33.0962 19.8099 36.0562 29.0299 36.1762 29.4199C36.3062 29.8299 36.1762 30.2799 35.8362 30.5599C35.5662 30.7799 29.9662 35.3499 24.1262 35.3499ZM13.7463 23.3899C14.5363 25.4599 17.2062 31.5199 21.8862 32.9099C26.5662 34.2999 32.1162 30.6699 33.9062 29.3699C33.1162 27.2999 30.4462 21.2399 25.7662 19.8499C21.0862 18.4599 15.5363 22.0899 13.7463 23.3899Z" fill="#192232"/>
<path d="M35.1662 29.74C29.0362 24.83 21.3662 22.08 12.4862 23.01L35.1662 29.74Z" fill="white"/>
<path d="M35.1662 30.8099C34.9362 30.8099 34.6962 30.7299 34.5062 30.5799C28.1562 25.4899 20.5762 23.2399 12.5962 24.0799C12.0062 24.1399 11.4862 23.7198 11.4262 23.1298C11.3662 22.5498 11.7862 22.0199 12.3762 21.9599C20.9162 21.0599 29.0362 23.4699 35.8362 28.9099C36.2962 29.2799 36.3662 29.9499 36.0062 30.3999C35.7962 30.6599 35.4862 30.7999 35.1762 30.7999L35.1662 30.8099Z" fill="#192232"/>
</svg>
