<svg width="75" height="75" viewBox="0 0 75 75" fill="none" xmlns="http://www.w3.org/2000/svg">
<path d="M63.5028 58.3562C56.4247 61.415 50.3313 55.6202 41.1468 58.8485C40.5254 59.0665 39.9927 59.2924 39.4762 59.5022C33.8751 61.8508 32.4708 63.8281 28.2821 65.8539C26.0223 66.9435 23.8996 67.9684 20.8974 68.1379C19.5657 68.2105 15.6433 68.3559 11.8501 65.7248C11.0107 65.1437 7.29817 62.432 6.25705 57.4362C5.4419 53.5218 6.7655 50.2693 7.45151 48.5664C8.0084 47.1782 8.42807 46.6456 9.16251 45.2978C9.96959 43.8208 12.5603 39.051 12.8266 34.8784C13.2302 28.43 7.87926 26.7593 8.71862 20.2059C9.04145 17.6636 10.131 15.8557 10.6879 14.9437C13.5369 10.2869 18.2098 8.68084 19.9208 8.0836C27.7736 5.36377 35.005 8.55172 36.2559 9.12474C44.7221 13.031 49.4839 21.8523 51.6146 25.7908C52.0342 26.5737 52.7041 27.8811 53.8743 29.6405C54.9397 31.2547 57.3528 34.6363 61.251 38.0583C64.5439 40.4956 68.3775 42.1259 69.6203 46.3711C69.7817 46.92 70.4839 49.5026 69.4347 52.3596C67.9981 56.282 64.2372 58.0495 63.5108 58.3643L63.5028 58.3562Z" fill="#3DAF5B"/>
<path d="M59.5644 11.8684H15.4659C14.1287 11.8684 13.0447 12.9524 13.0447 14.2896V62.9238C13.0447 64.261 14.1287 65.3451 15.4659 65.3451H59.5644C60.9016 65.3451 61.9856 64.261 61.9856 62.9238V14.2896C61.9856 12.9524 60.9016 11.8684 59.5644 11.8684Z" fill="white"/>
<path d="M60.444 66.3704H14.5942C13.1737 66.3704 12.0196 65.2163 12.0196 63.7958V13.4022C12.0196 11.9817 13.1737 10.8276 14.5942 10.8276H60.452C61.8725 10.8276 63.0266 11.9817 63.0266 13.4022V63.7958C63.0266 65.2163 61.8725 66.3704 60.452 66.3704H60.444ZM14.5942 12.8937C14.3117 12.8937 14.0776 13.1278 14.0776 13.4103V63.8039C14.0776 64.0863 14.3117 64.3205 14.5942 64.3205H60.452C60.7346 64.3205 60.9686 64.0863 60.9686 63.8039V13.4103C60.9686 13.1278 60.7346 12.8937 60.452 12.8937H14.5942Z" fill="#192232"/>
<path d="M61.9856 15.7424H13.0447V17.8005H61.9856V15.7424Z" fill="#192232"/>
<path d="M55.5369 25.2017L41.2112 25.1372C40.6464 25.1372 40.1863 24.669 40.1863 24.1042C40.1863 23.5392 40.6464 23.0791 41.2193 23.0791L55.5449 23.1437C56.1098 23.1437 56.5699 23.6118 56.5699 24.1768C56.5699 24.7417 56.1098 25.2017 55.5449 25.2017H55.5369Z" fill="#192232"/>
<path d="M55.5369 29.7614L41.2112 29.6968C40.6464 29.6968 40.1863 29.2288 40.1863 28.6638C40.1863 28.0988 40.6464 27.6227 41.2193 27.6388L55.5449 27.7034C56.1098 27.7034 56.5699 28.1714 56.5699 28.7364C56.5699 29.3014 56.1098 29.7614 55.5449 29.7614H55.5369Z" fill="#192232"/>
<path d="M55.5369 34.3136L41.2112 34.249C40.6464 34.249 40.1863 33.7809 40.1863 33.2159C40.1863 32.651 40.6464 32.1909 41.2112 32.1909L55.5369 32.2555C56.1018 32.2555 56.5618 32.7236 56.5618 33.2886C56.5618 33.8535 56.1018 34.3136 55.5369 34.3136Z" fill="#192232"/>
<path d="M36.5625 51.0039H19.0975C18.5325 51.0039 18.0725 50.5438 18.0725 49.9788C18.0725 49.4139 18.5325 48.9539 19.0975 48.9539H36.5706C37.1356 48.9539 37.5956 49.4139 37.5956 49.9788C37.5956 50.5438 37.1356 51.0039 36.5706 51.0039H36.5625Z" fill="#192232"/>
<path d="M36.5625 55.693H19.0975C18.5325 55.693 18.0725 55.233 18.0725 54.668C18.0725 54.1031 18.5325 53.6431 19.0975 53.6431H36.5706C37.1356 53.6431 37.5956 54.1031 37.5956 54.668C37.5956 55.233 37.1356 55.693 36.5706 55.693H36.5625Z" fill="#192232"/>
<path d="M36.5625 60.3822H19.0975C18.5325 60.3822 18.0725 59.9222 18.0725 59.3572C18.0725 58.7923 18.5325 58.3323 19.0975 58.3323H36.5706C37.1356 58.3323 37.5956 58.7923 37.5956 59.3572C37.5956 59.9222 37.1356 60.3822 36.5706 60.3822H36.5625Z" fill="#192232"/>
<path d="M53.5112 39.0999H52.7364C51.4973 39.0999 50.4928 40.1043 50.4928 41.3435V42.1183C50.4928 43.3574 51.4973 44.3619 52.7364 44.3619H53.5112C54.7503 44.3619 55.7549 43.3574 55.7549 42.1183V41.3435C55.7549 40.1043 54.7503 39.0999 53.5112 39.0999Z" fill="white"/>
<path d="M53.1237 45.3949C51.106 45.3949 49.4677 43.7565 49.4677 41.7389C49.4677 39.7211 51.106 38.0828 53.1237 38.0828C55.1414 38.0828 56.7798 39.7211 56.7798 41.7389C56.7798 43.7565 55.1414 45.3949 53.1237 45.3949ZM53.1237 40.1328C52.244 40.1328 51.5257 40.8511 51.5257 41.7308C51.5257 42.6105 52.244 43.3288 53.1237 43.3288C54.0035 43.3288 54.7217 42.6105 54.7217 41.7308C54.7217 40.8511 54.0035 40.1328 53.1237 40.1328Z" fill="#192232"/>
<path d="M44.4072 39.0999H43.6325C42.3933 39.0999 41.3889 40.1043 41.3889 41.3435V42.1183C41.3889 43.3574 42.3933 44.3619 43.6325 44.3619H44.4072C45.6464 44.3619 46.6509 43.3574 46.6509 42.1183V41.3435C46.6509 40.1043 45.6464 39.0999 44.4072 39.0999Z" fill="white"/>
<path d="M44.0201 45.3949C42.0023 45.3949 40.364 43.7565 40.364 41.7389C40.364 39.7211 42.0023 38.0828 44.0201 38.0828C46.0377 38.0828 47.6761 39.7211 47.6761 41.7389C47.6761 43.7565 46.0377 45.3949 44.0201 45.3949ZM44.0201 40.1328C43.1403 40.1328 42.422 40.8511 42.422 41.7308C42.422 42.6105 43.1403 43.3288 44.0201 43.3288C44.8998 43.3288 45.618 42.6105 45.618 41.7308C45.618 40.8511 44.8998 40.1328 44.0201 40.1328Z" fill="#192232"/>
<path d="M27.4832 39.123C32.5111 39.123 36.587 35.0472 36.587 30.0193C36.587 24.9913 32.5111 20.9155 27.4832 20.9155C22.4553 20.9155 18.3794 24.9913 18.3794 30.0193C18.3794 35.0472 22.4553 39.123 27.4832 39.123Z" fill="white"/>
<path d="M27.4829 40.1487C21.898 40.1487 17.3461 35.6049 17.3461 30.0119C17.3461 24.4189 21.8899 19.875 27.4829 19.875C33.0759 19.875 37.6198 24.4189 37.6198 30.0119C37.6198 35.6049 33.0759 40.1487 27.4829 40.1487ZM27.4829 21.9412C23.0279 21.9412 19.4042 25.5649 19.4042 30.02C19.4042 34.475 23.0279 38.0987 27.4829 38.0987C31.938 38.0987 35.5617 34.475 35.5617 30.02C35.5617 25.5649 31.938 21.9412 27.4829 21.9412Z" fill="#192232"/>
<path d="M32.0285 30.0707L27.2576 25.2998L22.4866 30.0707L27.2576 34.8417L32.0285 30.0707Z" fill="white"/>
<path d="M27.2572 35.8708C26.9827 35.8708 26.7245 35.7658 26.5308 35.5721L21.761 30.8024C21.3575 30.3988 21.3575 29.7531 21.761 29.3496L26.5308 24.5798C26.9182 24.1925 27.5961 24.1925 27.9836 24.5798L32.7533 29.3496C32.9471 29.5433 33.052 29.8016 33.052 30.076C33.052 30.3504 32.9471 30.6086 32.7533 30.8024L27.9836 35.5721C27.7898 35.7658 27.5316 35.8708 27.2572 35.8708ZM23.9401 30.068L27.2572 33.385L30.5743 30.068L27.2572 26.7509L23.9401 30.068Z" fill="#192232"/>
<path d="M26.45 45.3063H19.2186C18.6536 45.3063 18.1936 44.8463 18.1936 44.2813C18.1936 43.7163 18.6536 43.2563 19.2186 43.2563H26.45C27.0149 43.2563 27.4749 43.7163 27.4749 44.2813C27.4749 44.8463 27.0149 45.3063 26.45 45.3063Z" fill="#192232"/>
<path d="M31.6153 45.3063H30.1545C29.5895 45.3063 29.1295 44.8463 29.1295 44.2813C29.1295 43.7163 29.5895 43.2563 30.1545 43.2563H31.6153C32.1802 43.2563 32.6403 43.7163 32.6403 44.2813C32.6403 44.8463 32.1802 45.3063 31.6153 45.3063Z" fill="#192232"/>
<path d="M36.6271 45.3063H35.1663C34.6014 45.3063 34.1414 44.8463 34.1414 44.2813C34.1414 43.7163 34.6014 43.2563 35.1663 43.2563H36.6271C37.1921 43.2563 37.6521 43.7163 37.6521 44.2813C37.6521 44.8463 37.1921 45.3063 36.6271 45.3063Z" fill="#192232"/>
<path d="M55.8034 49.3572H40.8725V59.5989H55.8034V49.3572Z" fill="white"/>
<path d="M55.8114 60.6244H40.8805C40.3155 60.6244 39.8555 60.1644 39.8555 59.5995V49.3577C39.8555 48.7927 40.3155 48.3328 40.8805 48.3328H55.8114C56.3762 48.3328 56.8363 48.7927 56.8363 49.3577V59.5995C56.8363 60.1644 56.3762 60.6244 55.8114 60.6244ZM41.9055 58.5664H54.7864V50.3827H41.9055V58.5664Z" fill="#192232"/>
</svg>
