<svg width="75" height="75" viewBox="0 0 75 75" fill="none" xmlns="http://www.w3.org/2000/svg">
<path d="M60.5492 62.025C53.5314 63.9911 48.5615 57.7834 39.5413 59.6311C38.9314 59.7585 38.4035 59.8951 37.8937 60.0316C32.3414 61.5153 30.7758 63.1901 26.5888 64.5554C24.3315 65.2836 22.2106 65.9754 19.3798 65.7479C18.1237 65.6478 14.4283 65.2837 11.2061 62.3345C10.4961 61.6792 7.36495 58.6663 7.02816 53.8512C6.7642 50.0829 8.4208 47.2066 9.27641 45.6956C9.97728 44.4668 10.4324 44.0208 11.2971 42.8466C12.2346 41.5632 15.2839 37.4308 16.0575 33.5533C17.259 27.564 12.4622 25.3158 14.0824 19.281C14.7104 16.9417 15.9574 15.3852 16.5946 14.6025C19.8623 10.6066 24.4407 9.69635 26.1155 9.35957C33.8251 7.81219 40.1875 11.7171 41.2889 12.418C48.7254 17.1602 52.0568 26.0348 53.5496 29.9943C53.8408 30.7771 54.305 32.0969 55.1697 33.89C55.9616 35.5375 57.7912 39.0146 61.0043 42.7192C63.7804 45.4225 67.1665 47.4341 67.7854 51.5756C67.8673 52.1127 68.195 54.6158 66.8479 57.1644C65.0001 60.6596 61.25 61.8338 60.531 62.0341L60.5492 62.025Z" fill="#3DAF5B"/>
<path d="M57.2179 20.7825H16.8131C14.0684 20.7825 11.8433 23.0075 11.8433 25.7523V50.574C11.8433 53.3188 14.0684 55.5438 16.8131 55.5438H57.2179C59.9626 55.5438 62.1877 53.3188 62.1877 50.574V25.7523C62.1877 23.0075 59.9626 20.7825 57.2179 20.7825Z" fill="white"/>
<path d="M59.3659 56.5729H14.665C12.535 56.5729 10.8056 54.8435 10.8056 52.7136V23.6047C10.8056 21.4748 12.535 19.7454 14.665 19.7454H59.3659C61.4958 19.7454 63.2253 21.4748 63.2253 23.6047V52.7136C63.2253 54.8435 61.4958 56.5729 59.3659 56.5729ZM14.665 21.8116C13.6819 21.8116 12.8809 22.6126 12.8809 23.5956V52.7045C12.8809 53.6875 13.6819 54.4886 14.665 54.4886H59.3659C60.349 54.4886 61.15 53.6875 61.15 52.7045V23.5956C61.15 22.6126 60.349 21.8116 59.3659 21.8116H14.665Z" fill="#172233"/>
<path d="M28.0814 32.3431C28.0814 34.5367 26.707 36.4027 24.7864 37.1491C24.213 37.3766 23.594 37.4949 22.9387 37.4949C22.2833 37.4949 21.6553 37.3675 21.0818 37.1491C20.4082 36.8851 19.7984 36.4846 19.2887 35.984C18.3603 35.0555 17.7777 33.763 17.7777 32.3431C17.7777 30.9231 18.3511 29.6306 19.2887 28.6931C19.7984 28.1925 20.3991 27.792 21.0818 27.528C21.6553 27.3096 22.2833 27.1821 22.9387 27.1821C23.594 27.1821 24.213 27.3005 24.7864 27.528C25.46 27.792 26.0698 28.1925 26.5796 28.6931C27.508 29.6306 28.0905 30.914 28.0905 32.3431H28.0814Z" fill="white"/>
<path d="M22.9298 38.523C22.1652 38.523 21.4188 38.3864 20.6998 38.1134C19.8988 37.8039 19.1797 37.3397 18.5516 36.7207C17.3775 35.5466 16.7403 33.9992 16.7403 32.3426C16.7403 30.686 17.3866 29.1386 18.5516 27.9644C19.1797 27.3364 19.9079 26.8722 20.7089 26.5627C22.1561 26.0074 23.7672 26.0165 25.1598 26.5627C25.9517 26.8631 26.6981 27.3456 27.2989 27.9554C28.4639 29.1296 29.1102 30.686 29.1102 32.3335C29.1102 34.8639 27.5173 37.185 25.1507 38.1043C24.4499 38.3773 23.7035 38.5139 22.9298 38.5139V38.523ZM22.9298 28.2193C22.4201 28.2193 21.9195 28.3103 21.4461 28.4923C20.9182 28.6926 20.4358 29.0112 20.0171 29.4208C19.2434 30.1945 18.8156 31.2321 18.8156 32.3335C18.8156 33.4348 19.2434 34.4634 20.0171 35.2462C20.4358 35.6558 20.9182 35.9744 21.4461 36.1746C22.411 36.5478 23.4941 36.5387 24.4044 36.1746C25.9881 35.5648 27.044 34.0174 27.044 32.3335C27.044 31.2321 26.6162 30.1945 25.8334 29.4208C25.4329 29.0203 24.9414 28.7017 24.4044 28.4923C23.931 28.3103 23.4395 28.2193 22.9207 28.2193H22.9298Z" fill="#172233"/>
<path d="M45.5031 21.802H28.5366C27.9632 21.802 27.499 21.3377 27.499 20.7643V15.8127C27.499 13.6828 29.2284 11.9534 31.3583 11.9534H42.6815C44.8114 11.9534 46.5408 13.6828 46.5408 15.8127V20.7643C46.5408 21.3377 46.0766 21.802 45.5031 21.802ZM29.5652 19.7358H44.4655V15.8218C44.4655 14.8388 43.6645 14.0378 42.6815 14.0378H31.3583C30.3753 14.0378 29.5743 14.8388 29.5743 15.8218V19.7358H29.5652Z" fill="#172233"/>
<path d="M52.9487 20.7825H49.2441V55.5438H52.9487V20.7825Z" fill="white"/>
<path d="M52.9579 56.5732H49.2533C48.6798 56.5732 48.2156 56.109 48.2156 55.5356V20.7742C48.2156 20.2008 48.6798 19.7366 49.2533 19.7366H52.9579C53.5313 19.7366 53.9955 20.2008 53.9955 20.7742V55.5356C53.9955 56.109 53.5313 56.5732 52.9579 56.5732ZM50.2818 54.507H51.9202V21.821H50.2818V54.507Z" fill="#172233"/>
<path d="M24.7865 20.7825V27.5363C24.2131 27.3088 23.5941 27.1904 22.9388 27.1904C22.2834 27.1904 21.6553 27.3179 21.0819 27.5363V20.7825H24.7865Z" fill="white"/>
<path d="M24.7866 28.5651C24.6591 28.5651 24.5317 28.5377 24.4134 28.4922C23.494 28.1373 22.42 28.1281 21.4551 28.4922C21.1366 28.6106 20.7816 28.5742 20.4994 28.3739C20.2172 28.1828 20.0534 27.8642 20.0534 27.5183V20.7645C20.0534 20.191 20.5176 19.7268 21.0911 19.7268H24.7957C25.3691 19.7268 25.8333 20.191 25.8333 20.7645V27.5183C25.8333 27.8642 25.6604 28.1828 25.3782 28.3739C25.2053 28.4922 25.005 28.556 24.7957 28.556L24.7866 28.5651ZM22.1105 21.8112V26.2076C22.6566 26.1348 23.2119 26.1348 23.7489 26.2076V21.8203H22.1105V21.8112Z" fill="#172233"/>
<path d="M22.9298 37.4943C23.5851 37.4943 24.2041 37.376 24.7775 37.1484V55.544H21.0729V37.1484C21.6464 37.3669 22.2744 37.4943 22.9298 37.4943Z" fill="white"/>
<path d="M24.7867 56.5725H21.0821C20.5086 56.5725 20.0444 56.1083 20.0444 55.5349V37.1393C20.0444 36.8025 20.2083 36.4839 20.4904 36.2837C20.7726 36.0834 21.1276 36.047 21.4462 36.1654C22.411 36.5385 23.4942 36.5294 24.4044 36.1654C24.723 36.0379 25.078 36.0834 25.3601 36.2746C25.6423 36.4657 25.8152 36.7843 25.8152 37.1302V55.5258C25.8152 56.0992 25.351 56.5634 24.7776 56.5634L24.7867 56.5725ZM22.1106 54.5063H23.749V38.4682C23.212 38.541 22.6568 38.541 22.1106 38.4682V54.5063Z" fill="#172233"/>
</svg>
